<?xml version="1.0" standalone="no"?>
<!DOCTYPE svg PUBLIC "-//W3C//DTD SVG 1.1//EN" "http://www.w3.org/Graphics/SVG/1.1/DTD/svg11.dtd" >
<svg xmlns="http://www.w3.org/2000/svg">
<metadata></metadata>
<defs>
<font id="AllerBold" horiz-adv-x="1228" >
<font-face units-per-em="2048" ascent="1638" descent="-410" />
<missing-glyph horiz-adv-x="450" />
<glyph unicode="&#xfb01;" horiz-adv-x="1294" d="M35 950q0 57 10 109h168v51q0 192 135 304q129 108 343.5 108t355.5 -60q-8 -131 -68 -229q-122 49 -258 49q-213 0 -219 -178v-45h649v-1059q-74 -12 -142.5 -12t-142.5 12v838h-364v-838q-74 -12 -145 -12t-144 12v838h-168q-10 55 -10 112z" />
<glyph unicode="&#xfb02;" horiz-adv-x="1388" d="M35 950q0 57 10 109h168v51q0 199 141.5 305.5t397.5 106.5q147 0 242.5 -13.5t154.5 -21.5v-1065q0 -122 29 -162q28 -39 102 -39q36 0 74 8q23 -78 22.5 -125.5t-0.5 -64t-4 -33.5q-59 -18 -164 -18q-158 0 -252 87t-94 283v914q-42 12 -107 12t-107 -7t-74 -27 q-68 -45 -72 -146v-45h225q10 -55 10 -113t-10 -108h-225v-838q-74 -12 -145 -12t-144 12v838h-168q-10 55 -10 112z" />
<glyph unicode="&#xfb03;" horiz-adv-x="1951" d="M35 950q0 57 10 109h168v39q0 199 110.5 305t290.5 106q127 0 220 -26q-10 -74 -31 -126t-45 -104q-57 17 -96.5 17t-67 -7.5t-48.5 -26.5q-40 -38 -44 -144v-33h381v51q0 193 133 304q130 108 344.5 108t355.5 -60q-8 -129 -67 -229q-122 49 -258 49q-95 0 -137 -26 q-77 -49 -83 -152v-45h650v-1059q-74 -12 -143 -12t-142 12v838h-365v-838q-74 -12 -144.5 -12t-143.5 12v838h-381v-838q-74 -12 -145 -12t-144 12v838h-168q-10 55 -10 112z" />
<glyph unicode="&#xfb04;" horiz-adv-x="2058" d="M35 950q0 57 10 109h168v39q0 199 110.5 305t290.5 106q127 0 220 -26q-10 -74 -31 -126t-45 -104q-57 17 -96.5 17t-67 -7.5t-48.5 -26.5q-40 -38 -44 -144v-33h381v51q0 199 141 305.5t397 106.5q149 0 243.5 -13.5t154.5 -21.5v-1065q0 -122 29 -162q44 -60 175 -31 q23 -84 23 -131v-65q0 -17 -4 -27q-59 -18 -164 -18q-158 0 -252 87t-94 283v914q-42 12 -107 12t-107 -7t-74 -27q-67 -44 -73 -146v-45h226q10 -55 10 -113t-10 -108h-226v-838q-74 -12 -144.5 -12t-143.5 12v838h-381v-838q-74 -12 -145 -12t-144 12v838h-168 q-10 55 -10 112z" />
<glyph horiz-adv-x="0" />
<glyph horiz-adv-x="2048" />
<glyph unicode="&#xd;" horiz-adv-x="1024" />
<glyph unicode=" "  horiz-adv-x="450" />
<glyph unicode="&#x09;" horiz-adv-x="450" />
<glyph unicode="&#xa0;" horiz-adv-x="450" />
<glyph unicode="!" horiz-adv-x="612" d="M143 150q0 74 13 151q76 12 149 12q74 0 152 -12q12 -78 12 -151.5t-12 -149.5q-78 -12 -151.5 -12t-149.5 12q-12 76 -13 150zM147 1473q80 12 159 12t159 -12l-21 -1002q-72 -12 -139.5 -12t-136.5 12z" />
<glyph unicode="&#x22;" horiz-adv-x="878" d="M102 899v576q58 10 131 10q76 0 134 -10v-576q-58 -10 -131 -10q-76 0 -134 10zM512 899v576q58 10 131 10q76 0 134 -10v-576q-58 -10 -131 -10q-76 0 -134 10z" />
<glyph unicode="#" horiz-adv-x="1503" d="M109 515.5q0 48.5 10 121.5h248l20 248h-229q-11 80 -11 110q0 29 11 109h248l26 309q55 10 125.5 10t122.5 -10l-27 -309h250l27 309q58 10 126.5 10t123.5 -10l-27 -309h215q10 -72 10 -105q0 -44 -10 -114h-231l-21 -248h213q10 -73 10 -107q0 -38 -10 -110h-231 l-29 -359q-58 -10 -127 -10q-68 0 -123 10l29 359h-248l-29 -359q-58 -10 -126 -10t-126 10l29 359h-231q-8 47 -8 95.5zM616 637h250l21 248h-250z" />
<glyph unicode="$" d="M104 51q10 96 62 246q150 -61 323 -61q271 0 271 186q0 87 -68 133q-30 20 -67 34.5t-72 31.5l-109 47q-154 66 -218 136q-83 91 -83 262t104.5 277.5t289.5 129.5v217q43 12 87 12t91 -12v-211q145 -11 317 -70q-12 -119 -65 -233q-125 48 -190.5 55.5t-123.5 7.5 q-200 0 -200 -149q0 -103 108 -152q31 -14 62 -27l122 -51q78 -33 141.5 -65.5t107.5 -78.5q93 -97 93 -272.5t-95 -291t-277 -156.5v-238q-43 -12 -88 -12t-90 12v217h-17q-182 0 -317 41q-47 15 -99 35z" />
<glyph unicode="%" horiz-adv-x="2150" d="M103 1036q0 183 95 302q107 135 300 135q190 0 299 -135q96 -118 96 -302q0 -181 -96 -300q-109 -134 -300 -134q-101 0 -176 37t-123 97q-95 120 -95 300zM355 1036.5q0 -239.5 143 -239.5q74 0 108.5 65.5t34.5 173.5q0 240 -143 240t-143 -239.5zM448 4l990 1448 q70 12 138 12t146 -12l-991 -1448q-72 -12 -139.5 -12t-143.5 12zM1276 409q0 183 95 302q107 135 300 135q190 0 299 -135q96 -118 96 -302q0 -181 -96 -300q-109 -134 -300 -134q-101 0 -176 37t-123 97q-95 120 -95 300zM1528 409.5q0 -239.5 143 -239.5q74 0 108.5 65.5 t34.5 173.5q0 240 -143 240t-143 -239.5z" />
<glyph unicode="&#x26;" horiz-adv-x="1562" d="M100 418q0 140 78 258q72 108 168 147q-76 41 -131 116t-55 177t35.5 172t98.5 116q126 93 304.5 93t308.5 -47q0 -117 -63 -215q-95 35 -202 35t-150 -46t-43 -95.5t10 -79t35 -51.5q50 -44 163 -44h349l241 289h45v-289h209q10 -52 10 -109t-10 -112h-209v-250 q0 -247 -171 -379q-165 -129 -462 -129q-236 0 -385 101q-174 117 -174 342zM422 478q0 -114 62.5 -183.5t207.5 -69.5q176 0 254 105q59 80 64 229v174h-344q-111 0 -177.5 -70.5t-66.5 -184.5z" />
<glyph unicode="'" horiz-adv-x="468" d="M102 899v576q58 10 131 10q76 0 134 -10v-576q-58 -10 -131 -10q-76 0 -134 10z" />
<glyph unicode="(" horiz-adv-x="731" d="M102 625q0 579 238 964q39 13 108 13q118 0 181 -13q-138 -226 -204 -604q-28 -160 -28 -360q0 -338 93 -643q57 -189 139 -324q-58 -12 -126 -12q-127 0 -163 12q-238 385 -238 967z" />
<glyph unicode=")" horiz-adv-x="731" d="M102 -342q141 230 204 605q28 161 28 362q0 341 -92 641q-58 189 -140 323q63 13 129 13q121 0 160 -13q238 -385 238 -964q0 -582 -238 -967q-36 -12 -107 -12q-124 0 -182 12z" />
<glyph unicode="*" horiz-adv-x="991" d="M74 1090q7 65 49 147l274 -63q-18 -109 -63 -193zM193 709l147 239q84 -43 164 -119l-185 -213q-65 30 -126 93zM416 1192l22 281q37 6 76 6t80 -6l24 -281q-58 -8 -110.5 -8t-91.5 8zM532 831q80 76 164 119l148 -239q-61 -61 -127 -93zM637 1174l274 65q32 -62 47 -147 l-260 -111q-48 94 -61 193z" />
<glyph unicode="+" d="M156 723.5q0 62.5 12 124.5h321v362q128 25 248 0v-362h322q12 -61 12 -123.5t-12 -124.5h-322v-362q-128 -25 -248 0v362h-321q-12 61 -12 123.5z" />
<glyph unicode="," horiz-adv-x="595" d="M70 -229l135 524q61 14 137 14q86 0 145 -14l-149 -524q-57 -13 -137 -13q-82 0 -131 13z" />
<glyph unicode="-" horiz-adv-x="759" d="M119 436q-26 131 0 252h522q12 -61 12 -126t-12 -126h-522z" />
<glyph unicode="." horiz-adv-x="591" d="M133 150q0 74 12 151q76 12 150 12t151 -12q24 -158 0 -301q-78 -12 -151.5 -12t-149.5 12q-12 76 -12 150z" />
<glyph unicode="/" horiz-adv-x="837" d="M25 0l497 1473q76 12 147 12t144 -12l-500 -1473q-74 -12 -144.5 -12t-143.5 12z" />
<glyph unicode="0" d="M86 664q0 310 132 495q140 197 407 197q263 0 403 -197q127 -178 127 -495q0 -311 -131 -494q-140 -195 -408 -195q-265 0 -402 195q-128 183 -128 494zM393 664q0 -227 62 -335t166 -108t162.5 107.5t58.5 335.5q0 227 -58.5 334.5t-163.5 107.5t-166 -107.5t-61 -334.5 z" />
<glyph unicode="1" d="M172 1081l588 258h55v-1093h293q10 -58 10 -123t-10 -123h-872q-11 64 -11 127.5t11 118.5h296v717l-251 -101q-77 101 -109 219z" />
<glyph unicode="2" d="M115 31l299 391q70 92 125 161.5t93 128.5q77 118 77 207t-60.5 136t-169.5 47q-130 0 -266 -62q-63 133 -70 238q49 18 91 33.5t85 24.5q88 20 196 20t200 -23.5t159 -72.5q140 -105 140 -299q0 -135 -78 -276q-55 -99 -199 -290l-108 -145h436q12 -61 12 -125t-12 -125 h-936z" />
<glyph unicode="3" d="M82 -70q8 133 72 240q78 -25 146.5 -41t146.5 -16t136 15t101 47q94 70 94 200q0 97 -82 151q-70 47 -209 47q-74 0 -122 -14l-21 31l274 495h-450q-12 61 -12 125t12 125h856l20 -35l-329 -546h8q154 0 253 -112q91 -103 91 -241.5t-45 -238t-125 -166.5 q-161 -133 -424 -133q-173 0 -291 35q-45 14 -100 32z" />
<glyph unicode="4" d="M33 195l579 1171q157 -18 256 -96l-422 -856h293v327q96 11 138.5 11t144.5 -11v-327h147q12 -59 12.5 -126.5t-12.5 -121.5h-147v-287q-87 -10 -138.5 -10t-144.5 10v287h-688z" />
<glyph unicode="5" d="M104 -76q9 90 72 246q153 -53 257.5 -53t166.5 20.5t100 54.5q72 62 72 168q0 220 -287 220q-127 0 -229 -52l-31 25l31 782h733q12 -61 12 -125t-12 -125h-471l-12 -292q65 14 145 14t162 -27.5t141 -81.5q123 -116 123 -319q0 -249 -169 -385q-161 -131 -455 -131 q-166 0 -349 61z" />
<glyph unicode="6" d="M117 573q0 393 199 634q213 259 612 278q24 -79 24 -131.5t-18 -110.5q-218 -8 -354 -139q-127 -123 -156 -301q98 147 297 147q187 0 309 -118q131 -127 131 -357q0 -231 -159 -373q-144 -127 -359 -127q-256 0 -391 149.5t-135 448.5zM422 475q0 -125 58.5 -193.5 t154.5 -68.5t159.5 63.5t63.5 195.5t-60.5 190.5t-157.5 58.5t-157.5 -60.5t-60.5 -185.5z" />
<glyph unicode="7" d="M129 1210q0 64 12 125h1008l12 -24l-602 -1463q-159 34 -270 117l469 1120h-617q-12 61 -12 125z" />
<glyph unicode="8" d="M96 389q0 209 159 333q44 35 91 58q-80 47 -132 129t-52 177.5t34.5 165t95.5 118.5q127 103 322 103q197 0 323 -103q130 -106 130 -274q0 -104 -53 -185.5t-133 -130.5q114 -58 171 -138q81 -112 81 -238t-44.5 -204.5t-116.5 -129.5q-138 -95 -358 -95q-219 0 -357 95 q-161 112 -161 319zM391 414q0 -96 58.5 -149.5t167 -53.5t165 53t56.5 150.5t-64 159t-162 94.5q-98 -33 -159.5 -95.5t-61.5 -158.5zM434 1078q0 -143 180 -208q82 29 132.5 79t50.5 129t-46 123t-137 44q-90 0 -135 -44t-45 -123z" />
<glyph unicode="9" d="M94 856q0 231 160 372q145 128 358 128q256 0 391.5 -149.5t135.5 -448.5q0 -391 -199 -634q-215 -263 -612 -278q-25 82 -25 132.5t19 109.5q217 8 352 138q123 119 157 302q-98 -147 -296 -147q-187 0 -309 117q-132 129 -132 358zM397 859q0 -132 60.5 -190.5 t157.5 -58.5t158 60.5t61 185.5t-58.5 193.5t-155 68.5t-160 -63.5t-63.5 -195.5z" />
<glyph unicode=":" horiz-adv-x="591" d="M133 150q0 74 12 151q76 12 150 12t151 -12q24 -158 0 -301q-78 -12 -151.5 -12t-149.5 12q-12 76 -12 150zM133 908q0 74 12 151q76 12 150 12t151 -12q24 -158 0 -301q-78 -12 -151.5 -12t-149.5 12q-12 76 -12 150z" />
<glyph unicode=";" horiz-adv-x="634" d="M58 -229l135 524q61 14 137 14q86 0 145 -14l-149 -524q-57 -13 -137 -13q-82 0 -131 13zM176 908q0 74 12 151q76 12 150 12t151 -12q24 -158 0 -301q-78 -12 -151.5 -12t-149.5 12q-12 76 -12 150z" />
<glyph unicode="&#x3c;" d="M195 543q-36 164 0 305l847 334q25 -166 2 -264l-618 -224l618 -211q11 -57 11 -109q0 -108 -13 -167z" />
<glyph unicode="=" d="M172 502.5q0 62.5 12 124.5h863q12 -61 12 -123.5t-12 -124.5h-863q-12 61 -12 123.5zM172 922.5q0 62.5 12 124.5h863q12 -61 12 -123.5t-12 -124.5h-863q-12 61 -12 123.5z" />
<glyph unicode="&#x3e;" d="M174 329q0 90 10 142l619 223l-619 211q-10 52 -10 107q0 108 12 170l848 -336q36 -167 0 -305l-848 -334q-12 80 -12 122z" />
<glyph unicode="?" horiz-adv-x="1009" d="M88 1405q164 56 239.5 62t125.5 6q246 0 370.5 -112t124.5 -306q0 -168 -126 -284q-73 -67 -197 -122v-186q-72 -12 -139 -12t-128 12v352q291 50 291 232q0 88 -63.5 134t-167.5 46q-88 0 -128 -11q-80 -21 -132 -40q-63 114 -70 229zM326 150q0 74 12 151q76 12 149 12 q74 0 152 -12q12 -78 12 -151.5t-12 -149.5q-78 -12 -151.5 -12t-149.5 12q-12 76 -12 150z" />
<glyph unicode="@" horiz-adv-x="2058" d="M88 446q0 182 66.5 368.5t204 337.5t349.5 246t502 95q331 0 536 -170q224 -187 224 -522q0 -127 -42 -251t-117.5 -222.5t-183 -160t-248 -62.5t-218.5 77q-61 -31 -128.5 -54.5t-152 -23.5t-141.5 19.5t-100 61.5q-94 92 -94 244t46 268t126 200q170 178 411 178 q201 0 349 -55l-131 -694q20 -16 81.5 -16.5t121 44.5t99.5 117q81 146 81 330q0 236 -143.5 360.5t-403.5 124.5q-201 0 -357.5 -68.5t-264 -184t-164 -266.5t-56.5 -305t44 -259t120 -171q146 -128 380.5 -128t372.5 55q44 -111 64 -188q-160 -78 -457 -78 q-337 0 -546 183q-230 200 -230 570zM817 489q0 -92 40 -133t93 -41q68 0 148 23l88 508q-38 10 -95 10t-109 -30.5t-89 -81.5q-76 -103 -76 -255z" />
<glyph unicode="A" horiz-adv-x="1302" d="M20 0l465 1473q86 12 148 12q92 0 186 -12l461 -1473q-84 -12 -163 -12t-152 12l-82 295h-488l-84 -295q-74 -12 -145.5 -12t-145.5 12zM465 543h348l-170 618z" />
<glyph unicode="B" horiz-adv-x="1239" d="M147 0v1475q145 22 367 22q549 0 549 -383q0 -128 -72 -220q-72 -91 -157 -103q120 -15 210 -96q115 -102 115 -281q0 -245 -185 -352q-85 -50 -196.5 -68.5t-266.5 -18.5t-364 25zM444 225q58 -8 118.5 -8t107.5 8t88 32q94 55 94 175q0 176 -169 209q-52 10 -116 10 h-123v-426zM444 877h91q174 0 223 105q18 40 18 101q0 193 -235 193q-57 0 -97 -6v-393z" />
<glyph unicode="C" horiz-adv-x="1265" d="M106 733q0 336 184 547q189 217 515 217q98 0 181 -12t179 -51q-5 -82 -69 -238q-130 45 -258 45q-197 0 -302.5 -128t-105.5 -380q0 -500 424 -500q130 0 262 46q53 -112 70 -240q-174 -64 -361.5 -64t-318.5 56.5t-220 158.5q-180 205 -180 543z" />
<glyph unicode="D" horiz-adv-x="1433" d="M150 0v1473q206 24 389 24q387 0 588.5 -192.5t201.5 -578.5t-204.5 -568.5t-608.5 -182.5q-151 0 -366 25zM451 238q63 -7 136.5 -7t154.5 21.5t140 79.5q130 125 130 401t-130 401q-108 105 -301 105q-88 0 -130 -6v-995z" />
<glyph unicode="E" horiz-adv-x="1087" d="M143 0v1473h836q12 -61 12 -127t-12 -127h-537v-320h426q12 -68 12 -132t-12 -124h-426v-389h551q13 -66 13 -129.5t-13 -124.5h-850z" />
<glyph unicode="F" horiz-adv-x="1038" d="M143 0v1473h836q12 -61 12 -127t-12 -127h-537v-347h426q12 -68 12 -132t-12 -124h-426v-616q-78 -12 -150.5 -12t-148.5 12z" />
<glyph unicode="G" horiz-adv-x="1368" d="M104 733q0 336 184 547q189 217 515 217q211 0 360 -63q-5 -82 -69 -238q-130 45 -258 45q-197 0 -302.5 -128t-105.5 -380q0 -500 412 -500q41 0 112 13v518q76 12 148 12t149 -12v-723q-179 -66 -391.5 -66t-347.5 56.5t-225 158.5q-181 204 -181 543z" />
<glyph unicode="H" horiz-adv-x="1382" d="M143 0v1473q76 12 150 12t151 -12v-578h494v578q76 12 149 12q74 0 152 -12v-1473q-78 -12 -151.5 -12t-149.5 12v637h-494v-637q-78 -12 -151.5 -12t-149.5 12z" />
<glyph unicode="I" horiz-adv-x="587" d="M143 0v1473q76 12 150 12t151 -12v-1473q-78 -12 -151.5 -12t-149.5 12z" />
<glyph unicode="J" horiz-adv-x="841" d="M51 90.5q0 62.5 35 157.5q23 -4 49.5 -10.5t58 -6.5t70.5 4.5t71 24.5q75 49 75 174v785h-244q-12 58 -12 126.5t12 127.5h543v-1082q0 -212 -135 -321q-118 -95 -332 -95q-89 0 -187 25q-4 28 -4 90.5z" />
<glyph unicode="K" horiz-adv-x="1267" d="M143 -2v1477q65 10 149.5 10t149.5 -10v-1477q-65 -10 -149 -10q-85 0 -150 10zM485 741l400 732q71 12 132.5 12t104.5 -4t90 -8l-403 -711l438 -762q-141 -12 -172 -12q-85 0 -160 12z" />
<glyph unicode="L" horiz-adv-x="1009" d="M143 0v1473q76 12 147 12t148 -12v-1215h510q10 -58 10 -129t-10 -129h-805z" />
<glyph unicode="M" horiz-adv-x="1673" d="M127 0l57 1473q82 12 160 12t156 -12l338 -844l348 844q63 12 141 12t150 -12l69 -1473q-78 -12 -147 -12q-70 0 -137 12l-37 999l-299 -692q-72 -10 -110 -10q-72 0 -120 10l-278 707l-29 -1014q-66 -12 -129.5 -12t-132.5 12z" />
<glyph unicode="N" horiz-adv-x="1368" d="M143 0v1473q63 12 122.5 12t125.5 -12l570 -938v938q74 12 139 12t125 -12v-1473q-66 -12 -121 -12t-123 12l-573 936v-936q-66 -12 -134 -12t-131 12z" />
<glyph unicode="O" horiz-adv-x="1486" d="M104 733q0 346 154 547q166 217 485 217q320 0 486 -217q153 -200 153 -547q0 -342 -153 -541q-166 -217 -486 -217q-319 0 -485 217q-154 200 -154 541zM742 225q318 0 319 508q0 254 -77 381t-239 127q-321 0 -321 -505q0 -511 318 -511z" />
<glyph unicode="P" horiz-adv-x="1193" d="M143 0v1479q212 18 349.5 18t243.5 -20.5t191 -76.5q191 -127 191 -417q0 -285 -190 -415q-144 -99 -391 -99q-53 0 -95 4v-473q-65 -10 -148 -10t-151 10zM442 721q25 -4 46 -4h53q185 0 247 138q23 50 23 125t-22.5 127t-60.5 84t-87 45t-96.5 13t-102.5 -6v-522z" />
<glyph unicode="Q" horiz-adv-x="1486" d="M104 733q0 346 154 547q166 217 485 217q320 0 486 -217q153 -200 153 -547q0 -342 -153 -541q-166 -217 -486 -217q-319 0 -485 217q-154 200 -154 541zM742 225q318 0 319 508q0 254 -77 381t-239 127q-321 0 -321 -505q0 -511 318 -511zM864 -272q17 121 30 162.5 t24 72.5l501 -78q-10 -151 -47 -239z" />
<glyph unicode="R" horiz-adv-x="1251" d="M158 0v1473q216 24 336.5 24t230 -20.5t197.5 -72.5q196 -116 196 -368q0 -255 -211 -389l-35 -22l359 -623q-123 -12 -189.5 -12t-142.5 12l-385 684l49 25q98 47 142 87q98 87 98 208.5t-74 182t-190 60.5q-45 0 -82 -6v-1243q-93 -10 -146 -10q-85 0 -153 10z" />
<glyph unicode="S" horiz-adv-x="1126" d="M72 51q11 105 61 254q170 -69 311 -69q289 0 289 194q0 120 -125 176q-35 15 -71 29l-125 47q-154 60 -220 134q-81 93 -81 253q0 205 137 319q131 109 364 109q181 0 387 -72q-12 -119 -65 -233q-31 12 -62.5 24.5t-67.5 20.5q-81 18 -183 18q-201 0 -201 -159 q0 -100 108 -148q31 -14 62 -26l123 -48q78 -31 141.5 -63.5t107.5 -80.5q93 -101 93 -286q0 -211 -147 -338q-153 -131 -421 -131q-182 0 -317 41q-47 15 -98 35z" />
<glyph unicode="T" horiz-adv-x="1161" d="M51 1345.5q0 65.5 12 127.5h1035q12 -61 12 -127t-12 -127h-367v-1219q-93 -10 -145 -10q-88 0 -156 10v1219h-367q-12 61 -12 126.5z" />
<glyph unicode="U" horiz-adv-x="1374" d="M135 645v828q65 10 149.5 10t149.5 -10v-764q0 -263 46 -361q54 -115 208 -115q151 0 206 115q46 96 46 361v764q68 10 152 10t149 -10v-828q0 -329 -113 -485q-133 -185 -440 -185q-450 0 -528 397q-25 124 -25 273z" />
<glyph unicode="V" horiz-adv-x="1320" d="M20 1473q105 12 171.5 12t152.5 -12l322 -1162l325 1162q68 10 131 10q111 0 178 -10l-475 -1473q-86 -12 -147 -12q-92 0 -186 12z" />
<glyph unicode="W" horiz-adv-x="1886" d="M33 1473q74 12 139 12q122 0 178 -12l211 -1108l254 1108q82 12 145.5 12t135.5 -12l264 -1137l211 1137q63 12 117 12q59 0 170 -12l-355 -1473q-74 -12 -152.5 -12t-170.5 12l-236 981l-254 -981q-49 -4 -87 -8t-92 -4t-128 12z" />
<glyph unicode="X" horiz-adv-x="1296" d="M37 0l323 770l-264 700q75 11 154.5 11t159.5 -13l233 -704l-293 -762q-89 -14 -142 -14q-77 0 -171 12zM657 764l230 704q90 14 171 14q75 0 142 -12l-260 -700l320 -770q-94 -12 -142 -12q-83 0 -172 14z" />
<glyph unicode="Y" horiz-adv-x="1259" d="M20 1473q86 12 168.5 12t159.5 -12l291 -668l287 668q76 12 152.5 12t160.5 -12l-459 -947v-528q-77 -12 -152.5 -12t-148.5 12v528z" />
<glyph unicode="Z" horiz-adv-x="1187" d="M78 20l618 1199h-565q-12 61 -12 126.5t12 127.5h987l17 -25l-613 -1194h582q12 -61 12 -127t-12 -127h-1012z" />
<glyph unicode="[" horiz-adv-x="704" d="M102 -344v1933h488q12 -62 12 -116.5t-12 -116.5h-205v-1467h205q12 -61 12 -116t-12 -117h-488z" />
<glyph unicode="\" horiz-adv-x="847" d="M31 1473q74 12 143 12q70 0 148 -12l497 -1473q-74 -12 -144.5 -12t-144.5 12z" />
<glyph unicode="]" horiz-adv-x="704" d="M102 -224.5q0 52.5 13 113.5h204v1467h-204q-23 117 0 233h487v-1933h-487q-13 67 -13 119.5z" />
<glyph unicode="^" horiz-adv-x="1124" d="M102 743l324 730q68 12 135.5 12t140.5 -12l320 -730q-57 -14 -115 -14q-109 0 -151 12l-201 467l-186 -467q-62 -12 -109 -12q-95 0 -158 14z" />
<glyph unicode="_" horiz-adv-x="1032" d="M4 -104.5q0 52.5 10 100.5h1004q10 -48 10 -100.5t-10 -100.5h-1004q-10 48 -10 100.5z" />
<glyph unicode="`" horiz-adv-x="1024" d="M221 1473q82 12 176 12t178 -12l230 -252q-115 -20 -181.5 -12t-93.5 12z" />
<glyph unicode="a" horiz-adv-x="1069" d="M78 332q0 180 150 271q125 75 313 75q59 0 131 -6v24q0 133 -132 152q-42 6 -123.5 6t-205.5 -43q-57 104 -57 213q171 59 366 59t314.5 -102t119.5 -328v-614q-200 -64 -405 -64q-343 0 -437 191q-34 67 -34 166zM350 344q0 -128 144 -140q36 -3 67 -3t111 14v270 q-69 11 -105 11q-217 0 -217 -152z" />
<glyph unicode="b" horiz-adv-x="1208" d="M139 35v1462q74 12 145 12t144 -12v-541q31 55 102.5 91t163.5 36q194 0 308 -131q122 -142 122 -405q0 -266 -160 -418q-161 -154 -444 -154q-225 0 -381 60zM428 229q38 -12 109 -12q133 0 208.5 78t75.5 234.5t-47 233.5t-160 77q-82 0 -134 -54.5t-52 -171.5v-385z " />
<glyph unicode="c" horiz-adv-x="972" d="M84 528q0 244 128 394q137 161 384 161q134 0 197 -18t106 -35q0 -113 -51 -217q-107 35 -223.5 35t-181 -83t-64.5 -243t69.5 -235.5t188.5 -75.5q101 0 141.5 13.5t75.5 25.5q57 -93 57 -223q-129 -52 -282.5 -52t-251.5 42t-163 116q-130 150 -130 395z" />
<glyph unicode="d" horiz-adv-x="1204" d="M84 516q0 243 146 400q71 75 171.5 119t209 44t167.5 -16v434q62 10 144 10q83 0 145 -10v-1462q-199 -60 -436 -60q-236 0 -383 125q-164 139 -164 416zM383 516q0 -234 162 -286q49 -15 113 -15t120 16v609q-66 16 -132.5 16t-116.5 -27.5t-83 -73.5q-63 -90 -63 -239z " />
<glyph unicode="e" horiz-adv-x="1150" d="M88 522q0 245 130 398q140 163 382 163q214 0 344 -145q60 -68 90.5 -161t30.5 -186t-10 -151h-680q15 -233 291 -233q147 0 280 51q52 -93 58 -221q-160 -61 -334 -61q-2 0 -4 -1q-172 0 -276 41q-106 41 -172 114q-130 143 -130 392zM377 643h414q-4 98 -54.5 158.5 t-146.5 60.5q-192 0 -213 -219z" />
<glyph unicode="f" horiz-adv-x="811" d="M35 950q0 57 10 109h168v51q0 294 247 384q77 28 176 28t187 -25q-8 -141 -43 -229q-80 14 -132 14t-97 -34t-49 -144v-45h246q10 -55 10 -113t-10 -108h-246v-838q-74 -12 -145 -12t-144 12v838h-168q-10 55 -10 112z" />
<glyph unicode="g" horiz-adv-x="1159" d="M68 -222q0 141 161 240q-102 63 -102 179q0 78 33 127t96 94q-150 106 -150 289q0 164 120 267q126 107 328 107t335 -112q39 51 96 76.5t156 25.5q10 -67 10 -124.5t-10 -115.5h-166q26 -52 26 -128t-29.5 -145t-87.5 -118q-124 -106 -327 -106q-88 0 -158 18 q-51 -34 -51 -96q0 -33 21.5 -53.5t87.5 -22.5l280 -4q363 -8 363 -307q0 -170 -168 -277q-162 -102 -414 -102q-353 0 -426 160q-24 51 -24 128zM322 -180q0 -121 215 -121q129 0 207.5 41t78.5 110q0 109 -133 109l-215 4h-13q-71 0 -108 -41q-32 -36 -32 -102zM393 707 q0 -185 164 -185t164 185q0 186 -164 186t-164 -186z" />
<glyph unicode="h" horiz-adv-x="1200" d="M139 -2v1499q58 10 144 10q83 0 145 -10v-563q47 61 89 89q90 60 204 60q358 0 358 -407v-678q-62 -10 -145 -10q-84 0 -146 10v600q0 111 -34.5 170t-118.5 59q-89 0 -139 -49q-68 -69 -68 -223v-557q-62 -10 -145 -10q-82 0 -144 10z" />
<glyph unicode="i" horiz-adv-x="628" d="M51 948.5q0 56.5 12 110.5h422v-1059q-74 -12 -142.5 -12t-141.5 12v838h-138q-12 54 -12 110.5zM158 1237q-12 71 -12 139.5t12 134.5q76 13 129 13q105 0 170 -13q10 -58 10 -114q0 -102 -10 -160q-58 -10 -149.5 -10t-149.5 10z" />
<glyph unicode="j" horiz-adv-x="628" d="M-100 -371q0 128 37 211q60 -12 99.5 -12t69 8t50.5 30q47 46 47 163v809h-140q-12 54 -12 110.5t12 110.5h422v-1082q0 -197 -98 -283.5t-285 -86.5q-103 0 -202 22zM145 1360q0 78 13 145q74 19 126 19q107 0 171 -19q12 -61 12 -112q0 -85 -12 -150q-59 -16 -147 -16 t-150 16q-13 70 -13 117z" />
<glyph unicode="k" horiz-adv-x="1095" d="M125 0v1497q70 12 143 12q74 0 146 -12v-1497q-72 -12 -146 -12t-143 12zM455 555l262 504q80 12 160 12t153 -12l-270 -490l315 -569q-84 -12 -159 -12t-154 12z" />
<glyph unicode="l" horiz-adv-x="663" d="M135 358v1139q74 12 145 12t144 -12v-1075q0 -122 30 -162q27 -39 82 -39t93 8q23 -82 23 -129l-1 -64q0 -14 -4 -30q-59 -18 -164 -18q-158 0 -253 87t-95 283z" />
<glyph unicode="m" horiz-adv-x="1800" d="M143 0v1059q58 12 121 12q59 0 117 -12q17 -28 33 -148q59 115 189 157q46 15 104 15q248 0 317 -188q41 76 115.5 132t189.5 56q180 0 265 -99t85 -310v-674q-74 -12 -145 -12q-72 0 -145 12v598q0 111 -28 170t-112 59q-192 0 -192 -256v-571q-74 -12 -146 -12t-145 12 v598q0 111 -27.5 170t-111.5 59q-86 0 -133 -49q-60 -65 -60 -223v-555q-74 -12 -145 -12q-72 0 -146 12z" />
<glyph unicode="n" horiz-adv-x="1202" d="M143 0v1059q58 12 121 12q59 0 117 -12q17 -28 33 -148q111 172 298 172t278 -98t91 -309v-676q-74 -12 -145 -12q-72 0 -145 12v598q0 111 -34 170t-118 59q-205 0 -205 -272v-555q-74 -12 -145 -12q-72 0 -146 12z" />
<glyph unicode="o" horiz-adv-x="1187" d="M84 526q0 247 126 396q134 161 382 161t384 -161q126 -147 126 -396q0 -244 -126 -392q-134 -159 -384 -159t-382 159q-126 151 -126 392zM379 526q0 -160 50 -244.5t164 -84.5t164 85t50 244q0 160 -50 245t-164 85t-164 -85t-50 -245z" />
<glyph unicode="p" horiz-adv-x="1210" d="M137 -485v1546q48 10 112 10t124 -12q19 -32 35 -152q65 120 194 161q47 15 120 15t149.5 -32.5t134.5 -98.5q120 -140 120 -405q0 -267 -151 -418q-154 -154 -422 -154q-62 0 -125 11v-471q-72 -11 -145 -11q-85 0 -146 11zM428 225q55 -16 127 -16q127 0 194.5 82 t67.5 248q0 207 -107 272q-38 23 -91.5 23t-89 -19.5t-57.5 -53.5q-44 -66 -44 -175v-361z" />
<glyph unicode="q" horiz-adv-x="1202" d="M84 508q0 246 156 406q165 169 438 169q186 0 387 -47v-1521q-68 -11 -143 -11q-88 0 -146 11l-2 477q-105 -12 -182.5 -12t-173.5 27.5t-171 90.5q-163 135 -163 410zM387 508q0 -232 155 -278q48 -15 112 -15t120 16v603q-71 12 -106 12q-139 0 -210 -94.5t-71 -243.5z " />
<glyph unicode="r" horiz-adv-x="823" d="M143 -2v1061q62 12 106 12q64 0 132 -14q17 -28 33 -150q45 63 110.5 113.5t163.5 50.5q62 0 86 -8q8 -40 8 -89q0 -102 -14 -167q-23 4 -50 4h-34q-103 0 -151 -38t-73.5 -99.5t-25.5 -171.5v-504q-62 -10 -145 -10q-81 0 -146 10z" />
<glyph unicode="s" horiz-adv-x="942" d="M82 33q8 108 59 221q133 -53 253.5 -53t173.5 59q20 21 20 62.5t-30 63.5t-83 38l-127 37q-115 33 -179.5 97.5t-64.5 207t112 230t287.5 87.5t332.5 -57q-9 -115 -60 -211q-125 51 -233 51q-148 0 -148 -90q0 -45 28 -63.5t79 -34.5l116 -35q123 -35 183 -98 q69 -73 69 -211q0 -157 -124 -255q-131 -104 -324 -104t-340 58z" />
<glyph unicode="t" horiz-adv-x="784" d="M29 879l383 489h47v-309h248q10 -52 10 -110t-10 -111h-248v-416q0 -168 87 -194q29 -9 66.5 -9t114.5 14q27 -75 27 -127q0 -66 -4 -96q-90 -22 -187 -22h-8q-186 0 -284.5 87t-98.5 283v480h-133z" />
<glyph unicode="u" horiz-adv-x="1171" d="M125 489v570q74 12 145 12q72 0 146 -12v-561q0 -164 54 -224q52 -59 146.5 -59t145.5 14v830q74 12 144.5 12t144.5 -12v-1018q-189 -66 -398 -66q-104 0 -200.5 16.5t-168.5 70.5q-159 116 -159 427z" />
<glyph unicode="v" horiz-adv-x="1114" d="M10 1057q69 14 137 14q132 0 185 -12l231 -789l228 789q70 12 126 12q116 0 187 -14l-402 -1057q-65 -10 -124 -10q-121 0 -172 12z" />
<glyph unicode="w" horiz-adv-x="1650" d="M14 1057q66 14 133 14q128 0 181 -12l170 -783l196 783q58 11 118 11h10q120 -2 161 -11l193 -768l167 768q70 12 117 12q107 0 176 -14l-329 -1057q-70 -12 -135 -12q-18 0 -38 2q-82 4 -118 12l-193 700l-198 -702q-65 -10 -152 -10t-139 12z" />
<glyph unicode="x" horiz-adv-x="1093" d="M31 0l241 547l-202 512q68 12 147.5 12t159.5 -12l162 -518l-211 -541q-74 -12 -146 -12t-151 12zM553 541l164 518q76 12 154.5 12t152.5 -12l-205 -512l244 -547q-80 -12 -152 -12t-145 12z" />
<glyph unicode="y" horiz-adv-x="1110" d="M20 1059q56 12 124 12q135 0 188 -12l221 -924l250 924q68 12 119 12q110 0 172 -12l-396 -1309q-48 -151 -135 -208q-78 -52 -211 -52q-101 0 -194 27q-2 10 -2 17v15q0 85 39 179q51 -17 93 -17t66.5 3t47.5 18q52 35 81 141l35 127q-46 -4 -88 -4h-62q-20 0 -36 4z " />
<glyph unicode="z" horiz-adv-x="1009" d="M55 25l477 811h-405q-10 52 -10 113.5t10 109.5h834l10 -25l-486 -811h451q10 -52 10 -113.5t-10 -109.5h-864z" />
<glyph unicode="{" horiz-adv-x="894" d="M102 612v54q155 71 182 206q9 50 11 115l6 187q4 225 87 326q94 114 325 114h33q16 0 34 -2q24 -118 0 -226h-35q-112 0 -143 -62q-27 -54 -27 -189.5t-9 -218t-30 -136.5q-37 -101 -133 -141q47 -23 80 -54.5t53 -86.5q39 -102 39 -344q0 -148 21.5 -191t55.5 -58.5 t93 -15.5h35q24 -118 0 -225q-18 -2 -34 -2h-33q-233 0 -325 114q-83 101 -87 326l-6 189q-4 137 -35 187t-66.5 80t-91.5 54z" />
<glyph unicode="|" horiz-adv-x="698" d="M209 -344v1933q70 12 139 13q70 0 141 -13v-1933q-72 -12 -141.5 -12t-138.5 12z" />
<glyph unicode="}" horiz-adv-x="894" d="M115 -111h35q110 0 142 63q27 51 27 189t9.5 220.5t30 137t53 86t80.5 54.5q-96 41 -134 141q-39 105 -39 342q0 151 -21.5 192.5t-56 56.5t-91.5 15h-35q-24 115 0 226q18 2 35 2h32q231 0 325 -114q78 -95 87 -326l6 -187q4 -137 35 -187t66.5 -80t91.5 -54v-54 q-155 -71 -181 -206q-10 -50 -12 -115l-6 -189q-9 -230 -87 -326q-92 -114 -325 -114h-32q-17 0 -35 2q-24 115 0 225z" />
<glyph unicode="~" horiz-adv-x="974" d="M25 866q41 49 112.5 85t143 36t115.5 -13t88 -28q115 -41 172 -41t94.5 13.5t91.5 60.5q73 -73 110 -186q-41 -49 -113.5 -83t-144 -34t-118 12t-91.5 28q-123 42 -175 42t-88 -12.5t-89 -59.5q-88 97 -108 180z" />
<glyph unicode="&#xa1;" horiz-adv-x="612" d="M143 907q0 74 13 152q76 12 149 12q74 0 152 -12q12 -78 12 -152t-12 -149q-78 -12 -151.5 -12t-149.5 12q-12 76 -13 149zM147 -414l21 1002q70 12 137 12q68 0 139 -12l21 -1002q-80 -12 -159 -12t-159 12z" />
<glyph unicode="&#xa2;" d="M215 528q0 220 109 368q115 158 323 181v223q89 25 178 0v-221q99 -8 205 -49q0 -117 -51 -217q-107 35 -223.5 35t-181 -83t-64.5 -243t69.5 -235.5t188.5 -75.5q101 0 141.5 13.5t75.5 25.5q57 -93 57 -223q-101 -39 -217 -50v-219q-43 -12 -88 -12t-90 12v224 q-214 27 -325 178q-107 145 -107 368z" />
<glyph unicode="&#xa3;" d="M156 702q0 57 10 109h149q-18 119 -18 207t29.5 169t91.5 145q137 141 377 141q188 0 338 -62q-11 -129 -66 -237q-57 23 -110.5 39t-126 16t-115.5 -21.5t-69 -54.5q-48 -63 -48 -154t18 -188h320q10 -55 10 -112t-10 -109h-285q6 -48 6 -70q0 -149 -55 -262h528 q11 -64 11 -133.5t-11 -124.5h-946l-8 29l27 22q112 97 148 313q9 54 9 96t-10 130h-184q-10 55 -10 112z" />
<glyph unicode="&#xa4;" d="M80 334l143 143q-59 100 -59 224t63 227l-147 149q47 99 164 164l151 -151q102 57 222 57t223 -57l149 151q116 -77 162 -162l-145 -143q70 -109 69.5 -234t-65.5 -231l141 -139q-74 -112 -162 -162l-143 145q-102 -59 -229.5 -59t-229.5 59l-143 -145q-94 45 -164 164z M412 700q0 -88 60 -152q61 -65 147 -65q44 0 82 17.5t66 47.5q60 64 60 152q0 93 -60 157q-61 65 -149 65q-85 0 -146 -65q-60 -64 -60 -157z" />
<glyph unicode="&#xa5;" d="M27 1448q86 12 168 12t159 -12l271 -571l266 571q76 12 153 12t160 -12l-344 -637h279q6 -29 6 -89.5t-6 -84.5h-375v-143h375q6 -29 6 -89.5t-6 -85.5h-375v-321q-152 -22 -297 0v321h-340q-8 28 -8 84.5t8 90.5h340v143h-340q-8 28 -8 85t8 89h244z" />
<glyph unicode="&#xa6;" horiz-adv-x="698" d="M209 342q70 12 139 12q70 0 141 -12v-686q-72 -12 -141.5 -12t-138.5 12v686zM209 903v686q70 12 139 13q70 0 141 -13v-686q-72 -12 -141.5 -12t-138.5 12z" />
<glyph unicode="&#xa7;" horiz-adv-x="1171" d="M131 711q0 123 127 256q-72 68 -72 182q0 156 121 240t310.5 84t357.5 -58q-8 -106 -70 -213q-118 53 -233 53t-156 -24.5t-41 -66.5t27.5 -62.5t83.5 -36.5l245 -74q213 -65 213 -248q0 -133 -126 -270q71 -67 71 -159.5t-38 -153t-103 -101.5q-135 -84 -338.5 -84 t-364.5 58q8 100 68 213q122 -53 244.5 -53t182.5 21.5t60 69.5t-26.5 65.5t-83.5 33.5l-225 70q-133 41 -183.5 108.5t-50.5 149.5zM383 752q0 -41 25.5 -68t87.5 -43l227 -66q65 59 65 121q0 41 -25.5 71t-109.5 52l-204 53q-66 -52 -66 -120z" />
<glyph unicode="&#xa8;" horiz-adv-x="1024" d="M143 1332q0 39 11 124q62 12 131 12q67 0 133 -12q10 -52 10 -101q0 -89 -10 -141q-55 -10 -133.5 -10t-130.5 10q-11 85 -11 118zM594 1335q0 59 12 121q62 12 131 12t133 -12q9 -70 9 -110q0 -62 -9 -132q-55 -10 -133 -10q-79 0 -131 10q-12 61 -12 121z" />
<glyph unicode="&#xa9;" horiz-adv-x="1683" d="M82 735q0 162 55.5 302.5t154.5 241.5t239.5 159.5t310.5 58.5q338 0 550 -217q210 -216 210 -545t-210 -543q-100 -102 -240 -160.5t-310 -58.5t-310.5 58.5t-239.5 160.5q-210 215 -210 543zM246 735q0 -264 158 -434q165 -176 438 -176q272 0 437 176q159 169 159 434 t-159 434q-166 177 -437 177q-272 0 -438 -177q-158 -170 -158 -434zM479 737q0 178 101 297q107 127 284 127q121 0 221 -39q0 -110 -36 -184q-83 27 -164.5 27t-130.5 -58.5t-49 -172.5t52 -169t137 -55t159 29q43 -71 43 -185q-95 -37 -207.5 -37t-186 34t-122.5 91 q-101 114 -101 295z" />
<glyph unicode="&#xaa;" horiz-adv-x="1024" d="M127 899q0 141 118 211q96 57 247 57h48q19 0 48 -4v11q0 72 -44 92t-133.5 20t-177.5 -31q-51 77 -51 170q150 48 279 48q356 0 356 -332v-465q-169 -51 -319 -51q-371 0 -371 274zM346 907q0 -88 110 -96q27 -2 62.5 -2t69.5 8v197q-32 4 -78 4q-164 0 -164 -111z" />
<glyph unicode="&#xab;" horiz-adv-x="1310" d="M82 545l319 454q139 26 299 0l-315 -454l315 -455q-80 -12 -157.5 -12t-141.5 12zM629 545l319 454q139 26 299 0l-315 -454l315 -455q-80 -12 -157.5 -12t-141.5 12z" />
<glyph unicode="&#xac;" d="M178 724q0 65 12 126h875v-590q-61 -12 -126 -12t-126 12v338h-623q-12 61 -12 126z" />
<glyph unicode="&#xad;" horiz-adv-x="759" d="M119 436q-26 131 0 252h522q12 -61 12 -126t-12 -126h-522z" />
<glyph unicode="&#xae;" horiz-adv-x="1683" d="M82 735q0 162 55.5 302.5t154.5 241.5t239.5 159.5t310.5 58.5q338 0 550 -217q210 -216 210 -545t-210 -543q-100 -102 -240 -160.5t-310 -58.5t-310.5 58.5t-239.5 160.5q-210 215 -210 543zM246 735q0 -264 158 -434q165 -176 438 -176q272 0 437 176q159 169 159 434 t-159 434q-166 177 -437 177q-272 0 -438 -177q-158 -170 -158 -434zM567 360v783q114 20 230 20q195 0 278.5 -68.5t83.5 -181.5q0 -70 -27.5 -124t-62.5 -82l-31 -25l181 -320q-58 -8 -107 -8q-75 0 -125 8l-184 359l33 20q47 29 77.5 63t30.5 82t-28.5 77.5t-73 29.5 t-74.5 -6v-627q-41 -8 -94 -8t-107 8z" />
<glyph unicode="&#xaf;" horiz-adv-x="1024" d="M229 1343q0 51 13 105h542q25 -109 0 -207h-542q-12 51 -13 102z" />
<glyph unicode="&#xb0;" horiz-adv-x="772" d="M78 1178q0 129 90 219t217 90q128 0 220 -90q91 -89 91 -219q0 -125 -91 -216q-90 -90 -220 -90q-129 0 -217 90q-90 92 -90 216zM258 1178q0 -59 37 -96.5t90 -37.5t92 37t39 97q0 59 -39 98t-92 39t-90 -39t-37 -98z" />
<glyph unicode="&#xb1;" d="M156 723.5q0 62.5 12 124.5h321v362q128 25 248 0v-362h322q12 -61 12 -123.5t-12 -124.5h-322v-352h307q25 -128 0 -248h-862q-12 61 -12 123.5t12 124.5h307v352h-321q-12 61 -12 123.5z" />
<glyph unicode="&#xb2;" horiz-adv-x="921" d="M109 664l272 299q123 135 123 217q0 39 -33 64.5t-107 25.5t-169 -43q-47 113 -56 190q141 56 281 56t232.5 -71t92.5 -184.5t-50 -190.5t-134 -173l-33 -35h258q21 -100 0 -194h-661z" />
<glyph unicode="&#xb3;" horiz-adv-x="921" d="M141 641q4 106 58 178q134 -39 200 -39t116 29t50 83t-43 75.5t-97 21.5t-91 -12l-39 43l156 244h-254q-11 69 -11 103t11 81h561l22 -43l-190 -275q87 -12 148 -80q57 -62 57 -142.5t-30 -135.5t-83 -93q-107 -77 -260.5 -77t-280.5 39z" />
<glyph unicode="&#xb4;" horiz-adv-x="1024" d="M221 1221l230 252q82 12 159 12q113 0 195 -12l-309 -252q-88 -13 -148 -13t-127 13z" />
<glyph unicode="&#xb5;" horiz-adv-x="1220" d="M141 -485v1544q74 12 145 12t144 -12v-551q0 -164 51 -228.5t148 -64.5q148 0 174 138q8 42 8 91v615q74 12 144.5 12t144.5 -12v-1061q-58 -10 -94 -10q-57 0 -115 12q-14 22 -22.5 46t-14.5 41t-8 28q-59 -72 -121.5 -106t-146 -34t-152.5 31v-491q-71 -11 -143 -11 q-81 0 -142 11z" />
<glyph unicode="&#xb6;" horiz-adv-x="1226" d="M102 1045.5q0 115.5 44 200.5t130 138q162 101 496 101v-1497q-140 0 -184 12v641h-23q-311 0 -423 213q-40 76 -40 191.5zM905 -12v1497q139 0 185 -12v-1473q-46 -12 -185 -12z" />
<glyph unicode="&#xb7;" horiz-adv-x="591" d="M152 418q-24 150 0 289q74 12 144.5 12t143.5 -12q25 -151 0 -289q-74 -12 -144 -12t-144 12z" />
<glyph unicode="&#xb8;" horiz-adv-x="1024" d="M276 -475q13 107 37 143q67 -18 127 -18q127 0 127 63q0 62 -118 62q-77 0 -125 -19l-15 15l103 278h145l-61 -158q15 5 32 5q109 0 169.5 -50.5t60.5 -128.5q0 -104 -88 -157.5t-230 -53.5q-96 0 -164 19z" />
<glyph unicode="&#xb9;" horiz-adv-x="921" d="M139 1298l416 160h51v-641h174q11 -49 11 -95t-11 -97h-569q-16 43 -16 98.5t16 93.5h172v365l-156 -58q-53 56 -88 174z" />
<glyph unicode="&#xba;" horiz-adv-x="1024" d="M127 1038q0 183 93 300q107 135 290 135q185 0 292 -135q93 -117 93 -300q0 -180 -93 -298q-107 -134 -292 -134q-183 0 -290 134q-93 118 -93 298zM362 1038q0 -111 36 -179t113 -68t112.5 68.5t35.5 178.5q0 248 -148.5 248t-148.5 -248z" />
<glyph unicode="&#xbb;" horiz-adv-x="1308" d="M63 90l316 455l-316 454q171 26 299 0l320 -454l-320 -455q-66 -12 -142.5 -12t-156.5 12zM608 90l316 455l-316 454q171 26 299 0l320 -454l-320 -455q-66 -12 -142.5 -12t-156.5 12z" />
<glyph unicode="&#xbc;" horiz-adv-x="2150" d="M135 1298l416 160h51v-641h174q11 -49 11 -95t-11 -97h-569q-16 43 -16 98.5t16 93.5h172v365l-156 -58q-53 56 -88 174zM495 4l990 1448q70 12 138 12t146 -12l-991 -1448q-72 -12 -139.5 -12t-143.5 12zM1282 188l323 668q105 -8 191 -66l-211 -461h131v146 q49 6 107.5 6t107.5 -6v-146h88q8 -39 8 -89t-8 -89h-88v-149q-121 -21 -215 0v149h-412z" />
<glyph unicode="&#xbd;" horiz-adv-x="2150" d="M123 1298l416 160h51v-641h174q11 -49 11 -95t-11 -97h-569q-16 43 -16 98.5t16 93.5h172v365l-156 -58q-53 56 -88 174zM462 4l990 1448q70 12 138 12t146 -12l-991 -1448q-72 -12 -139.5 -12t-143.5 12zM1358 41l272 299q123 135 123 217q0 39 -33 64.5t-107 25.5 t-169 -43q-47 113 -56 190q141 56 281 56t232.5 -71t92.5 -184.5t-50 -190.5t-134 -173l-33 -35h258q21 -100 0 -194h-661z" />
<glyph unicode="&#xbe;" horiz-adv-x="2150" d="M190 641q4 106 58 178q134 -39 200 -39t116 29t50 83t-43 75.5t-97 21.5t-91 -12l-39 43l156 244h-254q-11 69 -11 103t11 81h561l22 -43l-190 -275q87 -12 148 -80q57 -62 57 -142.5t-30 -135.5t-83 -93q-107 -77 -260.5 -77t-280.5 39zM499 4l990 1448q70 12 138 12 t146 -12l-991 -1448q-72 -12 -139.5 -12t-143.5 12zM1290 203l323 668q105 -8 191 -66l-211 -461h131v146q49 6 107.5 6t107.5 -6v-146h88q8 -39 8 -89t-8 -89h-88v-149q-121 -21 -215 0v149h-412z" />
<glyph unicode="&#xbf;" horiz-adv-x="1009" d="M117 4q0 169 125 284q53 48 108.5 76.5t89.5 45.5v186q70 12 138 12t129 -12v-352q-291 -50 -291 -232q0 -88 63.5 -134t167.5 -46q88 0 128 10q59 16 132 41q62 -114 70 -229q-171 -58 -243 -63t-122 -5q-246 0 -370.5 112t-124.5 306zM414 907q0 74 12 152 q76 12 149 12q74 0 152 -12q12 -78 12 -152t-12 -149q-78 -12 -151.5 -12t-149.5 12q-12 76 -12 149z" />
<glyph unicode="&#xc0;" horiz-adv-x="1302" d="M20 0l465 1473q86 12 148 12q92 0 186 -12l461 -1473q-84 -12 -163 -12t-152 12l-82 295h-488l-84 -295q-74 -12 -145.5 -12t-145.5 12zM209 1812q88 15 164 15q135 0 231 -15l201 -213q-74 -12 -129 -12q-111 0 -166 12zM465 543h348l-170 618z" />
<glyph unicode="&#xc1;" horiz-adv-x="1302" d="M20 0l465 1473q86 12 148 12q92 0 186 -12l461 -1473q-84 -12 -163 -12t-152 12l-82 295h-488l-84 -295q-74 -12 -145.5 -12t-145.5 12zM465 543h348l-170 618zM467 1599l201 213q113 15 187 15q133 0 208 -15l-301 -213q-56 -12 -138.5 -12t-156.5 12z" />
<glyph unicode="&#xc2;" horiz-adv-x="1302" d="M20 0l465 1473q86 12 148 12q92 0 186 -12l461 -1473q-84 -12 -163 -12t-152 12l-82 295h-488l-84 -295q-74 -12 -145.5 -12t-145.5 12zM254 1599l217 213q101 13 167 13q103 0 189 -13l217 -213q-58 -12 -120 -12q-131 0 -181 12l-96 103l-92 -103q-36 -12 -118 -12 q-127 0 -183 12zM465 543h348l-170 618z" />
<glyph unicode="&#xc3;" horiz-adv-x="1302" d="M20 0l465 1473q86 12 148 12q92 0 186 -12l461 -1473q-84 -12 -163 -12t-152 12l-82 295h-488l-84 -295q-74 -12 -145.5 -12t-145.5 12zM260 1767q35 45 95.5 80t118.5 35t96 -13.5t75 -28.5q104 -42 147.5 -42t75 13.5t76.5 56.5q68 -72 92 -156q-35 -45 -94.5 -77.5 t-116.5 -32.5t-98 13t-80 29q-107 42 -150 42t-72.5 -14.5t-74.5 -55.5q-76 91 -90 151zM465 543h348l-170 618z" />
<glyph unicode="&#xc4;" horiz-adv-x="1302" d="M20 0l465 1473q86 12 148 12q92 0 186 -12l461 -1473q-84 -12 -163 -12t-152 12l-82 295h-488l-84 -295q-74 -12 -145.5 -12t-145.5 12zM280 1734q0 39 11 124q62 12 131 12q67 0 133 -12q10 -52 10 -101q0 -89 -10 -141q-55 -10 -133.5 -10t-130.5 10q-11 85 -11 118z M465 543h348l-170 618zM731 1737q0 59 12 121q62 12 131 12t133 -12q9 -70 9 -110q0 -62 -9 -132q-55 -10 -133 -10q-79 0 -131 10q-12 61 -12 121z" />
<glyph unicode="&#xc5;" horiz-adv-x="1302" d="M20 0l469 1470q-96 74 -96 193t74 186.5t184 67.5q111 0 184.5 -67.5t73.5 -185.5t-94 -194l465 -1470q-84 -12 -163 -12t-152 12l-82 295h-488l-84 -295q-74 -12 -145.5 -12t-145.5 12zM465 543h348l-170 643zM553 1666q0 -60 25.5 -93t72.5 -33q98 0 99 125 q0 61 -26 94t-73 33t-72.5 -33t-25.5 -93z" />
<glyph unicode="&#xc6;" horiz-adv-x="1959" d="M20 0l830 1473h1001q26 -132 0 -254h-536v-320h426q12 -66 12 -129.5t-12 -126.5h-426v-389h551q12 -61 12 -127t-12 -127h-850v303h-510l-160 -303q-74 -12 -163 -12t-163 12zM637 551h379v692h-12z" />
<glyph unicode="&#xc7;" horiz-adv-x="1265" d="M106 733q0 336 184 547q189 217 515 217q98 0 181 -12t179 -51q-5 -82 -69 -238q-130 45 -258 45q-197 0 -302.5 -128t-105.5 -380q0 -500 424 -500q130 0 262 46q53 -112 70 -240q-174 -64 -375 -64l-25 2l-30 -73q20 4 61 4t84 -15.5t71 -42.5q56 -51 56 -144 t-84 -147.5t-239 -54.5q-96 0 -183 23q11 101 45 149q68 -22 135 -22q127 0 127 63q0 55 -112 56q-64 0 -131 -23l-23 29l80 213q-260 49 -401 252q-136 193 -136 489z" />
<glyph unicode="&#xc8;" horiz-adv-x="1087" d="M143 0v1473h836q12 -61 12 -127t-12 -127h-537v-320h426q25 -136 0 -256h-426v-389h551q26 -132 0 -254h-850zM201 1812q88 15 164 15q135 0 231 -15l201 -213q-74 -12 -129 -12q-111 0 -166 12z" />
<glyph unicode="&#xc9;" horiz-adv-x="1087" d="M143 0v1473h836q12 -61 12 -127t-12 -127h-537v-320h426q25 -136 0 -256h-426v-389h551q26 -132 0 -254h-850zM328 1599l201 213q113 15 187 15q133 0 208 -15l-301 -213q-56 -12 -138.5 -12t-156.5 12z" />
<glyph unicode="&#xca;" horiz-adv-x="1087" d="M143 0v1473h836q12 -61 12 -127t-12 -127h-537v-320h426q25 -136 0 -256h-426v-389h551q26 -132 0 -254h-850zM148 1599l217 213q101 13 167 13q103 0 189 -13l217 -213q-58 -12 -120 -12q-131 0 -181 12l-96 103l-92 -103q-36 -12 -118 -12q-127 0 -183 12z" />
<glyph unicode="&#xcb;" horiz-adv-x="1087" d="M143 0v1473h836q12 -61 12 -127t-12 -127h-537v-320h426q25 -136 0 -256h-426v-389h551q26 -132 0 -254h-850zM186 1734q0 39 11 124q62 12 131 12q67 0 133 -12q10 -52 10 -101q0 -89 -10 -141q-55 -10 -133.5 -10t-130.5 10q-11 85 -11 118zM637 1737q0 59 12 121 q62 12 131 12t133 -12q9 -70 9 -110q0 -62 -9 -132q-55 -10 -133 -10q-79 0 -131 10q-12 61 -12 121z" />
<glyph unicode="&#xcc;" horiz-adv-x="587" d="M-104 1812q88 15 164 15q135 0 231 -15l201 -213q-74 -12 -129 -12q-111 0 -166 12zM143 0v1473q76 12 150 12t151 -12v-1473q-78 -12 -151.5 -12t-149.5 12z" />
<glyph unicode="&#xcd;" horiz-adv-x="587" d="M127 1599l201 213q113 15 187 15q133 0 208 -15l-301 -213q-56 -12 -138.5 -12t-156.5 12zM143 0v1473q76 12 150 12t151 -12v-1473q-78 -12 -151.5 -12t-149.5 12z" />
<glyph unicode="&#xce;" horiz-adv-x="587" d="M-100 1599l217 213q101 13 167 13q103 0 189 -13l217 -213q-58 -12 -120 -12q-131 0 -181 12l-96 103l-92 -103q-36 -12 -118 -12q-127 0 -183 12zM143 0v1473q76 12 150 12t151 -12v-1473q-78 -12 -151.5 -12t-149.5 12z" />
<glyph unicode="&#xcf;" horiz-adv-x="587" d="M-74 1734q0 39 11 124q62 12 131 12q67 0 133 -12q10 -52 10 -101q0 -89 -10 -141q-55 -10 -133.5 -10t-130.5 10q-11 85 -11 118zM143 0v1473q76 12 150 12t151 -12v-1473q-78 -12 -151.5 -12t-149.5 12zM377 1737q0 59 12 121q62 12 131 12t133 -12q9 -70 9 -110 q0 -62 -9 -132q-55 -10 -133 -10q-79 0 -131 10q-12 61 -12 121z" />
<glyph unicode="&#xd0;" horiz-adv-x="1435" d="M0 770q0 51 12 104h140v599q206 24 389 24q387 0 588.5 -192.5t201.5 -578.5t-204.5 -568.5t-608.5 -182.5q-151 0 -366 25v668h-140q-12 51 -12 102zM453 238q63 -7 136.5 -7t154.5 21.5t140 79.5q130 125 130 401t-130 401q-108 105 -300 105q-89 0 -131 -6v-359h284 q25 -109 0 -206h-284v-430z" />
<glyph unicode="&#xd1;" horiz-adv-x="1370" d="M143 0v1473q63 12 122.5 12t125.5 -12l570 -938v938q74 12 139 12t125 -12v-1473q-66 -12 -121 -12t-123 12l-573 936v-936q-66 -12 -134 -12t-131 12zM316 1767q35 45 95.5 80t118.5 35t96 -13.5t75 -28.5q104 -42 147.5 -42t75 13.5t76.5 56.5q68 -72 92 -156 q-35 -45 -94.5 -77.5t-116.5 -32.5t-98 13t-80 29q-107 42 -150 42t-72.5 -14.5t-74.5 -55.5q-76 91 -90 151z" />
<glyph unicode="&#xd2;" horiz-adv-x="1486" d="M104 733q0 346 154 547q166 217 485 217q320 0 486 -217q153 -200 153 -547q0 -342 -153 -541q-166 -217 -486 -217q-319 0 -485 217q-154 200 -154 541zM299 1812q88 15 164 15q135 0 231 -15l201 -213q-74 -12 -129 -12q-111 0 -166 12zM424 733q0 -508 318 -508 t319 508q0 254 -77 381t-239 127q-322 0 -321 -508z" />
<glyph unicode="&#xd3;" horiz-adv-x="1486" d="M104 733q0 346 154 547q166 217 485 217q320 0 486 -217q153 -200 153 -547q0 -342 -153 -541q-166 -217 -486 -217q-319 0 -485 217q-154 200 -154 541zM424 733q0 -508 318 -508t319 508q0 254 -77 381t-239 127q-322 0 -321 -508zM582 1599l201 213q113 15 187 15 q133 0 208 -15l-301 -213q-56 -12 -138.5 -12t-156.5 12z" />
<glyph unicode="&#xd4;" horiz-adv-x="1486" d="M104 733q0 346 154 547q166 217 485 217q320 0 486 -217q153 -200 153 -547q0 -342 -153 -541q-166 -217 -486 -217q-319 0 -485 217q-154 200 -154 541zM346 1599l217 213q101 13 167 13q103 0 189 -13l217 -213q-58 -12 -120 -12q-131 0 -181 12l-96 103l-92 -103 q-36 -12 -118 -12q-127 0 -183 12zM424 733q0 -508 318 -508t319 508q0 254 -77 381t-239 127q-322 0 -321 -508z" />
<glyph unicode="&#xd5;" horiz-adv-x="1486" d="M104 733q0 346 154 547q166 217 485 217q320 0 486 -217q153 -200 153 -547q0 -342 -153 -541q-166 -217 -486 -217q-319 0 -485 217q-154 200 -154 541zM379 1767q35 45 95.5 80t118.5 35t96 -13.5t75 -28.5q104 -42 147.5 -42t75 13.5t76.5 56.5q68 -72 92 -156 q-35 -45 -94.5 -77.5t-116.5 -32.5t-98 13t-80 29q-107 42 -150 42t-72.5 -14.5t-74.5 -55.5q-76 91 -90 151zM424 733q0 -508 318 -508t319 508q0 254 -77 381t-239 127q-322 0 -321 -508z" />
<glyph unicode="&#xd6;" horiz-adv-x="1486" d="M104 733q0 346 154 547q166 217 485 217q320 0 486 -217q153 -200 153 -547q0 -342 -153 -541q-166 -217 -486 -217q-319 0 -485 217q-154 200 -154 541zM374 1734q0 39 11 124q62 12 131 12q67 0 133 -12q10 -52 10 -101q0 -89 -10 -141q-55 -10 -133.5 -10t-130.5 10 q-11 85 -11 118zM424 733q0 -508 318 -508t319 508q0 254 -77 381t-239 127q-322 0 -321 -508zM825 1737q0 59 12 121q62 12 131 12t133 -12q9 -70 9 -110q0 -62 -9 -132q-55 -10 -133 -10q-79 0 -131 10q-12 61 -12 121z" />
<glyph unicode="&#xd7;" d="M211 481l229 228l-227 227q68 104 176 176l227 -227l226 225q82 -56 119.5 -101.5t56.5 -72.5l-227 -227l227 -228q-37 -63 -124 -137q-24 -20 -50 -37l-228 228l-229 -230q-95 59 -176 176z" />
<glyph unicode="&#xd8;" horiz-adv-x="1486" d="M104 733q0 346 154 547q166 217 485 217q229 0 375 -111l62 84q79 26 182 3l-137 -189q157 -200 157 -551q0 -342 -153 -541q-166 -217 -486 -217q-235 0 -389 119l-65 -92q-80 -24 -180 -2l143 197q-148 199 -148 536zM424 733q0 -172 29 -262l497 686q-74 84 -205 84 q-322 0 -321 -508zM522 324q80 -98 221 -99q317 0 318 508q0 164 -35 281z" />
<glyph unicode="&#xd9;" horiz-adv-x="1374" d="M135 645v828q65 10 149.5 10t149.5 -10v-764q0 -263 46 -361q54 -115 208 -115q151 0 206 115q46 96 46 361v764q68 10 152 10t149 -10v-828q0 -329 -113 -485q-133 -185 -440 -185q-450 0 -528 397q-25 124 -25 273zM274 1812q88 15 164 15q135 0 231 -15l201 -213 q-74 -12 -129 -12q-111 0 -166 12z" />
<glyph unicode="&#xda;" horiz-adv-x="1374" d="M135 645v828q65 10 149.5 10t149.5 -10v-764q0 -263 46 -361q54 -115 208 -115q151 0 206 115q46 96 46 361v764q68 10 152 10t149 -10v-828q0 -329 -113 -485q-133 -185 -440 -185q-450 0 -528 397q-25 124 -25 273zM520 1599l201 213q113 15 187 15q133 0 208 -15 l-301 -213q-56 -12 -138.5 -12t-156.5 12z" />
<glyph unicode="&#xdb;" horiz-adv-x="1374" d="M135 645v828q65 10 149.5 10t149.5 -10v-764q0 -263 46 -361q54 -115 208 -115q151 0 206 115q46 96 46 361v764q68 10 152 10t149 -10v-828q0 -329 -113 -485q-133 -185 -440 -185q-450 0 -528 397q-25 124 -25 273zM293 1599l217 213q101 13 167 13q103 0 189 -13 l217 -213q-58 -12 -120 -12q-131 0 -181 12l-96 103l-92 -103q-36 -12 -118 -12q-127 0 -183 12z" />
<glyph unicode="&#xdc;" horiz-adv-x="1374" d="M135 645v828q65 10 149.5 10t149.5 -10v-764q0 -263 46 -361q54 -115 208 -115q151 0 206 115q46 96 46 361v764q68 10 152 10t149 -10v-828q0 -329 -113 -485q-133 -185 -440 -185q-450 0 -528 397q-25 124 -25 273zM321 1734q0 39 11 124q62 12 131 12q67 0 133 -12 q10 -52 10 -101q0 -89 -10 -141q-55 -10 -133.5 -10t-130.5 10q-11 85 -11 118zM772 1737q0 59 12 121q62 12 131 12t133 -12q9 -70 9 -110q0 -62 -9 -132q-55 -10 -133 -10q-79 0 -131 10q-12 61 -12 121z" />
<glyph unicode="&#xdd;" horiz-adv-x="1259" d="M20 1473q86 12 168.5 12t159.5 -12l291 -668l287 668q76 12 152.5 12t160.5 -12l-459 -947v-528q-154 -23 -301 0v528zM457 1599l201 213q113 15 187 15q133 0 208 -15l-301 -213q-56 -12 -138.5 -12t-156.5 12z" />
<glyph unicode="&#xde;" horiz-adv-x="1206" d="M143 0v1473q65 10 148 10t151 -10v-224q23 2 44 2h42q251 0 399 -96q191 -124 191 -416q0 -291 -191 -415q-148 -97 -399 -97h-86v-227q-153 -22 -299 0zM442 481q55 -6 102.5 -6t96.5 12.5t87 42.5q83 67 83 209q0 143 -83 209q-69 56 -179 56q-42 0 -107 -7v-516z" />
<glyph unicode="&#xdf;" horiz-adv-x="1236" d="M135 0v983q0 254 112.5 396.5t362.5 142.5q223 0 337 -121q93 -99 93 -248q0 -128 -91 -248q-34 -45 -62.5 -84t-28.5 -82t23.5 -67.5t58.5 -46t76 -45t76 -60.5q82 -88 82 -231q0 -203 -202 -284q-75 -30 -201.5 -30t-242.5 45q8 110 60 222q77 -41 153 -41 q144 0 144 116q0 62 -82 113q-35 21 -75 42.5t-75 53.5q-82 73 -82 187q0 72 27 119t59.5 90t59 93t26.5 126q0 147 -149 147q-90 0 -132 -71.5t-42 -233.5v-983q-74 -12 -142.5 -12t-142.5 12z" />
<glyph unicode="&#xe0;" horiz-adv-x="1069" d="M78 332q0 180 150 271q125 75 313 75q59 0 131 -6v24q0 133 -132 152q-42 6 -123.5 6t-205.5 -43q-57 104 -57 213q171 59 366 59t314.5 -102t119.5 -328v-614q-200 -64 -405 -64q-343 0 -437 191q-34 67 -34 166zM143 1473q82 12 176 12t178 -12l230 -252 q-115 -20 -181.5 -12t-93.5 12zM350 344q0 -128 144 -140q36 -3 67 -3t111 14v270q-69 11 -105 11q-217 0 -217 -152z" />
<glyph unicode="&#xe1;" horiz-adv-x="1069" d="M78 332q0 180 150 271q125 75 313 75q59 0 131 -6v24q0 133 -132 152q-42 6 -123.5 6t-205.5 -43q-57 104 -57 213q171 59 366 59t314.5 -102t119.5 -328v-614q-200 -64 -405 -64q-343 0 -437 191q-34 67 -34 166zM291 1221l230 252q82 12 159 12q113 0 195 -12 l-309 -252q-88 -13 -148 -13t-127 13zM350 344q0 -128 144 -140q36 -3 67 -3t111 14v270q-69 11 -105 11q-217 0 -217 -152z" />
<glyph unicode="&#xe2;" horiz-adv-x="1069" d="M78 332q0 180 150 271q125 75 313 75q59 0 131 -6v24q0 133 -132 152q-42 6 -123.5 6t-205.5 -43q-57 104 -57 213q171 59 366 59t314.5 -102t119.5 -328v-614q-200 -64 -405 -64q-343 0 -437 191q-34 67 -34 166zM150 1219l200 254q88 10 143 10q122 0 181 -13l198 -251 q-75 -19 -159 -13t-119 15l-84 131l-82 -131q-51 -15 -136 -15t-142 13zM350 344q0 -128 144 -140q36 -3 67 -3t111 14v270q-69 11 -105 11q-217 0 -217 -152z" />
<glyph unicode="&#xe3;" horiz-adv-x="1069" d="M78 332q0 180 150 271q125 75 313 75q59 0 131 -6v24q0 133 -132 152q-42 6 -123.5 6t-205.5 -43q-57 104 -57 213q171 59 366 59t314.5 -102t119.5 -328v-614q-200 -64 -405 -64q-343 0 -437 191q-34 67 -34 166zM161 1386q85 109 224 109q53 0 116.5 -24.5t100 -36 t73.5 -11.5t68 10.5t74 53.5q63 -67 88 -164q-81 -104 -226 -104q-53 0 -119 25q-124 46 -168 46t-73 -11t-72 -52q-74 94 -86 159zM350 344q0 -128 144 -140q36 -3 67 -3t111 14v270q-69 11 -105 11q-217 0 -217 -152z" />
<glyph unicode="&#xe4;" horiz-adv-x="1069" d="M78 332q0 180 150 271q125 75 313 75q59 0 131 -6v24q0 133 -132 152q-42 6 -123.5 6t-205.5 -43q-57 104 -57 213q171 59 366 59t314.5 -102t119.5 -328v-614q-200 -64 -405 -64q-343 0 -437 191q-34 67 -34 166zM180 1332q0 39 11 124q62 12 131 12q67 0 133 -12 q10 -52 10 -101q0 -89 -10 -141q-55 -10 -133.5 -10t-130.5 10q-11 85 -11 118zM350 344q0 -128 144 -140q36 -3 67 -3t111 14v270q-69 11 -105 11q-217 0 -217 -152zM631 1335q0 59 12 121q62 12 131 12t133 -12q9 -70 9 -110q0 -62 -9 -132q-55 -10 -133 -10 q-79 0 -131 10q-12 61 -12 121z" />
<glyph unicode="&#xe5;" horiz-adv-x="1069" d="M78 332q0 180 150 271q125 75 313 75q59 0 131 -6v24q0 133 -132 152q-42 6 -123.5 6t-205.5 -43q-57 104 -57 213q171 59 366 59t314.5 -102t119.5 -328v-614q-200 -64 -405 -64q-343 0 -437 191q-34 67 -34 166zM309 1423q0 111 69 172.5t171 61.5t171 -61.5t69 -172.5 t-69 -172t-171 -61t-171 61t-69 172zM350 344q0 -128 144 -140q36 -3 67 -3t111 14v270q-69 11 -105 11q-217 0 -217 -152zM453 1423q0 -53 27.5 -82.5t68.5 -29.5t68.5 29.5t27.5 82.5t-27.5 83t-68.5 30t-68.5 -29.5t-27.5 -83.5z" />
<glyph unicode="&#xe6;" horiz-adv-x="1691" d="M78 332q0 180 150 268q123 72 313 72q63 0 135 -6v30q0 133 -136 152q-42 6 -94 6q-117 0 -235 -43q-57 104 -57 213q171 59 365.5 59t316.5 -120q133 120 325 120q214 0 333 -145q112 -136 112 -360q0 -73 -11 -136h-661q0 -121 83 -178t209 -57t261 51q53 -95 57 -221 q-160 -62 -356.5 -62t-331.5 88q-150 -88 -356 -88q-298 0 -390 191q-32 67 -32 166zM350 344q0 -92 73 -124q44 -19 112 -19q103 0 180 37q-34 73 -43 200l-2 33q-62 10 -132.5 10t-129 -28.5t-58.5 -108.5zM936 643h395q-4 98 -46 158.5t-136 60.5t-148.5 -57t-64.5 -162z " />
<glyph unicode="&#xe7;" horiz-adv-x="972" d="M84 528q0 244 128 394q137 161 384 161q134 0 197 -18t106 -35q0 -113 -51 -217q-107 35 -223.5 35t-181 -83t-64.5 -243t69.5 -235.5t188.5 -75.5q101 0 141.5 13.5t75.5 25.5q57 -93 57 -223q-138 -52 -299 -52l-32 -84q15 5 32 5q109 0 169.5 -50.5t60.5 -128.5 q0 -104 -88 -157.5t-230 -53.5q-96 0 -164 19q13 107 37 143q67 -18 127 -18q127 0 127 63q0 62 -119 62q-76 0 -124 -19l-15 15l80 217q-191 39 -293 187q-96 139 -96 353z" />
<glyph unicode="&#xe8;" horiz-adv-x="1150" d="M88 522q0 245 130 398q140 163 382 163q214 0 344 -145q60 -68 90.5 -161t30.5 -186t-10 -151h-680q15 -233 291 -233q147 0 280 51q52 -93 58 -221q-160 -61 -334 -61.5t-279.5 40.5t-172.5 114q-130 143 -130 392zM211 1473q82 12 176 12t178 -12l230 -252 q-115 -20 -181.5 -12t-93.5 12zM377 643h414q-4 98 -54.5 158.5t-146.5 60.5q-192 0 -213 -219z" />
<glyph unicode="&#xe9;" horiz-adv-x="1150" d="M88 522q0 245 130 398q140 163 382 163q214 0 344 -145q60 -68 90.5 -161t30.5 -186t-10 -151h-680q15 -233 291 -233q147 0 280 51q52 -93 58 -221q-160 -61 -334 -61.5t-279.5 40.5t-172.5 114q-130 143 -130 392zM377 643h414q-4 98 -54.5 158.5t-146.5 60.5 q-192 0 -213 -219zM391 1221l230 252q82 12 159 12q113 0 195 -12l-309 -252q-88 -13 -148 -13t-127 13z" />
<glyph unicode="&#xea;" horiz-adv-x="1150" d="M88 522q0 245 130 398q140 163 382 163q214 0 344 -145q60 -68 90.5 -161t30.5 -186t-10 -151h-680q15 -233 291 -233q147 0 280 51q52 -93 58 -221q-160 -61 -334 -61.5t-279.5 40.5t-172.5 114q-130 143 -130 392zM232 1219l200 254q88 10 143 10q122 0 181 -13 l198 -251q-75 -19 -159 -13t-119 15l-84 131l-82 -131q-51 -15 -136 -15t-142 13zM377 643h414q-4 98 -54.5 158.5t-146.5 60.5q-192 0 -213 -219z" />
<glyph unicode="&#xeb;" horiz-adv-x="1150" d="M88 522q0 245 130 398q140 163 382 163q214 0 344 -145q60 -68 90.5 -161t30.5 -186t-10 -151h-680q15 -233 291 -233q147 0 280 51q52 -93 58 -221q-160 -61 -334 -61.5t-279.5 40.5t-172.5 114q-130 143 -130 392zM209 1332q0 39 11 124q62 12 131 12q67 0 133 -12 q10 -52 10 -101q0 -89 -10 -141q-55 -10 -133.5 -10t-130.5 10q-11 85 -11 118zM377 643h414q-4 98 -54.5 158.5t-146.5 60.5q-192 0 -213 -219zM660 1335q0 59 12 121q62 12 131 12t133 -12q9 -70 9 -110q0 -62 -9 -132q-55 -10 -133 -10q-79 0 -131 10q-12 61 -12 121z " />
<glyph unicode="&#xec;" horiz-adv-x="628" d="M-105 1473q82 12 176 12t178 -12l230 -252q-115 -20 -181.5 -12t-93.5 12zM51 948.5q0 56.5 12 110.5h422v-1059q-74 -12 -142.5 -12t-141.5 12v838h-138q-12 54 -12 110.5z" />
<glyph unicode="&#xed;" horiz-adv-x="628" d="M51 948.5q0 56.5 12 110.5h422v-1059q-74 -12 -142.5 -12t-141.5 12v838h-138q-12 54 -12 110.5zM94 1221l230 252q82 12 159 12q113 0 195 -12l-309 -252q-88 -13 -148 -13t-127 13z" />
<glyph unicode="&#xee;" horiz-adv-x="628" d="M-49 1219l200 254q88 10 143 10q122 0 181 -13l198 -251q-75 -19 -159 -13t-119 15l-84 131l-82 -131q-51 -15 -136 -15t-142 13zM51 948.5q0 56.5 12 110.5h422v-1059q-74 -12 -142.5 -12t-141.5 12v838h-138q-12 54 -12 110.5z" />
<glyph unicode="&#xef;" horiz-adv-x="628" d="M-54 1332q0 39 11 124q62 12 131 12q67 0 133 -12q10 -52 10 -101q0 -89 -10 -141q-55 -10 -133.5 -10t-130.5 10q-11 85 -11 118zM51 948.5q0 56.5 12 110.5h422v-1059q-74 -12 -142.5 -12t-141.5 12v838h-138q-12 54 -12 110.5zM397 1335q0 59 12 121q62 12 131 12 t133 -12q9 -70 9 -110q0 -62 -9 -132q-55 -10 -133 -10q-79 0 -131 10q-12 61 -12 121z" />
<glyph unicode="&#xf0;" horiz-adv-x="1171" d="M84 483q0 227 118 366q125 148 339 148q121 0 196 -57q-51 136 -151 213l-185 -123q-64 54 -86 133l113 74q-70 23 -158 27q-18 57 -18 110.5t24 130.5q218 0 396 -104l164 110q54 -40 92 -131l-121 -80q135 -131 210 -330q70 -186 70 -409q0 -420 -281 -544 q-95 -42 -222 -42q-243 0 -376 147q-124 135 -124 361zM379 483q0 -147 47 -225t158 -78t159 78t48 225t-48.5 225t-158.5 78q-111 0 -158 -77.5t-47 -225.5z" />
<glyph unicode="&#xf1;" horiz-adv-x="1202" d="M143 0v1059q58 12 121 12q59 0 117 -12q17 -28 33 -148q111 172 298 172t278 -98t91 -309v-676q-74 -12 -145 -12q-72 0 -145 12v598q0 111 -34 170t-118 59q-205 0 -205 -272v-555q-74 -12 -145 -12q-72 0 -146 12zM235 1386q85 109 224 109q53 0 116.5 -24.5t100 -36 t73.5 -11.5t68 10.5t74 53.5q63 -67 88 -164q-81 -104 -226 -104q-53 0 -119 25q-124 46 -168 46t-73 -11t-72 -52q-74 94 -86 159z" />
<glyph unicode="&#xf2;" horiz-adv-x="1187" d="M84 526q0 247 126 396q134 161 382 161t384 -161q126 -147 126 -396q0 -244 -126 -392q-134 -159 -384 -159t-382 159q-126 151 -126 392zM176 1473q82 12 176 12t178 -12l230 -252q-115 -20 -181.5 -12t-93.5 12zM379 526q0 -160 50 -244.5t164 -84.5t164 85t50 244 q0 160 -50 245t-164 85t-164 -85t-50 -245z" />
<glyph unicode="&#xf3;" horiz-adv-x="1187" d="M84 526q0 247 126 396q134 161 382 161t384 -161q126 -147 126 -396q0 -244 -126 -392q-134 -159 -384 -159t-382 159q-126 151 -126 392zM379 526q0 -160 50 -244.5t164 -84.5t164 85t50 244q0 160 -50 245t-164 85t-164 -85t-50 -245zM383 1221l230 252q82 12 159 12 q113 0 195 -12l-309 -252q-88 -13 -148 -13t-127 13z" />
<glyph unicode="&#xf4;" horiz-adv-x="1187" d="M84 526q0 247 126 396q134 161 382 161t384 -161q126 -147 126 -396q0 -244 -126 -392q-134 -159 -384 -159t-382 159q-126 151 -126 392zM232 1219l200 254q88 10 143 10q122 0 181 -13l198 -251q-75 -19 -159 -13t-119 15l-84 131l-82 -131q-51 -15 -136 -15t-142 13z M379 526q0 -160 50 -244.5t164 -84.5t164 85t50 244q0 160 -50 245t-164 85t-164 -85t-50 -245z" />
<glyph unicode="&#xf5;" horiz-adv-x="1187" d="M84 526q0 247 126 396q134 161 382 161t384 -161q126 -147 126 -396q0 -244 -126 -392q-134 -159 -384 -159t-382 159q-126 151 -126 392zM221 1386q85 109 224 109q53 0 116.5 -24.5t100 -36t73.5 -11.5t68 10.5t74 53.5q63 -67 88 -164q-81 -104 -226 -104 q-53 0 -119 25q-124 46 -168 46t-73 -11t-72 -52q-74 94 -86 159zM379 526q0 -160 50 -244.5t164 -84.5t164 85t50 244q0 160 -50 245t-164 85t-164 -85t-50 -245z" />
<glyph unicode="&#xf6;" horiz-adv-x="1187" d="M84 526q0 247 126 396q134 161 382 161t384 -161q126 -147 126 -396q0 -244 -126 -392q-134 -159 -384 -159t-382 159q-126 151 -126 392zM223 1332q0 39 11 124q62 12 131 12q67 0 133 -12q10 -52 10 -101q0 -89 -10 -141q-55 -10 -133.5 -10t-130.5 10q-11 85 -11 118z M379 526q0 -160 50 -244.5t164 -84.5t164 85t50 244q0 160 -50 245t-164 85t-164 -85t-50 -245zM674 1335q0 59 12 121q62 12 131 12t133 -12q9 -70 9 -110q0 -62 -9 -132q-55 -10 -133 -10q-79 0 -131 10q-12 61 -12 121z" />
<glyph unicode="&#xf7;" d="M172 723.5q0 62.5 12 124.5h863q12 -61 12 -123.5t-12 -124.5h-863q-12 61 -12 123.5zM444 313q0 70 49.5 120t118.5 50q70 0 120 -50t50 -120t-50 -119t-120 -49t-119 49t-49 119zM444 1145q0 70 49.5 120t118.5 50q70 0 120 -50.5t50 -119.5q0 -70 -50 -119t-120 -49 t-119 49t-49 119z" />
<glyph unicode="&#xf8;" horiz-adv-x="1187" d="M84 526q0 247 126 396q134 161 382 161q178 0 305 -88l39 47q36 9 82.5 9t77.5 -7l-109 -137q115 -144 115 -381q0 -244 -126 -392q-134 -159 -384 -159q-166 0 -281 72l-35 -45q-36 -8 -69 -8q-69 0 -90 6l98 127q-131 147 -131 399zM379 526q0 -107 18 -170l342 437 q-53 63 -157 63q-203 0 -203 -330zM465 240q49 -43 127 -43q115 0 165 85t50 244q0 76 -12 136z" />
<glyph unicode="&#xf9;" horiz-adv-x="1171" d="M125 489v570q74 12 145 12q72 0 146 -12v-561q0 -164 54 -224q52 -59 146.5 -59t145.5 14v830q74 12 144.5 12t144.5 -12v-1018q-189 -66 -398 -66q-104 0 -200.5 16.5t-168.5 70.5q-159 116 -159 427zM215 1473q82 12 176 12t178 -12l230 -252q-115 -20 -181.5 -12 t-93.5 12z" />
<glyph unicode="&#xfa;" horiz-adv-x="1171" d="M125 489v570q74 12 145 12q72 0 146 -12v-561q0 -164 54 -224q52 -59 146.5 -59t145.5 14v830q74 12 144.5 12t144.5 -12v-1018q-189 -66 -398 -66q-104 0 -200.5 16.5t-168.5 70.5q-159 116 -159 427zM401 1221l230 252q82 12 159 12q113 0 195 -12l-309 -252 q-88 -13 -148 -13t-127 13z" />
<glyph unicode="&#xfb;" horiz-adv-x="1171" d="M125 489v570q74 12 145 12q72 0 146 -12v-561q0 -164 54 -224q52 -59 146.5 -59t145.5 14v830q74 12 144.5 12t144.5 -12v-1018q-189 -66 -398 -66q-104 0 -200.5 16.5t-168.5 70.5q-159 116 -159 427zM226 1219l200 254q88 10 143 10q122 0 181 -13l198 -251 q-75 -19 -159 -13t-119 15l-84 131l-82 -131q-51 -15 -136 -15t-142 13z" />
<glyph unicode="&#xfc;" horiz-adv-x="1171" d="M125 489v570q74 12 145 12q72 0 146 -12v-561q0 -164 54 -224q52 -59 146.5 -59t145.5 14v830q74 12 144.5 12t144.5 -12v-1018q-189 -66 -398 -66q-104 0 -200.5 16.5t-168.5 70.5q-159 116 -159 427zM233 1332q0 39 11 124q62 12 131 12q67 0 133 -12q10 -52 10 -101 q0 -89 -10 -141q-55 -10 -133.5 -10t-130.5 10q-11 85 -11 118zM684 1335q0 59 12 121q62 12 131 12t133 -12q9 -70 9 -110q0 -62 -9 -132q-55 -10 -133 -10q-79 0 -131 10q-12 61 -12 121z" />
<glyph unicode="&#xfd;" horiz-adv-x="1110" d="M20 1059q56 12 124 12q135 0 188 -12l221 -924l250 924q68 12 119 12q110 0 172 -12l-396 -1309q-48 -151 -135 -208q-78 -52 -211 -52q-101 0 -194 27q-2 10 -2 17v15q0 85 39 179q51 -17 93 -17t66.5 3t47.5 18q52 35 81 141l35 127q-46 -4 -88 -4h-62q-20 0 -36 4z M334 1221l230 252q82 12 159 12q113 0 195 -12l-309 -252q-88 -13 -148 -13t-127 13z" />
<glyph unicode="&#xfe;" horiz-adv-x="1210" d="M137 -485v1982q65 10 146 10q80 0 145 -10v-557q103 143 279 143q185 0 299 -131q120 -140 120 -405q0 -267 -151 -418q-154 -154 -422 -154q-62 0 -125 11v-471q-72 -11 -145 -11q-85 0 -146 11zM428 225q55 -16 127 -16q127 0 194.5 82t67.5 248q0 207 -107 272 q-38 23 -91.5 23t-89 -19.5t-57.5 -53.5q-44 -66 -44 -175v-361z" />
<glyph unicode="&#xff;" horiz-adv-x="1110" d="M20 1059q56 12 124 12q135 0 188 -12l221 -924l250 924q68 12 119 12q110 0 172 -12l-396 -1309q-48 -151 -135 -208q-78 -52 -211 -52q-101 0 -194 27q-2 10 -2 17v15q0 85 39 179q51 -17 93 -17t66.5 3t47.5 18q52 35 81 141l35 127q-46 -4 -88 -4h-62q-20 0 -36 4z M192 1332q0 39 11 124q62 12 131 12q67 0 133 -12q10 -52 10 -101q0 -89 -10 -141q-55 -10 -133.5 -10t-130.5 10q-11 85 -11 118zM643 1335q0 59 12 121q62 12 131 12t133 -12q9 -70 9 -110q0 -62 -9 -132q-55 -10 -133 -10q-79 0 -131 10q-12 61 -12 121z" />
<glyph unicode="&#x152;" horiz-adv-x="1914" d="M98 733q0 344 165 547q83 102 207 159.5t277.5 57.5t251.5 -24h807q26 -132 0 -254h-536v-320h426q12 -66 12 -129.5t-12 -126.5h-426v-389h551q12 -61 12 -127t-12 -127h-811q-112 -25 -264 -25t-276 57.5t-207 159.5q-165 201 -165 541zM418 732q0 -255 90 -381 t252 -126q132 0 211 31v958q-92 27 -209 27q-162 0 -253 -127t-91 -382z" />
<glyph unicode="&#x153;" horiz-adv-x="1828" d="M84 526q0 246 130 396q139 161 375 161t365 -172q121 172 344 172q206 0 328 -145q57 -68 87 -161t30 -186t-10 -151h-639q8 -123 75.5 -178t194.5 -55t260 51q53 -95 57 -221q-160 -62 -340 -62q-248 0 -387 172q-66 -86 -149.5 -129t-208.5 -43t-221 42t-161 117 q-130 152 -130 392zM379 526q0 -329 222 -329t222 329q0 330 -222 330t-222 -330zM1096 643h372q-4 98 -49 158.5t-128 60.5t-134 -57t-61 -162z" />
<glyph unicode="&#x178;" horiz-adv-x="1259" d="M20 1473q86 12 168.5 12t159.5 -12l291 -668l287 668q76 12 152.5 12t160.5 -12l-459 -947v-528q-154 -23 -301 0v528zM260 1734q0 39 11 124q62 12 131 12q67 0 133 -12q10 -52 10 -101q0 -89 -10 -141q-55 -10 -133.5 -10t-130.5 10q-11 85 -11 118zM711 1737 q0 59 12 121q62 12 131 12t133 -12q9 -70 9 -110q0 -62 -9 -132q-55 -10 -133 -10q-79 0 -131 10q-12 61 -12 121z" />
<glyph unicode="&#x2c6;" horiz-adv-x="1019" d="M150 1219l200 254q88 10 143 10q122 0 181 -13l198 -251q-75 -19 -159 -13t-119 15l-84 131l-82 -131q-51 -15 -136 -15t-142 13z" />
<glyph unicode="&#x2dc;" horiz-adv-x="1024" d="M141 1386q85 109 224 109q53 0 116.5 -24.5t100 -36t73.5 -11.5t68 10.5t74 53.5q63 -67 88 -164q-81 -104 -226 -104q-53 0 -119 25q-124 46 -168 46t-73 -11t-72 -52q-74 94 -86 159z" />
<glyph unicode="&#x2000;" horiz-adv-x="958" />
<glyph unicode="&#x2001;" horiz-adv-x="1917" />
<glyph unicode="&#x2002;" horiz-adv-x="958" />
<glyph unicode="&#x2003;" horiz-adv-x="1917" />
<glyph unicode="&#x2004;" horiz-adv-x="639" />
<glyph unicode="&#x2005;" horiz-adv-x="479" />
<glyph unicode="&#x2006;" horiz-adv-x="319" />
<glyph unicode="&#x2007;" horiz-adv-x="319" />
<glyph unicode="&#x2008;" horiz-adv-x="239" />
<glyph unicode="&#x2009;" horiz-adv-x="383" />
<glyph unicode="&#x200a;" horiz-adv-x="106" />
<glyph unicode="&#x2010;" horiz-adv-x="759" d="M119 436q-26 131 0 252h522q12 -61 12 -126t-12 -126h-522z" />
<glyph unicode="&#x2011;" horiz-adv-x="759" d="M119 436q-26 131 0 252h522q12 -61 12 -126t-12 -126h-522z" />
<glyph unicode="&#x2012;" horiz-adv-x="759" d="M119 436q-26 131 0 252h522q12 -61 12 -126t-12 -126h-522z" />
<glyph unicode="&#x2013;" horiz-adv-x="1024" d="M-12 561q0 61 12 127h1024q12 -66 12 -127t-12 -125h-1024q-12 63 -12 125z" />
<glyph unicode="&#x2014;" horiz-adv-x="2048" d="M-12 561q0 61 12 127h2048q12 -66 12 -127t-12 -125h-2048q-12 63 -12 125z" />
<glyph unicode="&#x2018;" horiz-adv-x="622" d="M102 1470q66 15 146 15q79 0 137 -15l135 -524q-52 -12 -131 -12q-84 0 -137 12z" />
<glyph unicode="&#x2019;" horiz-adv-x="622" d="M102 946l136 524q66 15 137 15q87 0 145 -15l-149 -524q-53 -12 -138 -12q-79 0 -131 12z" />
<glyph unicode="&#x201a;" horiz-adv-x="622" d="M102 -229l136 524q61 14 137 14q84 0 145 -14l-149 -524q-57 -13 -138 -13q-80 0 -131 13z" />
<glyph unicode="&#x201c;" horiz-adv-x="1056" d="M102 1470q66 15 146 15q79 0 137 -15l135 -524q-52 -12 -131 -12q-84 0 -137 12zM536 1470q66 15 146 15q79 0 137 -15l135 -524q-52 -12 -131 -12q-84 0 -137 12z" />
<glyph unicode="&#x201d;" horiz-adv-x="1056" d="M102 946l136 524q66 15 137 15q87 0 145 -15l-149 -524q-53 -12 -138 -12q-79 0 -131 12zM536 946l136 524q66 15 137 15q87 0 145 -15l-149 -524q-53 -12 -138 -12q-79 0 -131 12z" />
<glyph unicode="&#x201e;" horiz-adv-x="1056" d="M102 -229l136 524q61 14 137 14q84 0 145 -14l-149 -524q-57 -13 -138 -13q-80 0 -131 13zM536 -229l136 524q61 14 137 14q84 0 145 -14l-149 -524q-57 -13 -138 -13q-80 0 -131 13z" />
<glyph unicode="&#x2022;" horiz-adv-x="921" d="M154 752q0 124 90 216q89 91 217 91q125 0 216 -91t91 -216q0 -130 -91 -218q-94 -90 -216 -90q-125 0 -217 90q-90 89 -90 218z" />
<glyph unicode="&#x2026;" horiz-adv-x="1697" d="M133 150q0 74 12 151q76 12 150 12t151 -12q24 -158 0 -301q-78 -12 -151.5 -12t-149.5 12q-12 76 -12 150zM686 150q0 74 12 151q76 12 150 12t151 -12q24 -158 0 -301q-78 -12 -151.5 -12t-149.5 12q-12 76 -12 150zM1239 150q0 74 12 151q76 12 150 12t151 -12 q24 -158 0 -301q-78 -12 -151.5 -12t-149.5 12q-12 76 -12 150z" />
<glyph unicode="&#x202f;" horiz-adv-x="383" />
<glyph unicode="&#x2039;" horiz-adv-x="763" d="M82 545l319 454q139 26 299 0l-315 -454l315 -455q-80 -12 -157.5 -12t-141.5 12z" />
<glyph unicode="&#x203a;" horiz-adv-x="763" d="M63 90l316 455l-316 454q171 26 299 0l320 -454l-320 -455q-66 -12 -142.5 -12t-156.5 12z" />
<glyph unicode="&#x205f;" horiz-adv-x="479" />
<glyph unicode="&#x20ac;" d="M57 541q0 53 11 88h161q-2 20 -2 41v84q0 20 2 41h-161q-10 31 -11 84q0 53 11 88h182q54 244 194 367q158 139 410 139q202 0 360 -64q-4 -61 -24.5 -119.5t-44.5 -118.5q-132 46 -264.5 46t-205.5 -62.5t-102 -187.5h424q9 -31 9 -83.5t-9 -88.5h-446v-125q0 -21 2 -41 h444q9 -31 9 -83.5t-9 -88.5h-422q31 -117 106 -170.5t214 -53.5t270 46q53 -112 70 -240q-174 -64 -343 -64t-272.5 34t-177.5 97q-145 123 -190 351h-184q-10 31 -11 84z" />
<glyph unicode="&#x2122;" horiz-adv-x="1638" d="M25 1347.5q0 53.5 8 100.5h602q8 -50 8 -98q0 -51 -8 -97h-195v-622q-72 -15 -116.5 -15t-94.5 15v622h-196q-8 41 -8 94.5zM717 631l45 815q88 10 111.5 10t48 -3t59.5 -7l156 -389l151 389q72 10 99 10q35 0 112 -10l45 -815q-72 -13 -99 -13q-69 0 -112 13l-26 416 l-115 -269q-27 -6 -60 -6q-53 0 -96 6l-94 260l-20 -407q-40 -13 -84.5 -13t-120.5 13z" />
<glyph unicode="&#xe000;" horiz-adv-x="1075" d="M0 0v1075h1075v-1075h-1075z" />
</font>
</defs>
</svg>
