<?xml version="1.0" standalone="no"?>
<!DOCTYPE svg PUBLIC "-//W3C//DTD SVG 1.1//EN" "http://www.w3.org/Graphics/SVG/1.1/DTD/svg11.dtd" >
<svg xmlns="http://www.w3.org/2000/svg">
<metadata></metadata>
<defs>
<font id="AllerRegular" horiz-adv-x="1228" >
<font-face units-per-em="2048" ascent="1638" descent="-410" />
<missing-glyph horiz-adv-x="485" />
<glyph unicode="&#xfb01;" horiz-adv-x="1234" d="M55 970q0 46 8 81h173v73q0 195 115.5 296.5t318.5 101.5q152 0 299 -49q0 -83 -49 -166q-110 45 -234 45q-118 0 -176 -44q-72 -56 -72 -190v-67h633v-1051q-46 -8 -100 -8q-55 0 -101 8v891h-432v-891q-46 -8 -100 -8q-58 0 -102 8v891h-173q-8 33 -8 79z" />
<glyph unicode="&#xfb02;" horiz-adv-x="1296" d="M55 969q0 41 6 82h175v73q0 195 118.5 296.5t347.5 101.5q139 0 345 -37v-1108q0 -207 71 -222q25 -5 65 -5t72 8q21 -61 21 -156q-50 -16 -132 -16t-135 15t-89 55q-74 81 -74 278v1005q-66 15 -138.5 15t-119.5 -10.5t-81 -35.5q-71 -54 -71 -190v-67h250q6 -43 6 -84 t-6 -78h-250v-889q-34 -6 -100 -6q-67 0 -100 6v889h-175q-6 39 -6 80z" />
<glyph unicode="&#xfb03;" horiz-adv-x="1873" d="M55 970q0 46 8 81h173v63q0 195 96 296t278 101q96 0 178 -24q-8 -70 -51 -164q-48 16 -99.5 16t-87.5 -9t-60 -34q-52 -54 -52 -188v-57h443v73q0 195 115.5 296.5t318.5 101.5q152 0 299 -49q0 -77 -47 -166q-113 45 -236 45q-118 0 -176 -44q-72 -56 -72 -190v-67h633 v-1051q-46 -8 -100 -8q-56 0 -100 8v891h-433v-891q-46 -8 -100 -8q-58 0 -102 8v891h-443v-891q-46 -8 -100 -8q-58 0 -102 8v891h-173q-8 33 -8 79z" />
<glyph unicode="&#xfb04;" horiz-adv-x="1941" d="M55 969q0 41 6 82h175v61q0 195 96 296t278 101q103 0 178 -22q-13 -86 -51 -164q-80 16 -115.5 16t-71.5 -10t-60 -37q-54 -57 -54 -186v-55h445v73q0 195 118.5 296.5t348.5 101.5q138 0 344 -37v-1108q0 -207 72 -222q24 -5 63.5 -5t73.5 8q20 -58 20 -156 q-46 -16 -129.5 -16t-136.5 15t-90 55q-74 80 -74 278v1005q-66 15 -138.5 15t-119.5 -10.5t-81 -35.5q-71 -54 -71 -190v-67h250q6 -43 6 -84t-6 -78h-250v-889q-35 -6 -100 -6q-67 0 -100 6v889h-445v-889q-34 -6 -100 -6q-67 0 -100 6v889h-175q-6 39 -6 80z" />
<glyph horiz-adv-x="0" />
<glyph horiz-adv-x="2048" />
<glyph unicode="&#xd;" horiz-adv-x="1024" />
<glyph unicode=" "  horiz-adv-x="485" />
<glyph unicode="&#x09;" horiz-adv-x="485" />
<glyph unicode="&#xa0;" horiz-adv-x="485" />
<glyph unicode="!" horiz-adv-x="593" d="M174 113q0 60 8 116q65 9 113 9q52 0 117 -9q8 -58 8 -114q0 -57 -8 -115q-58 -8 -115 -8t-115 8q-8 58 -8 113zM190 1473q54 8 108 8t112 -8l-13 -1031q-47 -8 -99 -8t-93 8z" />
<glyph unicode="&#x22;" horiz-adv-x="860" d="M131 911v562q46 8 98 8q51 0 97 -8v-562q-47 -6 -98.5 -6t-96.5 6zM532 911v562q46 8 98 8q51 0 97 -8v-562q-47 -6 -98.5 -6t-96.5 6z" />
<glyph unicode="#" horiz-adv-x="1505" d="M129 508.5q0 43.5 8 81.5h266l29 338h-254q-8 33 -8 79t8 80h266l29 326q38 6 78 6h61q21 0 43 -4l-26 -328h348l29 326q38 6 78 6h62q21 0 44 -4l-29 -328h240q6 -37 6 -78.5t-6 -80.5h-252l-29 -338h238q8 -32 8 -79t-8 -83h-252l-31 -369q-47 -6 -92 -6t-88 6l29 369 h-349l-28 -369q-49 -6 -94 -6t-95 6l31 369h-254q-6 37 -6 80.5zM588 590h348l29 338h-351z" />
<glyph unicode="$" d="M154 39q7 79 47 180q70 -23 143.5 -40t177.5 -17q168 0 250 65.5t82 180.5q0 106 -70 164q-34 28 -87.5 51.5t-125.5 54.5l-98 41q-137 56 -202 128q-78 86 -78 240t95 254.5t273 124.5v199q31 8 71 8t73 -8v-190q188 -9 311 -56q-10 -86 -45 -170q-140 51 -293 51 q-268 0 -268 -200q0 -94 72 -148q44 -34 200 -100l78 -33q168 -70 234 -141q89 -95 89 -262.5t-99 -277t-279 -144.5v-236q-32 -8 -69 -8t-75 8v219q-10 -2 -16 -2h-13q-171 0 -294 37q-41 13 -84 27z" />
<glyph unicode="%" horiz-adv-x="2150" d="M90 1037q0 89 23.5 168t70.5 139q102 129 291 129q186 0 290 -129q95 -118 95 -306q0 -294 -215 -399q-72 -35 -170 -35q-188 0 -291 128q-94 118 -94 305zM278 1038q0 -137 46 -211.5t151 -74.5q197 0 197 285.5t-197 285.5t-197 -285zM481 2l989 1448q50 8 89 8 q70 0 118 -8l-989 -1448q-58 -8 -108.5 -8t-98.5 8zM1278 410q0 89 23.5 168t70.5 139q102 129 291 129q186 0 290 -129q95 -118 95 -306q0 -294 -215 -399q-72 -35 -170 -35q-188 0 -291 128q-94 118 -94 305zM1466 411q0 -137 46 -211.5t151 -74.5q197 0 197 285.5 t-197 285.5t-197 -285z" />
<glyph unicode="&#x26;" horiz-adv-x="1558" d="M119 418q0 136 75 254q72 116 187 164q-209 93 -209 307q0 171 129 267q117 87 311 87q140 0 256 -41q-4 -92 -45 -153q-99 30 -182.5 30t-129.5 -17.5t-75 -45.5q-57 -52 -57 -136.5t58.5 -137t187.5 -52.5h446l189 258h16v-258h266q8 -35 8 -79.5t-8 -86.5h-266v-303 q0 -246 -166 -375q-159 -125 -438 -125q-238 0 -386 103q-167 115 -167 340zM344 447q0 -137 88 -212t256 -75q320 0 375 232q16 67 16 138v244h-415q-147 0 -234 -96q-86 -94 -86 -231z" />
<glyph unicode="'" horiz-adv-x="456" d="M131 911v562q46 8 98 8q51 0 97 -8v-562q-47 -6 -98.5 -6t-96.5 6z" />
<glyph unicode="(" horiz-adv-x="653" d="M102 623q0 445 157 797q44 98 91 169q32 8 96 8q59 0 105 -8q-151 -260 -215 -611q-29 -159 -29 -354.5t29 -355t68 -280.5q59 -178 147 -330q-46 -8 -91 -8q-78 0 -110 8q-165 246 -226 658q-22 145 -22 307z" />
<glyph unicode=")" horiz-adv-x="653" d="M102 -342q244 420 244 965.5t-244 965.5q46 8 105 8q64 0 96 -8q169 -270 227 -659q21 -146 21 -307q0 -448 -158 -796q-45 -99 -90 -169q-32 -8 -77 -8q-78 0 -124 8z" />
<glyph unicode="*" horiz-adv-x="993" d="M78 1126q8 63 41 121l256 -67q-12 -82 -47 -152zM201 762l143 223q64 -31 129 -92l-170 -207q-68 38 -102 76zM418 1206l16 267q31 6 62 6t65 -6l17 -267q-35 -6 -82 -6q-51 0 -78 6zM520 893q65 61 129 92l144 -223q-36 -39 -103 -76zM618 1180l256 67q33 -57 41 -121 l-249 -98q-35 70 -48 152z" />
<glyph unicode="+" d="M176 720q0 50 8 91h340v373q46 8 89.5 8t93.5 -8v-373h337q9 -52 9 -90q0 -52 -9 -92h-337v-371q-50 -8 -97 -8t-86 8v371h-340q-8 41 -8 91z" />
<glyph unicode="," horiz-adv-x="436" d="M41 -231l121 456q69 11 107 11t96 -11l-129 -456q-44 -7 -84 -7q-80 0 -111 7z" />
<glyph unicode="-" horiz-adv-x="739" d="M96 573q0 53 8 95h531q8 -40 8 -95q0 -54 -8 -92h-531q-8 36 -8 92z" />
<glyph unicode="." horiz-adv-x="493" d="M123 113q0 46 10 116q65 9 113 9q51 0 114 -9q11 -80 11 -114q0 -51 -11 -115q-58 -8 -112 -8q-57 0 -115 8q-10 72 -10 113z" />
<glyph unicode="/" horiz-adv-x="839" d="M72 0l497 1473q50 8 86 8q59 0 113 -8l-500 -1473q-50 -8 -86 -8q-62 0 -110 8z" />
<glyph unicode="0" d="M100 657q0 307 130 491q137 193 388 193q252 0 388 -193q129 -181 129 -491q0 -307 -131 -489q-138 -193 -390 -193q-247 0 -386 193q-128 179 -128 489zM315 657q0 -254 80 -377.5t221 -123.5t219 123.5t78 377.5t-78 379t-219 125t-221 -125t-80 -379z" />
<glyph unicode="1" d="M203 1071l545 260h30v-1157h293q6 -47 6 -88t-6 -86h-801q-8 41 -8 87t8 87h308v881l-297 -135q-45 54 -78 151z" />
<glyph unicode="2" d="M117 27l401 469q140 166 176 224q76 120 76 222.5t-69.5 159.5t-183 57t-181.5 -22.5t-131 -51.5q-46 119 -51 172q72 31 158.5 57.5t197 26.5t197 -23.5t149.5 -70.5q129 -97 129 -291q0 -137 -75.5 -266t-215.5 -287l-196 -223h542q9 -52 9 -93.5t-9 -86.5h-911z" />
<glyph unicode="3" d="M98 -82q10 76 64 172q144 -59 301 -59q261 0 345 165q30 58 30 142q0 127 -84 188.5t-203 61.5t-182 -17l-17 29l342 539h-526q-8 41 -8 88.5t8 93.5h829l15 -25l-373 -567q6 2 15 2h16q180 0 283 -121q91 -108 91 -246.5t-46 -233.5t-124 -158q-151 -122 -405 -122 q-200 0 -371 68z" />
<glyph unicode="4" d="M68 182l600 1176q90 -8 178 -68l-477 -950h413v389q50 8 99.5 8t99.5 -8v-389h188q9 -52 9 -90q0 -54 -9 -90h-188v-281q-41 -6 -98 -6q-63 0 -101 6v281h-698z" />
<glyph unicode="5" d="M129 -90q11 82 57 172q134 -49 273 -49q372 0 372 307q0 196 -175 256q-62 22 -171 22t-215 -36l-20 18q14 413 29 721h696q6 -35 6 -92t-6 -90h-512l-12 -365q59 12 151 12t176 -28.5t144 -85.5q125 -119 125 -322q0 -246 -169 -378q-156 -122 -419 -122q-187 0 -330 60 z" />
<glyph unicode="6" d="M135 578q0 169 46 329t141 285q205 268 593 299q29 -90 9 -172q-246 -23 -400 -185q-137 -145 -178 -386q45 78 132 134t193.5 56t185.5 -27.5t141 -84.5q135 -127 135 -359q0 -231 -154 -367q-143 -125 -342 -125q-502 0 -502 603zM356 451q0 -148 73 -223.5t202 -75.5 q125 0 205 80q84 84 84 229q0 153 -80 233q-72 72 -196 72q-58 0 -111.5 -20.5t-92.5 -60.5q-84 -86 -84 -234z" />
<glyph unicode="7" d="M135 1227q0 48 8 94h973l8 -14l-622 -1459q-114 25 -191 86l525 1205h-693q-8 40 -8 88z" />
<glyph unicode="8" d="M109 377q0 221 196 347q53 34 107 56q-98 47 -167 130t-69 208q0 157 126 257q124 98 312 98t312 -98q127 -99 127 -257q0 -127 -69 -209t-169 -129q136 -59 206 -137q99 -110 99 -266q0 -204 -158 -311q-134 -91 -348 -91q-213 0 -348 91q-157 107 -157 311zM326 395 q0 -115 73.5 -180t215.5 -65t215 65.5t73 179.5q0 162 -175 253q-53 28 -114 46q-201 -59 -266 -194q-22 -47 -22 -105zM375 1104q0 -175 239 -246q240 69 240 246q0 92 -60.5 147.5t-179.5 55.5t-179 -55.5t-60 -147.5z" />
<glyph unicode="9" d="M109 844q0 229 153 368q140 125 342 125q502 0 502 -592q0 -379 -188 -624q-204 -268 -592 -299q-30 74 -9 174q244 20 402 182q149 153 174 387q-43 -78 -130 -135t-194.5 -57t-185.5 27.5t-139 85.5q-135 125 -135 358zM322 850q0 -154 80 -234q69 -69 195 -69 q58 0 111.5 20.5t92.5 60.5q84 86 84 233t-73 223.5t-199 76.5t-208.5 -78.5t-82.5 -232.5z" />
<glyph unicode=":" horiz-adv-x="493" d="M123 113q0 46 10 116q65 9 113 9q51 0 114 -9q11 -80 11 -114q0 -51 -11 -115q-58 -8 -112 -8q-57 0 -115 8q-10 72 -10 113zM123 938q0 46 10 116q65 9 113 9q51 0 114 -9q11 -80 11 -114q0 -51 -11 -115q-58 -8 -112 -8q-57 0 -115 8q-10 72 -10 113z" />
<glyph unicode=";" horiz-adv-x="532" d="M59 -231l121 456q69 11 107 11t96 -11l-129 -456q-44 -7 -84 -7q-80 0 -111 7zM160 938q0 46 10 116q65 9 113 9q51 0 114 -9q11 -80 11 -114q0 -51 -11 -115q-58 -8 -112 -8q-57 0 -115 8q-10 72 -10 113z" />
<glyph unicode="&#x3c;" d="M195 596q-27 115 0 217l852 346q10 -57 10 -90q0 -64 -8 -104l-672 -260l672 -250q8 -46 8 -87q0 -78 -10 -118z" />
<glyph unicode="=" d="M174 516q0 64 6 94h869q8 -40 8 -94q0 -56 -8 -92h-869q-6 27 -6 92zM174 907q0 64 6 94h869q8 -40 8 -94q0 -56 -8 -92h-869q-6 27 -6 92z" />
<glyph unicode="&#x3e;" d="M172 1038q0 66 10 121l854 -346q4 -27 8.5 -53.5t4.5 -70.5t-13 -93l-854 -346q-8 58 -8 90q0 64 8 104l670 261l-670 249q-10 38 -10 84z" />
<glyph unicode="?" horiz-adv-x="999" d="M88 1417q136 44 215.5 51t126.5 7q242 0 366 -110t124 -290t-140 -304q-89 -79 -213 -122v-211q-47 -8 -98.5 -8t-95.5 8v332q247 63 309 190q23 48 23 113q0 104 -78 163.5t-224 59.5q-92 0 -148 -13t-116 -36q-41 88 -51 170zM346 115q0 58 8 114q80 11 115 11t115 -11 q8 -58 8 -112q0 -57 -8 -115q-54 -8 -113 -8q-71 0 -117 8q-8 58 -8 113z" />
<glyph unicode="@" horiz-adv-x="2076" d="M115 438q0 184 64.5 371.5t199.5 340.5t343 249t495 96q329 0 529 -170q218 -186 218 -520q0 -270 -148 -471q-73 -98 -175.5 -158.5t-238.5 -60.5t-218 63q-128 -76 -283 -76t-242.5 87t-87.5 232.5t47.5 263.5t127 203t187 133t209.5 48q170 0 322 -47l-147 -731 q34 -27 114 -27t145.5 50.5t111.5 129.5q94 157 94 361q0 260 -153.5 395t-432.5 135q-213 0 -379 -74.5t-279.5 -199.5t-173 -285t-59.5 -325t46 -279.5t126 -187.5q157 -142 422 -142q195 0 348 58q33 -80 45 -144q-150 -70 -397 -69q-341 0 -551 183q-229 200 -229 568z M774 467q0 -203 184 -203q86 0 175 39l112 590q-54 12 -115 12t-129.5 -33.5t-118.5 -93.5q-108 -126 -108 -311z" />
<glyph unicode="A" horiz-adv-x="1263" d="M33 0l479 1473q54 8 102 8q80 0 138 -8l477 -1473q-50 -8 -96 -8q-77 0 -125 8l-103 340h-559l-100 -340q-54 -8 -95 -8q-74 0 -118 8zM401 522h449l-225 752z" />
<glyph unicode="B" horiz-adv-x="1218" d="M182 0v1473q112 22 330 22q522 0 522 -383q0 -122 -72 -214q-62 -81 -163 -110q131 -14 221 -100q106 -101 106 -280q0 -225 -175 -336q-152 -97 -432 -97q-132 0 -337 25zM389 162q58 -8 146 -8t152.5 12t113.5 42q106 65 106 208q0 270 -346 270h-172v-524zM389 858 h150q286 0 286 242q0 117 -78.5 174t-191 57t-166.5 -8v-465z" />
<glyph unicode="C" horiz-adv-x="1265" d="M121 727q0 354 182 561q183 209 500 209q185 0 350 -55q-5 -63 -49 -172q-111 36 -172.5 40.5t-112.5 4.5q-223 0 -347 -151.5t-124 -436.5q0 -281 134 -428q63 -70 152 -104.5t225.5 -34.5t260.5 55q45 -88 58 -170q-163 -70 -347 -70t-312 52.5t-216 149.5 q-182 201 -182 550z" />
<glyph unicode="D" horiz-adv-x="1431" d="M182 0v1473q192 22 361 22q387 0 578.5 -196.5t191.5 -573.5q0 -750 -778 -750q-183 0 -353 25zM391 172q72 -10 176.5 -10t203.5 27.5t171 92.5q150 137 150 457q0 296 -149 439q-135 131 -387 131q-120 0 -165 -9v-1128z" />
<glyph unicode="E" horiz-adv-x="1097" d="M180 0v1473h809q6 -41 6 -96t-6 -87h-600v-422h479q9 -45 9 -90t-9 -92h-479v-504h617q6 -41 6 -96.5t-6 -85.5h-826z" />
<glyph unicode="F" horiz-adv-x="1032" d="M180 0v1473h770q8 -40 8 -91q0 -50 -8 -92h-561v-432h469q8 -46 8 -92q0 -48 -8 -92h-469v-674q-50 -8 -106.5 -8t-102.5 8z" />
<glyph unicode="G" horiz-adv-x="1394" d="M121 727q0 353 189 561q189 209 497 209q207 0 358 -57q-6 -70 -49 -172q-149 47 -274.5 47t-214 -39t-151.5 -114q-132 -159 -132 -435q0 -278 138 -427q127 -138 354 -138q112 0 196 24v576q50 8 105 8q58 0 102 -8v-719q-162 -68 -416 -68q-330 0 -516 200t-186 552z " />
<glyph unicode="H" horiz-adv-x="1404" d="M180 0v1473q50 8 105 8q56 0 104 -8v-607h627v607q46 8 102 8q57 0 107 -8v-1473q-46 -8 -105.5 -8t-103.5 8v682h-627v-682q-50 -8 -106.5 -8t-102.5 8z" />
<glyph unicode="I" horiz-adv-x="569" d="M180 0v1473q50 8 105 8q56 0 104 -8v-1473q-50 -8 -106.5 -8t-102.5 8z" />
<glyph unicode="J" horiz-adv-x="811" d="M57 0q0 81 33 178q83 -20 121.5 -20t76.5 6t70 26q74 47 74 172v928h-258q-8 40 -8 92q0 49 8 91h467v-1063q0 -346 -229 -414q-74 -21 -163 -21t-192 25z" />
<glyph unicode="K" horiz-adv-x="1230" d="M180 0v1473q50 8 105 8q56 0 104 -8v-1473q-50 -8 -106.5 -8t-102.5 8zM451 748l473 725q58 8 95 8q66 0 132 -8l-467 -707l526 -766q-66 -8 -108 -8q-67 0 -129 8z" />
<glyph unicode="L" horiz-adv-x="1013" d="M180 0v1473q46 8 101.5 8t105.5 -8v-1289h578q6 -34 6 -87.5t-6 -96.5h-785z" />
<glyph unicode="M" horiz-adv-x="1671" d="M156 0l65 1473q50 8 117 8q73 0 119 -8l381 -922l383 922q40 8 89 8q90 0 136 -8l70 -1473q-50 -8 -103 -8q-56 0 -100 8l-47 1145l-361 -840q-41 -6 -82 -6t-80 6l-348 846l-47 -1151q-46 -8 -97 -8t-95 8z" />
<glyph unicode="N" horiz-adv-x="1392" d="M180 0v1473q46 8 96 8q51 0 97 -8l641 -1106v1106q50 8 102 8t96 -8v-1473q-46 -8 -96 -8q-52 0 -96 8l-643 1100v-1100q-46 -8 -100.5 -8t-96.5 8z" />
<glyph unicode="O" horiz-adv-x="1492" d="M125 735q0 345 153 546q163 216 470 216q306 0 470 -216q150 -199 150 -546q0 -346 -150 -545q-162 -215 -470 -215q-309 0 -470 215q-153 202 -153 545zM348 735q0 -420 223 -539q75 -40 177 -40q199 0 300 156q99 150 99 423q0 419 -223 538q-74 40 -176 40 q-199 0 -302 -155q-98 -149 -98 -423z" />
<glyph unicode="P" horiz-adv-x="1159" d="M180 0v1475q171 22 313 22t243.5 -22.5t177.5 -78.5q167 -120 167 -374q0 -264 -175 -392q-144 -104 -384 -104q-80 0 -133 6v-532q-49 -6 -110.5 -6t-98.5 6zM389 715q66 -8 129 -8t126 13t112 48q108 77 108 252q0 236 -204 282q-64 15 -139 15t-132 -6v-596z" />
<glyph unicode="Q" horiz-adv-x="1482" d="M119 735q0 345 153 546q163 216 469 216q307 0 471 -216q150 -199 150 -546q0 -346 -150 -545q-162 -215 -471 -215q-308 0 -469 215q-153 202 -153 545zM342 734q0 -134 24.5 -240.5t73.5 -181.5q101 -156 301 -156t301 156q99 150 99 423q0 419 -223 538 q-74 40 -177 40q-298 0 -375 -337q-24 -108 -24 -242zM877 -227q7 93 36 176l469 -82q-5 -112 -34 -182z" />
<glyph unicode="R" horiz-adv-x="1222" d="M184 0v1475q45 4 82 8t73 7q84 7 174.5 7t193 -20.5t182.5 -71.5q180 -115 180 -358q0 -144 -94 -263q-73 -91 -195 -151l-24 -12l428 -621q-55 -6 -117.5 -6t-118.5 6l-471 682v8q242 57 334 204q35 56 35 136q0 147 -87 219t-235 72q-57 0 -131 -8v-1313 q-69 -6 -102 -6q-70 0 -107 6z" />
<glyph unicode="S" horiz-adv-x="1116" d="M94 39q5 62 49 184q68 -25 141.5 -43t180.5 -18q168 0 251 68.5t83 185.5q0 110 -70 168q-54 46 -209 108l-117 47q-134 57 -193 127q-77 92 -77 234q0 186 127 291.5t356 105.5q183 0 342 -57q-10 -86 -45 -170q-146 53 -292 53q-269 0 -269 -209q0 -114 131 -182 q39 -21 82 -37l115 -45q178 -71 254 -153q92 -98 92 -267q0 -211 -145.5 -333t-407.5 -122q-172 0 -295 37q-41 13 -84 27z" />
<glyph unicode="T" horiz-adv-x="1077" d="M43 1382q0 49 8 91h975q8 -40 8 -89q0 -52 -8 -94h-383v-1290q-47 -6 -103 -6t-106 6v1290h-383q-8 40 -8 92z" />
<glyph unicode="U" horiz-adv-x="1380" d="M166 600v873q49 6 105 6t104 -6v-836q0 -256 69 -363q71 -110 246 -110q172 0 244 110q70 106 70 363v836q51 6 106 6t104 -6v-873q0 -311 -118 -461q-128 -164 -406 -164q-412 0 -496 361q-28 117 -28 264z" />
<glyph unicode="V" horiz-adv-x="1288" d="M45 1473q46 8 94 8q85 0 137 -8l373 -1260l371 1260q55 6 98 6q89 0 125 -6l-479 -1473q-54 -8 -121 -8q-63 0 -121 8z" />
<glyph unicode="W" horiz-adv-x="1886" d="M55 1473q46 8 119 8q63 0 113 -8l252 -1227l303 1227q50 8 92 8q81 0 127 -8l305 -1240l256 1240q46 8 86 8q77 0 123 -8l-354 -1473q-50 -8 -98 -8q-88 0 -146 8l-291 1153l-295 -1153q-58 -8 -104 -8q-85 0 -133 8z" />
<glyph unicode="X" horiz-adv-x="1247" d="M43 0l365 770l-308 700q54 7 111 7t111 -7l292 -700l-350 -770q-59 -6 -109 -6t-112 6zM631 770l293 700q23 2 43 4.5t43 2.5h55q46 0 78 -7l-307 -694l366 -776q-61 -6 -109 -6t-112 6z" />
<glyph unicode="Y" horiz-adv-x="1212" d="M37 1473q54 8 100 8q85 0 133 -8l344 -732l340 732q54 8 109 8q59 0 113 -8l-461 -934v-539q-54 -8 -107 -8q-60 0 -104 8v539z" />
<glyph unicode="Z" horiz-adv-x="1159" d="M49 18l742 1272h-650q-8 36 -8 90q0 51 8 93h957l14 -19l-743 -1272h690q8 -36 8 -92q0 -54 -8 -90h-998z" />
<glyph unicode="[" horiz-adv-x="653" d="M102 -344v1900h441q8 -46 8 -83q0 -46 -8 -82h-240v-1569h240q8 -40 8 -82q0 -44 -8 -84h-441z" />
<glyph unicode="\" horiz-adv-x="843" d="M66 1473q46 8 100 8q56 0 100 -8l498 -1473q-50 -8 -86 -8q-63 0 -113 8z" />
<glyph unicode="]" horiz-adv-x="653" d="M102 1467q0 42 9 89h440v-1900h-440q-19 92 0 166h239v1567h-239q-9 36 -9 78z" />
<glyph unicode="^" horiz-adv-x="1126" d="M125 754l332 719q50 8 89 8q66 0 124 -8l327 -719q-43 -6 -98 -6h-47q-23 0 -45 4l-250 548l-240 -548q-23 -4 -47 -4h-47q-54 0 -98 6z" />
<glyph unicode="_" horiz-adv-x="1034" d="M2 -104q0 43 10 73h1012q8 -35 8 -74.5t-8 -74.5h-1012q-10 33 -10 76z" />
<glyph unicode="`" horiz-adv-x="1024" d="M264 1477q62 8 112 8q88 0 148 -8l236 -260q-115 -20 -205 0z" />
<glyph unicode="a" horiz-adv-x="1058" d="M98 311q0 169 134 265q120 88 314 88q93 0 173 -11v39q0 121 -61.5 168t-183.5 47t-251 -41q-39 68 -39 162q143 47 332 47q402 0 402 -391v-657q-234 -52 -358.5 -52t-206 18.5t-137.5 59.5q-118 86 -118 258zM301 315q0 -107 79 -149q34 -19 75 -23t111.5 -4t152.5 21 v334q-93 12 -158 12q-260 0 -260 -191z" />
<glyph unicode="b" horiz-adv-x="1208" d="M162 33v1468q46 8 100 8q57 0 103 -8v-577q37 61 114.5 106t180 45t182.5 -30.5t137 -94.5q121 -137 121 -403t-152.5 -419t-439.5 -153q-182 0 -346 58zM365 170q71 -23 156 -23t149.5 24t111.5 72q103 105 103 287.5t-59.5 276.5t-196.5 94q-104 0 -179 -65 q-85 -74 -85 -226v-440z" />
<glyph unicode="c" horiz-adv-x="978" d="M102 524q0 243 130 392q140 159 384 159q167 0 277 -43q0 -85 -35 -162q-100 35 -243.5 35t-221.5 -104.5t-78 -289t88.5 -275.5t225.5 -91t235 37q39 -71 43 -159q-121 -47 -276 -48q-262 0 -395.5 148.5t-133.5 400.5z" />
<glyph unicode="d" horiz-adv-x="1200" d="M106 495.5q0 137.5 38 242t108 179t167 115.5t212.5 41t206.5 -29v457q46 8 101 8t99 -8v-1472q-183 -54 -389 -54q-376 0 -499 283q-44 100 -44 237.5zM414 227q90 -84 245 -84q106 0 179 21v708q-85 33 -180 33t-156.5 -30.5t-101.5 -84.5q-77 -103 -77 -287 q0 -191 91 -276z" />
<glyph unicode="e" horiz-adv-x="1138" d="M100 518q0 382 276 513q93 44 211 44t199.5 -37t137 -101.5t84 -153.5t28.5 -164t-6 -144h-715q4 -172 89 -252t240.5 -80t287.5 52q35 -67 39 -162q-136 -58 -303.5 -58t-270 40t-169.5 113q-128 141 -128 390zM317 627h519q0 121 -61 200q-66 86 -188 86 q-238 0 -270 -286z" />
<glyph unicode="f" horiz-adv-x="757" d="M55 970q0 46 8 81h173v73q0 195 97 296.5t283 101.5q91 0 164 -21q-7 -89 -30 -164q-75 15 -117.5 15t-78.5 -9.5t-62 -34.5q-54 -55 -54 -190v-67h269q6 -41 6 -82t-6 -78h-269v-891q-46 -8 -100 -8q-58 0 -102 8v891h-173q-8 33 -8 79z" />
<glyph unicode="g" horiz-adv-x="1132" d="M76 -238q0 84 45 151t117 105q-97 64 -97 166q0 136 125 230q-68 47 -108.5 121.5t-40.5 161t28.5 154t82.5 117.5q117 107 302.5 107t309.5 -94q94 76 264 76q8 -39 8 -86t-8 -97h-184q47 -72 47 -162.5t-31 -158.5t-87 -116q-115 -99 -304 -99q-84 0 -152 18 q-29 -16 -56.5 -50t-27.5 -72t26.5 -65.5t119.5 -29.5l272 -4q346 -8 346 -280q0 -162 -161 -265q-155 -100 -404 -100q-432 0 -432 272zM266 -185.5q0 -58.5 18.5 -87t52.5 -45.5q61 -32 203 -32t234 54t92 136q0 61 -39 94t-143 35l-233 4h-7q-87 0 -132 -49 q-46 -51 -46 -109.5zM330 706q0 -97 52 -159t163 -62t164 61.5t53 159t-53.5 160t-163.5 62.5q-111 0 -163 -62.5t-52 -159.5z" />
<glyph unicode="h" horiz-adv-x="1183" d="M162 0v1501q46 8 100 8q57 0 103 -8v-610q114 184 321 184q354 0 354 -409v-666q-46 -8 -100 -8q-56 0 -100 8v610q0 283 -195 283q-194 0 -257 -191q-23 -67 -23 -163v-539q-46 -8 -102.5 -8t-100.5 8z" />
<glyph unicode="i" horiz-adv-x="589" d="M84 971q0 46 8 80h332v-1051q-46 -8 -99.5 -8t-99.5 8v891h-133q-8 32 -8 80zM174 1386q0 68 6 103q54 8 111 8q60 0 108 -8q7 -40 7 -103q0 -60 -7 -104q-50 -8 -107.5 -8t-111.5 8q-6 38 -6 104z" />
<glyph unicode="j" horiz-adv-x="593" d="M-82 -356q4 86 33 153q49 -16 95.5 -16t75 4t52.5 21q57 41 57 149v936h-133q-8 32 -8 80q0 46 8 80h332v-1110q0 -324 -326 -324q-111 0 -186 27zM174 1386q0 47 8 101q68 10 111 10q46 0 106 -10q9 -61 9 -101q0 -37 -9 -102q-63 -10 -106 -10t-111 10q-8 58 -8 102z " />
<glyph unicode="k" horiz-adv-x="1052" d="M156 0v1501q46 8 100 8q58 0 102 -8v-1501q-46 -8 -102 -8t-100 8zM414 545l334 506q54 8 96 8q69 0 127 -8l-334 -492l391 -559q-58 -8 -110 -8q-59 0 -115 8z" />
<glyph unicode="l" horiz-adv-x="610" d="M160 272v1229q46 8 100 8q56 0 100 -8v-1184q0 -145 80 -162q23 -5 61 -5t70 8q18 -72 19 -156q-46 -16 -125.5 -16t-130.5 14t-90 47q-84 71 -84 225z" />
<glyph unicode="m" horiz-adv-x="1748" d="M164 0v1051q46 8 88 8q38 0 84 -8q18 -93 18 -166q62 127 199 173q49 17 109 17q123 0 189.5 -50t100.5 -140q74 129 201 173q47 17 107 17q182 0 265 -102.5t83 -302.5v-670q-46 -8 -103 -8q-56 0 -100 8v610q0 141 -43 212t-144 71t-166 -76t-65 -223v-594 q-46 -8 -100 -8q-55 0 -101 8v625q0 137 -40.5 205.5t-131.5 68.5q-108 0 -174 -90q-73 -97 -73 -272v-537q-46 -8 -101 -8q-58 0 -102 8z" />
<glyph unicode="n" horiz-adv-x="1183" d="M164 0v1051q46 8 88 8q38 0 84 -8q18 -93 18 -170q74 129 220 177q53 17 116 17q352 0 352 -409v-666q-46 -8 -102 -8t-100 8v610q0 145 -45 214t-144 69q-193 0 -261 -195q-23 -69 -23 -166v-532q-46 -8 -101 -8q-58 0 -102 8z" />
<glyph unicode="o" horiz-adv-x="1181" d="M100 524q0 379 275 508q92 43 215 43q235 0 368 -159q121 -145 121 -392q0 -246 -121 -391q-131 -158 -368 -158t-368 158q-122 146 -122 391zM315 524q0 -182 67 -284.5t208 -102.5t208.5 102.5t67.5 284.5t-67.5 283.5t-208.5 101.5q-275 0 -275 -385z" />
<glyph unicode="p" horiz-adv-x="1208" d="M162 -483v1534q40 8 73 8q57 0 99 -8q3 -6 8.5 -51.5t8.5 -68t3 -28.5q104 172 320 172q301 0 394 -289q32 -100 32 -235q0 -270 -146.5 -423t-414.5 -153q-96 0 -174 23v-481q-56 -9 -103 -9q-50 0 -100 9zM365 172q75 -27 167.5 -27t154 24t105.5 73q95 106 95 301 q0 356 -258 356q-109 0 -183 -74q-81 -83 -81 -227v-426z" />
<glyph unicode="q" horiz-adv-x="1198" d="M106 487.5q0 137.5 40 244t114 182.5q155 161 416 161q192 0 360 -47v-1511q-52 -9 -100 -9q-50 0 -100 9v483q-102 -24 -200 -24q-103 0 -202 27q-199 54 -284 248q-44 99 -44 236.5zM317 489q0 -175 94 -265q83 -79 238 -79q76 0 187 27v717q-54 11 -78.5 12.5t-42 2.5 t-39.5 1q-176 0 -270 -117q-89 -111 -89 -299z" />
<glyph unicode="r" horiz-adv-x="761" d="M164 0v1051q46 8 86 8q48 0 86 -8q18 -93 18 -166q106 172 295 172q38 0 64 -4q8 -36 8 -71q0 -52 -10 -114q-16 4 -34 4h-28q-282 0 -282 -350v-522q-46 -8 -101 -8q-54 0 -102 8z" />
<glyph unicode="s" horiz-adv-x="931" d="M98 25q6 59 47 165q117 -49 254 -49q156 0 217 91q19 30 19 69t-15.5 65.5t-41.5 45.5q-40 29 -132 57l-71 27q-131 49 -190.5 110.5t-59.5 165.5q0 139 99.5 221t268.5 82t314 -51q-8 -81 -43 -158q-132 47 -225 47q-209 0 -209 -120q0 -88 110 -131q31 -13 68 -25 l90 -31q115 -38 158 -83q82 -87 82 -210q0 -151 -118 -244q-120 -94 -349 -94q-134 0 -273 50z" />
<glyph unicode="t" horiz-adv-x="733" d="M35 918l352 393h16v-260h267q8 -35 8 -78.5t-8 -83.5h-267v-479q0 -165 33 -216q29 -47 121 -47q50 0 121 17q20 -59 20 -160q-82 -20 -182 -20q-147 0 -230 71.5t-83 237.5v596h-160z" />
<glyph unicode="u" horiz-adv-x="1175" d="M152 467v584q46 8 102 8t100 -8v-576q0 -190 74 -264q66 -66 191.5 -66t199.5 23v883q46 8 101 8q54 0 100 -8v-1018q-209 -58 -343 -58t-223 17.5t-157 71.5q-145 114 -145 403z" />
<glyph unicode="v" horiz-adv-x="1087" d="M35 1051q58 8 100 8q83 0 127 -8l287 -867l289 867q46 8 88 8q69 0 127 -8l-410 -1051q-54 -8 -102 -8q-49 0 -99 8z" />
<glyph unicode="w" horiz-adv-x="1587" d="M45 1051q58 8 98 8q77 0 121 -8l205 -858l231 858q41 7 82 7h10q87 -2 115 -7l230 -844l204 844q46 8 82 8q61 0 119 -8l-313 -1051q-54 -8 -105 -8q-48 0 -102 8l-225 795l-236 -795q-58 -8 -106 -8q-55 0 -101 8z" />
<glyph unicode="x" horiz-adv-x="1042" d="M37 0l285 545l-248 506q47 8 91 8q68 0 130 -8l217 -508l-262 -543q-52 -8 -105 -8t-108 8zM528 543l220 508q58 8 113.5 8t103.5 -8l-244 -500l285 -551q-58 -8 -112 -8t-101 8z" />
<glyph unicode="y" horiz-adv-x="1083" d="M27 1051q41 6 88 6q101 0 135 -6l291 -977l301 977q43 6 83 6q83 0 126 -6l-408 -1264q-59 -172 -129 -233q-72 -64 -182.5 -64t-190.5 25q0 81 33 157q60 -20 103 -20t66.5 5t44.5 21q39 30 71 121l63 199l-67 -2q-52 0 -80 4z" />
<glyph unicode="z" horiz-adv-x="976" d="M59 29l553 860h-487q-6 37 -6 81t6 81h788l11 -27l-557 -862h522q6 -41 6 -83t-6 -79h-819z" />
<glyph unicode="{" horiz-adv-x="847" d="M102 600v27q118 62 160 133q47 78 47 219t9.5 251.5t49.5 185.5t119.5 113t219.5 38h28q8 -40 8 -82q0 -44 -8 -80q-148 0 -191 -71q-38 -61 -38 -242v-13q0 -224 -37 -320q-36 -93 -137 -145q103 -57 137 -146q37 -96 37 -321v-14q0 -181 38 -239q46 -72 191 -72 q8 -36 8 -78t-8 -84q-237 0 -333 100q-91 95 -91 320q0 119 -4 200.5t-24.5 140t-62.5 99.5t-118 80z" />
<glyph unicode="|" horiz-adv-x="681" d="M242 -344v1933q46 8 100 8t98 -8v-1933q-46 -8 -98 -8q-56 0 -100 8z" />
<glyph unicode="}" horiz-adv-x="847" d="M102 -253.5q0 41.5 9 75.5q145 0 191 72q38 58 38 239v14q0 228 36 321q37 92 138 146q-101 51 -138 145q-36 93 -36 320v13q0 181 -38 242q-43 71 -191 71q-9 41 -9 80q0 44 9 82h28q139 0 219 -38t120 -113t49.5 -185.5t9.5 -218t11 -159.5t36 -93q44 -74 159 -133v-27 q-76 -39 -117.5 -80t-62 -99.5t-24.5 -140t-4 -195.5t-20.5 -193.5t-70.5 -131.5q-96 -100 -333 -100q-9 45 -9 86.5z" />
<glyph unicode="~" horiz-adv-x="976" d="M39 838q41 49 114.5 84.5t138 35.5t109.5 -13t91 -29q119 -39 200 -39t162 75q53 -50 86 -141q-106 -106 -260 -106q-68 0 -149 27q-159 54 -218 54q-104 0 -186 -79q-65 57 -88 131z" />
<glyph unicode="&#xa1;" horiz-adv-x="593" d="M174 938q0 59 8 117q58 8 113 8q59 0 117 -8q8 -58 8 -115t-8 -115q-58 -8 -115 -8t-115 8q-8 58 -8 113zM184 -418l13 1030q56 9 89 9q54 0 103 -9l14 -1030q-58 -8 -109.5 -8t-109.5 8z" />
<glyph unicode="&#xa2;" d="M229 524q0 220 110 367q116 155 327 178v234q37 10 69 10q33 0 74 -10v-232q118 -8 209 -41q0 -78 -35 -160q-112 35 -227 35q-160 0 -240 -103.5t-80 -290t90 -277.5t225.5 -91t237.5 37q39 -71 43 -160q-112 -34 -223 -43v-219q-33 -8 -72 -8t-71 8v224 q-217 23 -327 166t-110 376z" />
<glyph unicode="&#xa3;" d="M184 703q0 41 6 81h146q-29 171 -29 251.5t27.5 161.5t83.5 143q125 135 352 135q178 0 307 -56q-9 -92 -47 -170q-112 49 -216 49t-154 -22.5t-80 -61.5q-60 -75 -60 -180t31 -250h383q6 -41 6 -82t-6 -77h-354q18 -83 18 -152q0 -184 -76 -289h557q6 -34 6 -87.5 t-6 -96.5h-868l-8 25l39 36q109 103 139 292q8 50 8 114t-20 158h-179q-6 37 -6 78z" />
<glyph unicode="&#xa4;" d="M88 315l156 156q-72 105 -72 240t78 247l-162 164q44 85 125 121l162 -164q105 72 239 72q133 0 242 -72l164 164q83 -51 121 -119l-162 -161q82 -111 82 -250q0 -128 -78 -246l156 -156q-45 -78 -117 -121l-162 160q-109 -74 -247 -74t-246 74l-158 -157 q-81 36 -121 122zM354 713q0 -115 74 -193q76 -80 186 -80q113 0 189 80t76 193q0 112 -76 192t-189 80q-110 0 -186 -80q-74 -78 -74 -192z" />
<glyph unicode="&#xa5;" d="M55 1448q54 8 119 8t115 -8l336 -619l329 619q54 8 111 8q61 0 111 -8l-371 -664h311q6 -29 6 -69.5t-6 -71.5h-393v-180h393q6 -29 6 -70t-6 -71h-393v-322q-50 -8 -105 -8q-54 0 -104 8v322h-377q-8 25 -8 66t8 75h377v180h-377q-8 25 -8 67t8 74h295z" />
<glyph unicode="&#xa6;" horiz-adv-x="681" d="M242 338q46 8 100 8t98 -8v-682q-46 -8 -98 -8q-56 0 -100 8v682zM242 907v682q46 8 100 8t98 -8v-682q-41 -8 -97.5 -8t-100.5 8z" />
<glyph unicode="&#xa7;" horiz-adv-x="1150" d="M135 739q0 121 117 248q-68 68 -68 176q0 140 120 225q117 82 296 82t346 -55q0 -74 -49 -160q-129 56 -260 56q-248 0 -248 -137q0 -66 43 -91.5t115 -48.5l254 -78q213 -66 213 -241q0 -131 -117 -262q70 -66 70 -174q0 -141 -133 -225q-129 -81 -351 -81 q-189 0 -342 56q14 90 52 159q136 -57 276.5 -57t216.5 37t76 101t-48 92t-152.5 61t-193.5 66.5t-140.5 68.5t-72 78t-20.5 104zM322 778.5q0 -63.5 32.5 -95.5t102.5 -54l237 -76q10 -4 23.5 -8t32.5 -10q75 65 75 151q0 89 -125 127l-145 45q-45 14 -87 24.5t-73 26.5 q-73 -67 -73 -130.5z" />
<glyph unicode="&#xa8;" horiz-adv-x="1024" d="M190 1331q0 50 9 111q50 8 88 8q67 0 121 -8q8 -47 8 -88q0 -63 -8 -117q-53 -6 -112.5 -6t-96.5 6q-9 61 -9 94zM608 1324q0 64 8 118q50 8 89 8q68 0 120 -8q6 -53 6 -103.5t-6 -101.5q-53 -6 -112.5 -6t-96.5 6q-8 47 -8 87z" />
<glyph unicode="&#xa9;" horiz-adv-x="1732" d="M106 735q0 162 55.5 302.5t155 241.5t239.5 159.5t310 58.5q339 0 550 -217q210 -215 210 -545t-210 -543q-99 -102 -239.5 -160.5t-310.5 -58.5t-310 58.5t-240 160.5q-210 214 -210 543zM256 735q0 -270 163 -445q171 -184 447 -184q277 0 448 184q163 175 163 445 q0 271 -163 446q-170 183 -448 183q-277 0 -447 -183q-163 -175 -163 -446zM498 733q0 188 105 311q107 125 288 125q113 0 211 -32q-4 -83 -33 -142q-80 25 -162 25q-117 0 -177 -77t-60 -212t64.5 -205.5t165 -70.5t173.5 32q31 -57 43 -137q-96 -43 -205.5 -43t-183.5 32 t-125 89q-104 116 -104 305z" />
<glyph unicode="&#xaa;" horiz-adv-x="1024" d="M127 872q0 137 109 210q98 67 257 67q78 0 136 -8v26q0 90 -49.5 124t-149.5 34t-199 -31q-34 62 -34 138q124 36 276 36t239 -73.5t87 -233.5v-512q-167 -41 -328.5 -41t-252.5 61.5t-91 202.5zM291 874q0 -129 196 -129q76 0 142 13v250q-46 8 -117 8q-221 0 -221 -142 z" />
<glyph unicode="&#xab;" horiz-adv-x="1265" d="M100 547l340 452q56 9 94 9q73 0 123 -9l-333 -450l333 -457q-58 -8 -113.5 -8t-103.5 8zM616 547l340 452q56 9 94 9q73 0 123 -9l-333 -450l333 -457q-58 -8 -113.5 -8t-103.5 8z" />
<glyph unicode="&#xac;" d="M178 694q0 55 8 97h854v-572q-36 -8 -92 -8t-96 8v383h-666q-8 36 -8 92z" />
<glyph unicode="&#xad;" horiz-adv-x="739" d="M96 573q0 53 8 95h531q8 -40 8 -95q0 -54 -8 -92h-531q-8 36 -8 92z" />
<glyph unicode="&#xae;" horiz-adv-x="1732" d="M104 735q0 162 55.5 302.5t155 241.5t239.5 159.5t310 58.5t310.5 -57.5t239.5 -159.5q210 -216 210 -545q0 -328 -210 -543q-99 -102 -239.5 -160.5t-310.5 -58.5t-310 58.5t-240 160.5q-210 214 -210 543zM256 735q0 -272 162 -446q170 -183 447 -183q142 0 255 49.5 t192 133.5q163 173 163 446q0 272 -163 445q-171 182 -448 182t-446 -182q-162 -174 -162 -445zM612 354v789q124 14 205.5 14t143 -14.5t105.5 -42.5q95 -62 95 -187q0 -92 -45 -148t-98 -83l215 -326q-43 -6 -92 -6t-86 6l-234 365l41 18q137 64 137 158q0 59 -43 92 t-98.5 33t-89.5 -6v-662q-31 -6 -75 -6t-81 6z" />
<glyph unicode="&#xaf;" horiz-adv-x="1024" d="M227 1349q0 43 9 72h552q9 -36 9 -75q0 -47 -9 -76h-552q-9 36 -9 79z" />
<glyph unicode="&#xb0;" horiz-adv-x="757" d="M82 1189q0 62 23.5 116.5t64.5 94.5q89 87 211 87q124 0 213 -87q88 -86 88 -212q0 -124 -88 -210q-89 -87 -213 -87q-122 0 -211 87q-88 86 -88 211zM229 1188q0 -70 43 -115t109 -45t111 45t45 115t-45.5 116t-110.5 46q-66 0 -109 -46t-43 -116z" />
<glyph unicode="&#xb1;" d="M174 94q0 64 6 94h869q8 -40 8 -94q0 -56 -8 -92h-869q-6 27 -6 92zM176 720q0 50 8 91h340v373q46 8 89.5 8t93.5 -8v-373h337q9 -52 9 -90q0 -52 -9 -92h-337v-371q-50 -8 -97 -8t-86 8v371h-340q-8 41 -8 91z" />
<glyph unicode="&#xb2;" horiz-adv-x="921" d="M135 651q66 70 139.5 144.5t135.5 145.5q141 163 141 239t-49 99.5t-128.5 23.5t-166.5 -35q-30 81 -39 145q123 45 255 45t220 -65.5t88 -188.5q0 -92 -47 -175t-139 -175l-80 -80h313q4 -32 4 -74q0 -41 -4 -73h-633z" />
<glyph unicode="&#xb3;" horiz-adv-x="921" d="M160 637q8 78 41 139q116 -35 197 -35t141.5 36t60.5 108t-53 102.5t-111.5 30.5t-89.5 -8l-22 24l178 273h-287q-6 37 -6 70.5t6 70.5h524l17 -31l-201 -291q102 -11 167 -84q56 -64 56 -140.5t-28.5 -130.5t-78.5 -92q-101 -77 -270 -77q-100 0 -153 12.5t-88 22.5z " />
<glyph unicode="&#xb4;" horiz-adv-x="1024" d="M266 1217l236 260q62 8 115 8q85 0 143 -8l-291 -260q-52 -9 -92 -9q-66 0 -111 9z" />
<glyph unicode="&#xb5;" horiz-adv-x="1234" d="M164 -483v1534q46 8 100 8q55 0 101 -8v-549q0 -180 60 -267.5t191 -87.5q109 0 183 70q80 76 80 223v611q46 8 100 8q56 0 100 -8v-1051q-32 -8 -75 -8q-44 0 -84 8q-21 88 -27 131q-112 -156 -309 -156q-139 0 -222 93v-551q-52 -9 -100 -9t-98 9z" />
<glyph unicode="&#xb6;" horiz-adv-x="1169" d="M102 1048.5q0 112.5 37 197.5t115 138q147 101 481 101v-1497q-102 0 -151 12v641h-25q-317 0 -421 219q-36 76 -36 188.5zM891 -12v1497q102 0 151 -12v-1473q-49 -12 -151 -12z" />
<glyph unicode="&#xb7;" horiz-adv-x="493" d="M127 563q0 55 8 113q58 8 111 8q56 0 112 -8q9 -65 9 -111q0 -49 -9 -112q-65 -9 -110 -9q-48 0 -113 9q-8 58 -8 110z" />
<glyph unicode="&#xb8;" horiz-adv-x="1024" d="M289 -471q6 84 28 119q61 -20 127 -21q142 0 142 82q0 72 -133 72q-52 0 -115 -14l-12 10l100 272h131l-68 -168q20 4 48 4q98 0 151 -49t53 -138t-80.5 -140.5t-196.5 -51.5t-175 23z" />
<glyph unicode="&#xb9;" horiz-adv-x="921" d="M162 1294l395 162h35v-684h190q18 -78 0 -145h-559q-10 30 -10 72.5t10 72.5h197v469l-191 -78q-45 45 -67 131z" />
<glyph unicode="&#xba;" horiz-adv-x="1024" d="M133 1040q0 186 95 304q104 129 284 129q183 0 285 -129q94 -120 94 -304t-94 -306q-101 -130 -285 -130q-180 0 -284 130q-95 120 -95 306zM313 1040q0 -133 49.5 -209.5t150.5 -76.5t149.5 76.5t48.5 209.5t-48.5 209t-149.5 76t-150.5 -75.5t-49.5 -209.5z" />
<glyph unicode="&#xbb;" horiz-adv-x="1263" d="M88 92l336 451l-336 456q65 9 103 9q71 0 114 -9l342 -454l-342 -453q-62 -10 -102 -10q-42 0 -115 10zM602 92l336 451l-336 456q65 9 103 9q71 0 114 -9l342 -454l-342 -453q-62 -10 -102 -10q-42 0 -115 10z" />
<glyph unicode="&#xbc;" horiz-adv-x="2150" d="M133 1294l395 162h35v-684h190q18 -78 0 -145h-559q-10 30 -10 72.5t10 72.5h197v469l-191 -78q-45 45 -67 131zM516 2l989 1448q50 8 89 8q70 0 118 -8l-989 -1448q-58 -8 -108.5 -8t-98.5 8zM1284 186l336 666q82 -10 150 -50l-244 -497h201v162q37 6 78.5 6t82.5 -6 v-162h99q8 -32 8 -76.5t-8 -69.5h-99v-157q-41 -6 -81.5 -6t-79.5 6v157h-426z" />
<glyph unicode="&#xbd;" horiz-adv-x="2150" d="M127 1294l395 162h35v-684h190q18 -78 0 -145h-559q-10 30 -10 72.5t10 72.5h197v469l-191 -78q-45 45 -67 131zM481 2l989 1448q50 8 89 8q70 0 118 -8l-989 -1448q-58 -8 -108.5 -8t-98.5 8zM1352 26q66 70 139.5 144.5t135.5 145.5q141 163 141 239t-49 99.5 t-128.5 23.5t-166.5 -35q-30 81 -39 145q123 45 255 45t220 -65.5t88 -188.5q0 -92 -47 -175t-139 -175l-80 -80h313q4 -32 4 -74q0 -41 -4 -73h-633z" />
<glyph unicode="&#xbe;" horiz-adv-x="2150" d="M174 637q8 78 41 139q116 -35 197 -35t141.5 36t60.5 108t-53 102.5t-111.5 30.5t-89.5 -8l-22 24l178 273h-287q-6 37 -6 70.5t6 70.5h524l17 -31l-201 -291q102 -11 167 -84q56 -64 56 -140.5t-28.5 -130.5t-78.5 -92q-101 -77 -270 -77q-100 0 -153 12.5t-88 22.5z M528 2l989 1448q50 8 89 8q70 0 118 -8l-989 -1448q-58 -8 -108.5 -8t-98.5 8zM1302 203l336 666q82 -10 150 -50l-244 -497h201v162q37 6 78.5 6t82.5 -6v-162h99q8 -32 8 -76.5t-8 -69.5h-99v-157q-41 -6 -81.5 -6t-79.5 6v157h-426z" />
<glyph unicode="&#xbf;" horiz-adv-x="999" d="M125 -20q0 178 141 304q88 79 211 122v210q109 19 195 0v-331q-249 -64 -310 -192q-22 -48 -22 -111q0 -104 78 -164t223 -60q92 0 148.5 13.5t115.5 35.5q41 -88 51 -169q-143 -47 -218.5 -52.5t-123.5 -5.5q-242 0 -365.5 109.5t-123.5 290.5zM453 938q0 57 8 115 q54 8 112 8q71 0 117 -8q8 -58 8 -113q0 -57 -8 -115q-72 -10 -115 -10q-44 0 -114 10q-8 58 -8 113z" />
<glyph unicode="&#xc0;" horiz-adv-x="1263" d="M33 0l479 1473q54 8 102 8q80 0 138 -8l477 -1473q-50 -8 -96 -8q-77 0 -125 8l-103 340h-559l-100 -340q-54 -8 -95 -8q-74 0 -118 8zM274 1817q73 10 137 10q63 0 146 -10l215 -222q-47 -8 -90 -8q-75 0 -127 8zM401 522h449l-225 752z" />
<glyph unicode="&#xc1;" horiz-adv-x="1263" d="M33 0l479 1473q54 8 102 8q80 0 138 -8l477 -1473q-50 -8 -96 -8q-77 0 -125 8l-103 340h-559l-100 -340q-54 -8 -95 -8q-74 0 -118 8zM401 522h449l-225 752zM461 1595l217 222q82 10 133 10q75 0 148 -10l-279 -222q-54 -8 -112 -8q-49 0 -107 8z" />
<glyph unicode="&#xc2;" horiz-adv-x="1263" d="M33 0l479 1473q54 8 102 8q80 0 138 -8l477 -1473q-50 -8 -96 -8q-77 0 -125 8l-103 340h-559l-100 -340q-54 -8 -95 -8q-74 0 -118 8zM269 1595l241 222q46 8 119 8q67 0 121 -8l235 -222q-36 -8 -84 -8h-45q-62 0 -94 8l-133 125l-133 -125q-36 -8 -96 -8h-48 q-43 0 -83 8zM401 522h449l-225 752z" />
<glyph unicode="&#xc3;" horiz-adv-x="1263" d="M33 0l479 1473q54 8 102 8q80 0 138 -8l477 -1473q-50 -8 -96 -8q-77 0 -125 8l-103 340h-559l-100 -340q-54 -8 -95 -8q-74 0 -118 8zM262 1759q94 105 207 105q56 0 133.5 -35t117.5 -51.5t80 -16.5t69.5 15.5t70.5 54.5q47 -57 68 -121q-98 -98 -205 -98 q-68 0 -140.5 34.5t-112.5 50t-81 15.5t-70.5 -17.5t-68.5 -52.5q-57 72 -68 117zM401 522h449l-225 752z" />
<glyph unicode="&#xc4;" horiz-adv-x="1263" d="M33 0l479 1473q54 8 102 8q80 0 138 -8l477 -1473q-50 -8 -96 -8q-77 0 -125 8l-103 340h-559l-100 -340q-54 -8 -95 -8q-74 0 -118 8zM295 1718q0 51 6 105q58 8 96 8q71 0 119 -8q19 -110 0 -207q-50 -8 -103.5 -8t-111.5 8q-6 51 -6 102zM401 522h449l-225 752z M731 1727.5q0 37.5 11 95.5q50 8 91 8q66 0 124 -8q6 -53 6 -104.5t-6 -102.5q-58 -8 -111.5 -8t-103.5 8q-11 74 -11 111.5z" />
<glyph unicode="&#xc5;" horiz-adv-x="1263" d="M33 0l479 1468q-57 29 -91 83t-34 142t67.5 156t175 68t176 -67.5t68.5 -155.5q0 -163 -124 -226l479 -1468q-50 -8 -96 -8q-77 0 -125 8l-105 340h-555l-102 -340q-54 -8 -95 -8q-74 0 -118 8zM401 522h449l-225 744zM518 1677q0 -59 30 -96t83 -37t81.5 37t28.5 96 t-28.5 96t-81.5 37t-83 -36.5t-30 -96.5z" />
<glyph unicode="&#xc6;" horiz-adv-x="1888" d="M-10 0l864 1473h924q8 -46 8 -91q0 -52 -8 -94h-600v-444h481q6 -41 6 -96.5t-6 -85.5h-481v-480h616q8 -40 8 -90q0 -52 -8 -92h-825v344h-551l-195 -344q-58 -8 -104 -8q-81 0 -129 8zM516 524h453v781h-11z" />
<glyph unicode="&#xc7;" horiz-adv-x="1265" d="M119 725q0 354 183 563q184 209 501 209q196 0 348 -57q-6 -74 -49 -170q-111 36 -172.5 40.5t-112.5 4.5q-221 0 -347 -152.5t-126 -437.5q0 -279 134 -427q65 -71 155 -105.5t228.5 -34.5t258.5 57q41 -89 58 -172q-162 -66 -351 -66h-34l-35 -88q25 5 39 5 q113 0 165 -53.5t52 -141.5t-80 -140.5t-198 -52.5t-185 25q6 87 31 123q72 -23 129 -23q143 0 143 80q0 70 -131 70q-69 0 -117 -17l-16 19q57 146 78 205q-256 40 -402.5 235t-146.5 502z" />
<glyph unicode="&#xc8;" horiz-adv-x="1097" d="M180 0v1473h809q6 -41 6 -96t-6 -87h-600v-422h479q9 -45 9 -90t-9 -92h-479v-504h617q6 -41 6 -96.5t-6 -85.5h-826zM262 1817q73 10 137 10q63 0 146 -10l215 -222q-47 -8 -90 -8q-75 0 -127 8z" />
<glyph unicode="&#xc9;" horiz-adv-x="1097" d="M180 0v1473h809q6 -41 6 -96t-6 -87h-600v-422h479q9 -45 9 -90t-9 -92h-479v-504h617q6 -41 6 -96.5t-6 -85.5h-826zM395 1595l217 222q82 10 133 10q75 0 148 -10l-279 -222q-54 -8 -112 -8q-49 0 -107 8z" />
<glyph unicode="&#xca;" horiz-adv-x="1097" d="M180 0v1473h809q6 -41 6 -96t-6 -87h-600v-422h479q9 -45 9 -90t-9 -92h-479v-504h617q6 -41 6 -96.5t-6 -85.5h-826zM224 1595l241 222q46 8 119 8q67 0 121 -8l235 -222q-36 -8 -84 -8h-45q-62 0 -94 8l-133 125l-133 -125q-36 -8 -96 -8h-48q-43 0 -83 8z" />
<glyph unicode="&#xcb;" horiz-adv-x="1097" d="M180 0v1473h809q6 -41 6 -96t-6 -87h-600v-422h479q9 -45 9 -90t-9 -92h-479v-504h617q6 -41 6 -96.5t-6 -85.5h-826zM246 1718q0 51 6 105q58 8 96 8q71 0 119 -8q19 -110 0 -207q-50 -8 -103.5 -8t-111.5 8q-6 51 -6 102zM682 1727.5q0 37.5 11 95.5q50 8 91 8 q66 0 124 -8q6 -53 6 -104.5t-6 -102.5q-58 -8 -111.5 -8t-103.5 8q-11 74 -11 111.5z" />
<glyph unicode="&#xcc;" horiz-adv-x="569" d="M-43 1817q73 10 137 10q63 0 146 -10l215 -222q-47 -8 -90 -8q-75 0 -127 8zM180 0v1473q50 8 105 8q56 0 104 -8v-1473q-50 -8 -106.5 -8t-102.5 8z" />
<glyph unicode="&#xcd;" horiz-adv-x="569" d="M129 1595l217 222q82 10 133 10q75 0 148 -10l-279 -222q-54 -8 -112 -8q-49 0 -107 8zM180 0v1473q50 8 105 8q56 0 104 -8v-1473q-50 -8 -106.5 -8t-102.5 8z" />
<glyph unicode="&#xce;" horiz-adv-x="569" d="M-73 1595l241 222q46 8 119 8q67 0 121 -8l235 -222q-36 -8 -84 -8h-45q-62 0 -94 8l-133 125l-133 -125q-36 -8 -96 -8h-48q-43 0 -83 8zM180 0v1473q50 8 105 8q56 0 104 -8v-1473q-50 -8 -106.5 -8t-102.5 8z" />
<glyph unicode="&#xcf;" horiz-adv-x="569" d="M-47 1718q0 51 6 105q58 8 96 8q71 0 119 -8q19 -110 0 -207q-50 -8 -103.5 -8t-111.5 8q-6 51 -6 102zM180 0v1473q50 8 105 8q56 0 104 -8v-1473q-50 -8 -106.5 -8t-102.5 8zM389 1727.5q0 37.5 11 95.5q50 8 91 8q66 0 124 -8q6 -53 6 -104.5t-6 -102.5 q-58 -8 -111.5 -8t-103.5 8q-11 74 -11 111.5z" />
<glyph unicode="&#xd0;" horiz-adv-x="1449" d="M25 754q0 45 8 77h168v642q192 22 360 22q387 0 578.5 -196.5t191.5 -573.5q0 -750 -778 -750q-184 0 -352 25v678h-168q-8 32 -8 76zM410 172q73 -10 176.5 -10t203 27.5t170.5 92.5q150 137 150 457q0 295 -148 439q-135 131 -388 131q-120 0 -164 -9v-469h331 q9 -36 9 -76.5t-9 -76.5h-331v-506z" />
<glyph unicode="&#xd1;" horiz-adv-x="1392" d="M180 0v1473q46 8 96 8q51 0 97 -8l641 -1106v1106q50 8 102 8t96 -8v-1473q-46 -8 -96 -8q-52 0 -96 8l-643 1100v-1100q-46 -8 -100.5 -8t-96.5 8zM332 1759q94 105 207 105q56 0 133.5 -35t117.5 -51.5t80 -16.5t69.5 15.5t70.5 54.5q47 -57 68 -121q-98 -98 -205 -98 q-68 0 -140.5 34.5t-112.5 50t-81 15.5t-70.5 -17.5t-68.5 -52.5q-57 72 -68 117z" />
<glyph unicode="&#xd2;" horiz-adv-x="1482" d="M121 735q0 345 153 546q163 216 470 216q306 0 470 -216q150 -199 150 -546q0 -346 -150 -545q-162 -215 -470 -215q-309 0 -470 215q-153 202 -153 545zM344 735q0 -420 223 -539q75 -40 177 -40q199 0 300 156q99 150 99 423q0 419 -223 538q-74 40 -176 40 q-199 0 -302 -155q-98 -149 -98 -423zM379 1817q73 10 137 10q63 0 146 -10l215 -222q-47 -8 -90 -8q-75 0 -127 8z" />
<glyph unicode="&#xd3;" horiz-adv-x="1482" d="M121 735q0 345 153 546q163 216 470 216q306 0 470 -216q150 -199 150 -546q0 -346 -150 -545q-162 -215 -470 -215q-309 0 -470 215q-153 202 -153 545zM344 735q0 -420 223 -539q75 -40 177 -40q199 0 300 156q99 150 99 423q0 419 -223 538q-74 40 -176 40 q-199 0 -302 -155q-98 -149 -98 -423zM573 1595l217 222q82 10 133 10q75 0 148 -10l-279 -222q-54 -8 -112 -8q-49 0 -107 8z" />
<glyph unicode="&#xd4;" horiz-adv-x="1482" d="M121 735q0 345 153 546q163 216 470 216q306 0 470 -216q150 -199 150 -546q0 -346 -150 -545q-162 -215 -470 -215q-309 0 -470 215q-153 202 -153 545zM344 735q0 -420 223 -539q75 -40 177 -40q199 0 300 156q99 150 99 423q0 419 -223 538q-74 40 -176 40 q-199 0 -302 -155q-98 -149 -98 -423zM379 1595l241 222q46 8 119 8q67 0 121 -8l235 -222q-36 -8 -84 -8h-45q-62 0 -94 8l-133 125l-133 -125q-36 -8 -96 -8h-48q-43 0 -83 8z" />
<glyph unicode="&#xd5;" horiz-adv-x="1482" d="M121 735q0 345 153 546q163 216 470 216q306 0 470 -216q150 -199 150 -546q0 -346 -150 -545q-162 -215 -470 -215q-309 0 -470 215q-153 202 -153 545zM344 735q0 -420 223 -539q75 -40 177 -40q199 0 300 156q99 150 99 423q0 419 -223 538q-74 40 -176 40 q-199 0 -302 -155q-98 -149 -98 -423zM379 1759q94 105 207 105q56 0 133.5 -35t117.5 -51.5t80 -16.5t69.5 15.5t70.5 54.5q47 -57 68 -121q-98 -98 -205 -98q-68 0 -140.5 34.5t-112.5 50t-81 15.5t-70.5 -17.5t-68.5 -52.5q-57 72 -68 117z" />
<glyph unicode="&#xd6;" horiz-adv-x="1482" d="M121 735q0 345 153 546q163 216 470 216q306 0 470 -216q150 -199 150 -546q0 -346 -150 -545q-162 -215 -470 -215q-309 0 -470 215q-153 202 -153 545zM344 735q0 -420 223 -539q75 -40 177 -40q199 0 300 156q99 150 99 423q0 419 -223 538q-74 40 -176 40 q-199 0 -302 -155q-98 -149 -98 -423zM405 1718q0 51 6 105q58 8 96 8q71 0 119 -8q19 -110 0 -207q-50 -8 -103.5 -8t-111.5 8q-6 51 -6 102zM841 1727.5q0 37.5 11 95.5q50 8 91 8q66 0 124 -8q6 -53 6 -104.5t-6 -102.5q-58 -8 -111.5 -8t-103.5 8q-11 74 -11 111.5z" />
<glyph unicode="&#xd7;" d="M236 477l249 248q-63 61 -247 248q43 64 129 131l247 -250l248 248q74 -55 129 -129q-123 -125 -248 -248q125 -123 248 -248q-59 -81 -129 -127l-246 246l-251 -248q-76 51 -129 129z" />
<glyph unicode="&#xd8;" horiz-adv-x="1482" d="M115 0l147 203q-143 199 -143 532q0 345 153 546q163 216 469 216q234 0 377 -121l70 97q32 8 70 8q58 0 96 -8l-142 -195q150 -201 150 -543q0 -346 -150 -545q-162 -215 -471 -215q-233 0 -387 127l-73 -102q-35 -6 -82 -6t-84 6zM342 697q0 -171 55 -308l600 823 q-96 100 -256 101q-298 0 -375 -337q-24 -108 -24 -279zM473 266q100 -110 268 -110q200 0 301 156q99 150 99 393t-64 389z" />
<glyph unicode="&#xd9;" horiz-adv-x="1380" d="M166 600v873q49 6 105 6t104 -6v-836q0 -256 69 -363q71 -110 246 -110q172 0 244 110q70 106 70 363v836q51 6 106 6t104 -6v-873q0 -311 -118 -461q-128 -164 -406 -164q-412 0 -496 361q-28 117 -28 264zM348 1817q73 10 137 10q63 0 146 -10l215 -222q-47 -8 -90 -8 q-75 0 -127 8z" />
<glyph unicode="&#xda;" horiz-adv-x="1380" d="M166 600v873q49 6 105 6t104 -6v-836q0 -256 69 -363q71 -110 246 -110q172 0 244 110q70 106 70 363v836q51 6 106 6t104 -6v-873q0 -311 -118 -461q-128 -164 -406 -164q-412 0 -496 361q-28 117 -28 264zM547 1595l217 222q82 10 133 10q75 0 148 -10l-279 -222 q-54 -8 -112 -8q-49 0 -107 8z" />
<glyph unicode="&#xdb;" horiz-adv-x="1380" d="M166 600v873q49 6 105 6t104 -6v-836q0 -256 69 -363q71 -110 246 -110q172 0 244 110q70 106 70 363v836q51 6 106 6t104 -6v-873q0 -311 -118 -461q-128 -164 -406 -164q-412 0 -496 361q-28 117 -28 264zM330 1595l241 222q46 8 119 8q67 0 121 -8l235 -222 q-36 -8 -84 -8h-45q-62 0 -94 8l-133 125l-133 -125q-36 -8 -96 -8h-48q-43 0 -83 8z" />
<glyph unicode="&#xdc;" horiz-adv-x="1380" d="M166 600v873q49 6 105 6t104 -6v-836q0 -256 69 -363q71 -110 246 -110q172 0 244 110q70 106 70 363v836q51 6 106 6t104 -6v-873q0 -311 -118 -461q-128 -164 -406 -164q-412 0 -496 361q-28 117 -28 264zM356 1718q0 51 6 105q58 8 96 8q71 0 119 -8q19 -110 0 -207 q-50 -8 -103.5 -8t-111.5 8q-6 51 -6 102zM792 1727.5q0 37.5 11 95.5q50 8 91 8q66 0 124 -8q6 -53 6 -104.5t-6 -102.5q-58 -8 -111.5 -8t-103.5 8q-11 74 -11 111.5z" />
<glyph unicode="&#xdd;" horiz-adv-x="1212" d="M37 1473q54 8 100 8q85 0 133 -8l344 -732l340 732q54 8 109 8q59 0 113 -8l-461 -934v-539q-54 -8 -107 -8q-60 0 -104 8v539zM467 1595l217 222q82 10 133 10q75 0 148 -10l-279 -222q-54 -8 -112 -8q-49 0 -107 8z" />
<glyph unicode="&#xde;" horiz-adv-x="1189" d="M178 0v1473q49 6 110.5 6t98.5 -6v-230q53 6 144 6t192.5 -23.5t181.5 -81.5q176 -126 176 -390t-176 -388q-147 -104 -389 -104q-59 0 -129 4v-266q-37 -6 -105.5 -6t-103.5 6zM387 451q88 -9 129 -9q348 0 348 314q0 177 -110 252q-86 59 -238 59q-47 0 -129 -8v-608z " />
<glyph unicode="&#xdf;" horiz-adv-x="1171" d="M162 0v1010q0 250 89 374q99 136 320 136q189 0 290 -99q89 -87 89 -233q0 -92 -28.5 -154.5t-63.5 -112t-63.5 -92.5t-28.5 -92t24.5 -78.5t60.5 -54t78 -51.5t77 -63q86 -85 86 -216t-90.5 -215t-268.5 -84q-131 0 -248 50q6 61 47 161q92 -45 173.5 -45t131.5 30 t50 112q0 80 -83 137q-36 24 -78 49t-78 57q-83 72 -83 191q0 72 29 124t62.5 101t62.5 104.5t29 134.5t-46.5 126t-134.5 47q-123 0 -165 -83t-42 -265v-1006q-46 -8 -98 -8q-56 0 -100 8z" />
<glyph unicode="&#xe0;" horiz-adv-x="1058" d="M98 311q0 169 134 265q120 88 314 88q93 0 173 -11v39q0 121 -61.5 168t-183.5 47t-251 -41q-39 68 -39 162q143 47 332 47q402 0 402 -391v-657q-234 -52 -358.5 -52t-206 18.5t-137.5 59.5q-118 86 -118 258zM190 1477q62 8 112 8q88 0 148 -8l236 -260 q-115 -20 -205 0zM301 315q0 -107 79 -149q34 -19 75 -23t111.5 -4t152.5 21v334q-93 12 -158 12q-260 0 -260 -191z" />
<glyph unicode="&#xe1;" horiz-adv-x="1058" d="M98 311q0 169 134 265q120 88 314 88q93 0 173 -11v39q0 121 -61.5 168t-183.5 47t-251 -41q-39 68 -39 162q143 47 332 47q402 0 402 -391v-657q-234 -52 -358.5 -52t-206 18.5t-137.5 59.5q-118 86 -118 258zM301 315q0 -107 79 -149q34 -19 75 -23t111.5 -4t152.5 21 v334q-93 12 -158 12q-260 0 -260 -191zM325 1217l236 260q62 8 115 8q85 0 143 -8l-291 -260q-52 -9 -92 -9q-66 0 -111 9z" />
<glyph unicode="&#xe2;" horiz-adv-x="1058" d="M98 311q0 169 134 265q120 88 314 88q93 0 173 -11v39q0 121 -61.5 168t-183.5 47t-251 -41q-39 68 -39 162q143 47 332 47q402 0 402 -391v-657q-234 -52 -358.5 -52t-206 18.5t-137.5 59.5q-118 86 -118 258zM170 1217l223 260q54 8 101 8q91 0 139 -10l221 -258 q-41 -9 -92 -9q-68 0 -117 9l-133 163l-133 -163q-52 -9 -110 -9t-99 9zM301 315q0 -107 79 -149q34 -19 75 -23t111.5 -4t152.5 21v334q-93 12 -158 12q-260 0 -260 -191z" />
<glyph unicode="&#xe3;" horiz-adv-x="1058" d="M98 311q0 169 134 265q120 88 314 88q93 0 173 -11v39q0 121 -61.5 168t-183.5 47t-251 -41q-39 68 -39 162q143 47 332 47q402 0 402 -391v-657q-234 -52 -358.5 -52t-206 18.5t-137.5 59.5q-118 86 -118 258zM174 1368q76 100 196 100q60 0 126.5 -30.5t103.5 -45 t75 -14.5t67.5 12.5t72.5 51.5q45 -55 65 -125q-81 -96 -198 -96q-58 0 -126.5 30.5t-104.5 45t-76 14.5t-68.5 -14.5t-69.5 -49.5q-48 61 -63 121zM301 315q0 -107 79 -149q34 -19 75 -23t111.5 -4t152.5 21v334q-93 12 -158 12q-260 0 -260 -191z" />
<glyph unicode="&#xe4;" horiz-adv-x="1058" d="M98 311q0 169 134 265q120 88 314 88q93 0 173 -11v39q0 121 -61.5 168t-183.5 47t-251 -41q-39 68 -39 162q143 47 332 47q402 0 402 -391v-657q-234 -52 -358.5 -52t-206 18.5t-137.5 59.5q-118 86 -118 258zM215 1331q0 50 9 111q50 8 88 8q67 0 121 -8q8 -47 8 -88 q0 -63 -8 -117q-53 -6 -112.5 -6t-96.5 6q-9 61 -9 94zM301 315q0 -107 79 -149q34 -19 75 -23t111.5 -4t152.5 21v334q-93 12 -158 12q-260 0 -260 -191zM633 1324q0 64 8 118q50 8 89 8q68 0 120 -8q6 -53 6 -103.5t-6 -101.5q-53 -6 -112.5 -6t-96.5 6q-8 47 -8 87z" />
<glyph unicode="&#xe5;" horiz-adv-x="1058" d="M98 311q0 169 134 265q120 88 314 88q93 0 173 -11v39q0 121 -61.5 168t-183.5 47t-251 -41q-39 68 -39 162q143 47 332 47q402 0 402 -391v-657q-234 -52 -358.5 -52t-206 18.5t-137.5 59.5q-118 86 -118 258zM301 315q0 -107 79 -149q34 -19 75 -23t111.5 -4t152.5 21 v334q-93 12 -158 12q-260 0 -260 -191zM320 1419q0 98 61.5 158.5t159.5 60.5t159.5 -60t61.5 -159q0 -98 -61.5 -158.5t-159.5 -60.5t-159.5 60.5t-61.5 158.5zM441 1419q0 -53 25.5 -83.5t74.5 -30.5t75.5 30.5t26.5 83.5t-26.5 84t-75.5 31t-74.5 -30.5t-25.5 -84.5z" />
<glyph unicode="&#xe6;" horiz-adv-x="1718" d="M90 310q0 89 36 154.5t97.5 108.5t141 64.5t168.5 21.5t176 -10v43q0 121 -59.5 168t-184.5 47t-248 -41q-39 68 -39 162q143 47 316 47q235 0 344 -164q126 164 344 164q204 0 324 -139q110 -128 110 -346q0 -67 -8 -113h-703q0 -180 84 -257t236.5 -77t287.5 52 q33 -73 37 -162q-139 -57 -345.5 -57.5t-336.5 100.5q-163 -101 -372 -101q-286 0 -375 183q-31 63 -31 152zM295 309q0 -174 219 -174q160 0 250 64q-52 88 -57 250l-2 38q-85 11 -144 11q-129 0 -197.5 -44t-68.5 -145zM907 629h512q0 195 -133 261q-45 23 -106 23 q-241 0 -273 -284z" />
<glyph unicode="&#xe7;" horiz-adv-x="978" d="M104 524q0 245 128 392q140 159 382 159q164 0 279 -45q0 -83 -35 -160q-112 35 -227 35q-160 0 -240 -103.5t-80 -289t91.5 -277.5t225.5 -92t236 37q39 -71 43 -160q-129 -45 -293 -45l-36 -92q10 2 36 2q106 0 160.5 -49t54.5 -138t-80.5 -140.5t-194 -51.5t-177.5 25 q6 82 29 119q68 -23 128.5 -23t100 21.5t39.5 60.5q0 74 -135 74q-50 0 -113 -14q-4 2 -12 10q39 109 78 209q-195 37 -291.5 177t-96.5 359z" />
<glyph unicode="&#xe8;" horiz-adv-x="1140" d="M102 518q0 382 276 513q93 44 211 44t199.5 -37t137 -101.5t84 -153.5t28.5 -164t-6 -144h-715q4 -172 89 -252t240.5 -80t287.5 52q35 -67 39 -162q-136 -58 -303.5 -58t-270 40t-169.5 113q-128 141 -128 390zM272 1477q62 8 112 8q88 0 148 -8l236 -260 q-115 -20 -205 0zM319 627h519q0 121 -61 200q-66 86 -188 86q-238 0 -270 -286z" />
<glyph unicode="&#xe9;" horiz-adv-x="1140" d="M102 518q0 382 276 513q93 44 211 44t199.5 -37t137 -101.5t84 -153.5t28.5 -164t-6 -144h-715q4 -172 89 -252t240.5 -80t287.5 52q35 -67 39 -162q-136 -58 -303.5 -58t-270 40t-169.5 113q-128 141 -128 390zM319 627h519q0 121 -61 200q-66 86 -188 86 q-238 0 -270 -286zM413 1217l236 260q62 8 115 8q85 0 143 -8l-291 -260q-52 -9 -92 -9q-66 0 -111 9z" />
<glyph unicode="&#xea;" horiz-adv-x="1140" d="M102 518q0 382 276 513q93 44 211 44t199.5 -37t137 -101.5t84 -153.5t28.5 -164t-6 -144h-715q4 -172 89 -252t240.5 -80t287.5 52q35 -67 39 -162q-136 -58 -303.5 -58t-270 40t-169.5 113q-128 141 -128 390zM244 1217l223 260q54 8 101 8q91 0 139 -10l221 -258 q-41 -9 -92 -9q-68 0 -117 9l-133 163l-133 -163q-52 -9 -110 -9t-99 9zM319 627h519q0 121 -61 200q-66 86 -188 86q-238 0 -270 -286z" />
<glyph unicode="&#xeb;" horiz-adv-x="1140" d="M102 518q0 382 276 513q93 44 211 44t199.5 -37t137 -101.5t84 -153.5t28.5 -164t-6 -144h-715q4 -172 89 -252t240.5 -80t287.5 52q35 -67 39 -162q-136 -58 -303.5 -58t-270 40t-169.5 113q-128 141 -128 390zM256 1331q0 50 9 111q50 8 88 8q67 0 121 -8q8 -47 8 -88 q0 -63 -8 -117q-53 -6 -112.5 -6t-96.5 6q-9 61 -9 94zM319 627h519q0 121 -61 200q-66 86 -188 86q-238 0 -270 -286zM674 1324q0 64 8 118q50 8 89 8q68 0 120 -8q6 -53 6 -103.5t-6 -101.5q-53 -6 -112.5 -6t-96.5 6q-8 47 -8 87z" />
<glyph unicode="&#xec;" horiz-adv-x="589" d="M-29 1477q62 8 112 8q88 0 148 -8l236 -260q-115 -20 -205 0zM84 971q0 46 8 80h332v-1051q-46 -8 -99.5 -8t-99.5 8v891h-133q-8 32 -8 80z" />
<glyph unicode="&#xed;" horiz-adv-x="589" d="M84 971q0 46 8 80h332v-1051q-46 -8 -99.5 -8t-99.5 8v891h-133q-8 32 -8 80zM102 1217l236 260q62 8 115 8q85 0 143 -8l-291 -260q-52 -9 -92 -9q-66 0 -111 9z" />
<glyph unicode="&#xee;" horiz-adv-x="589" d="M-47 1217l223 260q54 8 101 8q91 0 139 -10l221 -258q-41 -9 -92 -9q-68 0 -117 9l-133 163l-133 -163q-52 -9 -110 -9t-99 9zM84 971q0 46 8 80h332v-1051q-46 -8 -99.5 -8t-99.5 8v891h-133q-8 32 -8 80z" />
<glyph unicode="&#xef;" horiz-adv-x="589" d="M-25 1331q0 50 9 111q50 8 88 8q67 0 121 -8q8 -47 8 -88q0 -63 -8 -117q-53 -6 -112.5 -6t-96.5 6q-9 61 -9 94zM84 971q0 46 8 80h332v-1051q-46 -8 -99.5 -8t-99.5 8v891h-133q-8 32 -8 80zM393 1324q0 64 8 118q50 8 89 8q68 0 120 -8q6 -53 6 -103.5t-6 -101.5 q-53 -6 -112.5 -6t-96.5 6q-8 47 -8 87z" />
<glyph unicode="&#xf0;" horiz-adv-x="1189" d="M104 485q0 222 118 365q120 147 341 147q78 0 151.5 -25.5t121.5 -72.5q-41 109 -85 182.5t-110 126.5l-201 -125q-48 44 -71 111l143 90q-69 34 -207 53q-10 29 -10 75t18 95q210 -12 373 -110l180 114q41 -32 78 -110q-48 -31 -143 -88q139 -129 210.5 -322.5 t71.5 -423.5q0 -426 -272 -550q-92 -42 -217 -42q-242 0 -370 145q-120 136 -120 365zM317 483.5q0 -350.5 277 -350.5q274 0 274 352q0 174 -65.5 261.5t-204.5 87.5q-281 0 -281 -350.5z" />
<glyph unicode="&#xf1;" horiz-adv-x="1183" d="M164 0v1051q46 8 88 8q38 0 84 -8q18 -93 18 -170q74 129 220 177q53 17 116 17q352 0 352 -409v-666q-46 -8 -102 -8t-100 8v610q0 145 -45 214t-144 69q-193 0 -261 -195q-23 -69 -23 -166v-532q-46 -8 -101 -8q-58 0 -102 8zM242 1368q76 100 196 100 q60 0 126.5 -30.5t103.5 -45t75 -14.5t67.5 12.5t72.5 51.5q45 -55 65 -125q-81 -96 -198 -96q-58 0 -126.5 30.5t-104.5 45t-76 14.5t-68.5 -14.5t-69.5 -49.5q-48 61 -63 121z" />
<glyph unicode="&#xf2;" horiz-adv-x="1181" d="M100 524q0 379 275 508q92 43 215 43q235 0 368 -159q121 -145 121 -392q0 -246 -121 -391q-131 -158 -368 -158t-368 158q-122 146 -122 391zM260 1477q62 8 112 8q88 0 148 -8l236 -260q-115 -20 -205 0zM315 524q0 -182 67 -284.5t208 -102.5t208.5 102.5t67.5 284.5 t-67.5 283.5t-208.5 101.5q-275 0 -275 -385z" />
<glyph unicode="&#xf3;" horiz-adv-x="1181" d="M100 524q0 379 275 508q92 43 215 43q235 0 368 -159q121 -145 121 -392q0 -246 -121 -391q-131 -158 -368 -158t-368 158q-122 146 -122 391zM315 524q0 -182 67 -284.5t208 -102.5t208.5 102.5t67.5 284.5t-67.5 283.5t-208.5 101.5q-275 0 -275 -385zM399 1217 l236 260q62 8 115 8q85 0 143 -8l-291 -260q-52 -9 -92 -9q-66 0 -111 9z" />
<glyph unicode="&#xf4;" horiz-adv-x="1181" d="M100 524q0 379 275 508q92 43 215 43q235 0 368 -159q121 -145 121 -392q0 -246 -121 -391q-131 -158 -368 -158t-368 158q-122 146 -122 391zM246 1217l223 260q54 8 101 8q91 0 139 -10l221 -258q-41 -9 -92 -9q-68 0 -117 9l-133 163l-133 -163q-52 -9 -110 -9t-99 9z M315 524q0 -182 67 -284.5t208 -102.5t208.5 102.5t67.5 284.5t-67.5 283.5t-208.5 101.5q-275 0 -275 -385z" />
<glyph unicode="&#xf5;" horiz-adv-x="1181" d="M100 524q0 379 275 508q92 43 215 43q235 0 368 -159q121 -145 121 -392q0 -246 -121 -391q-131 -158 -368 -158t-368 158q-122 146 -122 391zM236 1368q76 100 196 100q60 0 126.5 -30.5t103.5 -45t75 -14.5t67.5 12.5t72.5 51.5q45 -55 65 -125q-81 -96 -198 -96 q-58 0 -126.5 30.5t-104.5 45t-76 14.5t-68.5 -14.5t-69.5 -49.5q-48 61 -63 121zM315 524q0 -182 67 -284.5t208 -102.5t208.5 102.5t67.5 284.5t-67.5 283.5t-208.5 101.5q-275 0 -275 -385z" />
<glyph unicode="&#xf6;" horiz-adv-x="1181" d="M100 524q0 379 275 508q92 43 215 43q235 0 368 -159q121 -145 121 -392q0 -246 -121 -391q-131 -158 -368 -158t-368 158q-122 146 -122 391zM266 1331q0 50 9 111q50 8 88 8q67 0 121 -8q8 -47 8 -88q0 -63 -8 -117q-53 -6 -112.5 -6t-96.5 6q-9 61 -9 94zM315 524 q0 -182 67 -284.5t208 -102.5t208.5 102.5t67.5 284.5t-67.5 283.5t-208.5 101.5q-275 0 -275 -385zM684 1324q0 64 8 118q50 8 89 8q68 0 120 -8q6 -53 6 -103.5t-6 -101.5q-53 -6 -112.5 -6t-96.5 6q-8 47 -8 87z" />
<glyph unicode="&#xf7;" d="M174 721q0 64 6 94h869q8 -40 8 -94q0 -56 -8 -92h-869q-6 27 -6 92zM467 355q0 58 41 100.5t99 42.5t100.5 -42t42.5 -100.5t-42 -99.5t-100.5 -41t-99.5 41t-41 99zM467 1096q0 59 41 100t99 41t100.5 -41t42.5 -100t-42 -99.5t-100.5 -40.5t-99.5 40.5t-41 99.5z" />
<glyph unicode="&#xf8;" horiz-adv-x="1181" d="M104 524q0 245 120 392q132 159 366 159q175 0 299 -96l51 63q31 8 76 9q45 0 76 -7l-121 -151q104 -145 104 -369q0 -245 -119 -391q-130 -158 -366 -158q-166 0 -279 78l-39 -51q-33 -8 -76.5 -8t-74.5 6l104 133q-121 147 -121 391zM313 544.5q0 -161.5 39 -251.5 l424 543q-70 74 -198.5 73.5t-196.5 -102t-68 -263zM422 193q64 -56 168 -56q141 0 209.5 102.5t68.5 284.5q0 115 -28 201z" />
<glyph unicode="&#xf9;" horiz-adv-x="1175" d="M152 467v584q46 8 102 8t100 -8v-576q0 -190 74 -264q66 -66 191.5 -66t199.5 23v883q46 8 101 8q54 0 100 -8v-1018q-209 -58 -343 -58t-223 17.5t-157 71.5q-145 114 -145 403zM264 1477q62 8 112 8q88 0 148 -8l236 -260q-115 -20 -205 0z" />
<glyph unicode="&#xfa;" horiz-adv-x="1175" d="M152 467v584q46 8 102 8t100 -8v-576q0 -190 74 -264q66 -66 191.5 -66t199.5 23v883q46 8 101 8q54 0 100 -8v-1018q-209 -58 -343 -58t-223 17.5t-157 71.5q-145 114 -145 403zM438 1217l236 260q62 8 115 8q85 0 143 -8l-291 -260q-52 -9 -92 -9q-66 0 -111 9z" />
<glyph unicode="&#xfb;" horiz-adv-x="1175" d="M152 467v584q46 8 102 8t100 -8v-576q0 -190 74 -264q66 -66 191.5 -66t199.5 23v883q46 8 101 8q54 0 100 -8v-1018q-209 -58 -343 -58t-223 17.5t-157 71.5q-145 114 -145 403zM244 1217l223 260q54 8 101 8q91 0 139 -10l221 -258q-41 -9 -92 -9q-68 0 -117 9 l-133 163l-133 -163q-52 -9 -110 -9t-99 9z" />
<glyph unicode="&#xfc;" horiz-adv-x="1175" d="M152 467v584q46 8 102 8t100 -8v-576q0 -190 74 -264q66 -66 191.5 -66t199.5 23v883q46 8 101 8q54 0 100 -8v-1018q-209 -58 -343 -58t-223 17.5t-157 71.5q-145 114 -145 403zM276 1331q0 50 9 111q50 8 88 8q67 0 121 -8q8 -47 8 -88q0 -63 -8 -117q-53 -6 -112.5 -6 t-96.5 6q-9 61 -9 94zM694 1324q0 64 8 118q50 8 89 8q68 0 120 -8q6 -53 6 -103.5t-6 -101.5q-53 -6 -112.5 -6t-96.5 6q-8 47 -8 87z" />
<glyph unicode="&#xfd;" horiz-adv-x="1079" d="M27 1051q41 6 88 6q101 0 135 -6l291 -977l301 977q43 6 83 6q83 0 126 -6l-408 -1264q-59 -172 -129 -233q-72 -64 -182.5 -64t-190.5 25q0 81 33 157q60 -20 103 -20t66.5 5t44.5 21q39 30 71 121l63 199l-67 -2q-52 0 -80 4zM360 1217l236 260q62 8 115 8q85 0 143 -8 l-291 -260q-52 -9 -92 -9q-66 0 -111 9z" />
<glyph unicode="&#xfe;" horiz-adv-x="1208" d="M160 -483v1984q37 6 102 6q67 0 100 -6v-583q41 61 118 109t181.5 48t183.5 -31.5t135 -95.5q120 -139 120 -403t-146.5 -417t-416.5 -153q-83 0 -175 25v-483q-35 -6 -100.5 -6t-101.5 6zM362 172q81 -29 171 -29t151 23.5t106 73.5q95 106 95 303q0 354 -256 354 q-176 0 -244 -165q-23 -56 -23 -134v-426z" />
<glyph unicode="&#xff;" horiz-adv-x="1079" d="M27 1051q41 6 88 6q101 0 135 -6l291 -977l301 977q43 6 83 6q83 0 126 -6l-408 -1264q-59 -172 -129 -233q-72 -64 -182.5 -64t-190.5 25q0 81 33 157q60 -20 103 -20t66.5 5t44.5 21q39 30 71 121l63 199l-67 -2q-52 0 -80 4zM219 1331q0 50 9 111q50 8 88 8 q67 0 121 -8q8 -47 8 -88q0 -63 -8 -117q-53 -6 -112.5 -6t-96.5 6q-9 61 -9 94zM637 1324q0 64 8 118q50 8 89 8q68 0 120 -8q6 -53 6 -103.5t-6 -101.5q-53 -6 -112.5 -6t-96.5 6q-8 47 -8 87z" />
<glyph unicode="&#x152;" horiz-adv-x="1892" d="M113 735q0 341 161 546q171 216 480 216q152 0 243 -24h785q8 -40 8 -91q0 -50 -8 -92h-600v-422h479q8 -40 8 -90t-8 -92h-479v-504h616q8 -40 8 -90q0 -52 -8 -92h-790q-115 -25 -267.5 -25t-271.5 56.5t-197 158.5q-159 204 -159 545zM336 735q0 -417 232 -539 q77 -40 200 -40t205 28v1104q-98 25 -208.5 25t-188.5 -40t-132 -115q-108 -152 -108 -423z" />
<glyph unicode="&#x153;" horiz-adv-x="1882" d="M106 524q0 244 124 392q133 159 374 159t369 -211q53 98 147 154.5t212 56.5t199 -38t136 -104.5t84 -154.5t29 -172.5t-8 -130.5h-699q4 -172 87 -252t232.5 -80t284.5 52q35 -78 39 -162q-140 -58 -325 -58q-303 0 -422 220q-125 -220 -375 -220q-233 0 -364 158 q-124 149 -124 391zM313 524q0 -182 70 -284.5t211 -102.5t212 102.5t71 284.5t-71 283.5t-212 101.5t-211 -101t-70 -284zM1075 627h508q-2 125 -59.5 204.5t-178.5 79.5q-238 0 -270 -284z" />
<glyph unicode="&#x178;" horiz-adv-x="1212" d="M37 1473q54 8 100 8q85 0 133 -8l344 -732l340 732q54 8 109 8q59 0 113 -8l-461 -934v-539q-54 -8 -107 -8q-60 0 -104 8v539zM274 1718q0 51 6 105q58 8 96 8q71 0 119 -8q19 -110 0 -207q-50 -8 -103.5 -8t-111.5 8q-6 51 -6 102zM710 1727.5q0 37.5 11 95.5 q50 8 91 8q66 0 124 -8q6 -53 6 -104.5t-6 -102.5q-58 -8 -111.5 -8t-103.5 8q-11 74 -11 111.5z" />
<glyph unicode="&#x2c6;" horiz-adv-x="1019" d="M168 1217l223 260q54 8 101 8q91 0 139 -10l221 -258q-41 -9 -92 -9q-68 0 -117 9l-133 163l-133 -163q-52 -9 -110 -9t-99 9z" />
<glyph unicode="&#x2dc;" horiz-adv-x="1024" d="M160 1368q76 100 196 100q60 0 126.5 -30.5t103.5 -45t75 -14.5t67.5 12.5t72.5 51.5q45 -55 65 -125q-81 -96 -198 -96q-58 0 -126.5 30.5t-104.5 45t-76 14.5t-68.5 -14.5t-69.5 -49.5q-48 61 -63 121z" />
<glyph unicode="&#x2000;" horiz-adv-x="958" />
<glyph unicode="&#x2001;" horiz-adv-x="1917" />
<glyph unicode="&#x2002;" horiz-adv-x="958" />
<glyph unicode="&#x2003;" horiz-adv-x="1917" />
<glyph unicode="&#x2004;" horiz-adv-x="639" />
<glyph unicode="&#x2005;" horiz-adv-x="479" />
<glyph unicode="&#x2006;" horiz-adv-x="319" />
<glyph unicode="&#x2007;" horiz-adv-x="319" />
<glyph unicode="&#x2008;" horiz-adv-x="239" />
<glyph unicode="&#x2009;" horiz-adv-x="383" />
<glyph unicode="&#x200a;" horiz-adv-x="106" />
<glyph unicode="&#x2010;" horiz-adv-x="739" d="M96 573q0 53 8 95h531q8 -40 8 -95q0 -54 -8 -92h-531q-8 36 -8 92z" />
<glyph unicode="&#x2011;" horiz-adv-x="739" d="M96 573q0 53 8 95h531q8 -40 8 -95q0 -54 -8 -92h-531q-8 36 -8 92z" />
<glyph unicode="&#x2012;" horiz-adv-x="739" d="M96 573q0 53 8 95h531q8 -40 8 -95q0 -54 -8 -92h-531q-8 36 -8 92z" />
<glyph unicode="&#x2013;" horiz-adv-x="1024" d="M-8 574.5q0 47.5 8 93.5h1024q8 -46 8 -95.5t-8 -91.5h-1024q-8 46 -8 93.5z" />
<glyph unicode="&#x2014;" horiz-adv-x="2048" d="M-8 574.5q0 47.5 8 93.5h2048q8 -46 8 -95.5t-8 -91.5h-2048q-8 46 -8 93.5z" />
<glyph unicode="&#x2018;" horiz-adv-x="528" d="M102 1470q56 9 103 9q55 0 98 -9l121 -456q-46 -8 -96.5 -8t-98.5 8z" />
<glyph unicode="&#x2019;" horiz-adv-x="528" d="M102 1016l121 457q50 8 87 8q66 0 116 -8l-127 -457q-36 -8 -80 -8q-84 0 -117 8z" />
<glyph unicode="&#x201a;" horiz-adv-x="528" d="M102 -231l121 456q69 11 96 11q38 0 107 -11l-127 -456q-47 -7 -86 -7q-76 0 -111 7z" />
<glyph unicode="&#x201c;" horiz-adv-x="927" d="M102 1470q56 9 103 9q55 0 98 -9l121 -456q-46 -8 -96.5 -8t-98.5 8zM501 1470q56 9 103 9q55 0 98 -9l121 -456q-46 -8 -96.5 -8t-98.5 8z" />
<glyph unicode="&#x201d;" horiz-adv-x="927" d="M102 1016l121 457q50 8 87 8q66 0 116 -8l-127 -457q-36 -8 -80 -8q-84 0 -117 8zM501 1016l121 457q50 8 87 8q66 0 116 -8l-127 -457q-36 -8 -80 -8q-84 0 -117 8z" />
<glyph unicode="&#x201e;" horiz-adv-x="927" d="M102 -231l121 456q69 11 96 11q38 0 107 -11l-127 -456q-47 -7 -86 -7q-76 0 -111 7zM501 -231l121 456q69 11 96 11q38 0 107 -11l-127 -456q-47 -7 -86 -7q-76 0 -111 7z" />
<glyph unicode="&#x2022;" horiz-adv-x="833" d="M154 766q0 111 76.5 187.5t187.5 76.5q107 0 185 -76q77 -76 77 -188t-77 -188q-78 -76 -185 -76q-111 0 -187.5 76.5t-76.5 187.5z" />
<glyph unicode="&#x2026;" horiz-adv-x="1501" d="M123 113q0 46 10 116q65 9 113 9q51 0 114 -9q11 -80 11 -114q0 -51 -11 -115q-58 -8 -112 -8q-57 0 -115 8q-10 72 -10 113zM627 113q0 46 10 116q65 9 113 9q51 0 114 -9q11 -80 11 -114q0 -51 -11 -115q-58 -8 -112 -8q-57 0 -115 8q-10 72 -10 113zM1131 113 q0 46 10 116q65 9 113 9q51 0 114 -9q11 -80 11 -114q0 -51 -11 -115q-58 -8 -112 -8q-57 0 -115 8q-10 72 -10 113z" />
<glyph unicode="&#x202f;" horiz-adv-x="383" />
<glyph unicode="&#x2039;" horiz-adv-x="747" d="M100 547l340 452q56 9 94 9q73 0 123 -9l-333 -450l333 -457q-58 -8 -113.5 -8t-103.5 8z" />
<glyph unicode="&#x203a;" horiz-adv-x="747" d="M88 92l336 451l-336 456q65 9 103 9q71 0 114 -9l342 -454l-342 -453q-62 -10 -102 -10q-42 0 -115 10z" />
<glyph unicode="&#x205f;" horiz-adv-x="479" />
<glyph unicode="&#x20ac;" d="M39 552q0 38 10 73h150q-2 20 -2 41v97q0 25 2 52h-150q-10 31 -10 69t10 72h170q47 242 197.5 379.5t408.5 137.5q190 0 351 -56q-6 -67 -50 -172q-122 45 -287 45q-320 0 -395 -334h523q8 -28 8 -68.5t-8 -72.5h-541q-4 -50 -4 -89v-60q0 -21 2 -41h543q8 -28 8 -68 t-8 -74h-525q39 -168 140.5 -245.5t268 -77.5t292.5 55q41 -80 57 -170q-163 -70 -371 -70q-266 0 -417.5 132.5t-196.5 375.5h-166q-10 31 -10 69z" />
<glyph unicode="&#x2122;" horiz-adv-x="1691" d="M47 1370q0 35 6 78h619q8 -40 8 -76t-8 -74h-230v-669q-46 -8 -83.5 -8t-73.5 8v669h-232q-6 37 -6 72zM764 629l41 819q25 2 45 4t39.5 2t41 -2t46.5 -4l203 -449l200 449q23 2 42.5 4t39.5 2t42 -2l44 -4l41 -819q-50 -8 -73 -8q-55 0 -84 8l-31 522l-176 -367 q-24 -6 -51 -6t-66 6l-162 361l-26 -516q-39 -8 -77 -8t-79 8z" />
<glyph unicode="&#xe000;" horiz-adv-x="1054" d="M0 0v1055h1055v-1055h-1055z" />
</font>
</defs>
</svg>
